<mxfile host="app.diagrams.net" modified="2024-05-27T15:01:34.426Z" agent="Mozilla/5.0 (Macintosh; Intel Mac OS X 10_15_7) AppleWebKit/537.36 (KHTML, like Gecko) Chrome/124.0.0.0 Safari/537.36" etag="JiHUR4R7aH_0h2HGjhGh" version="24.4.8" type="github" pages="3">
  <diagram name="第 1 页" id="DGnfJvfoHmJD62f1YSFq">
    <mxGraphModel dx="2452" dy="1302" grid="0" gridSize="10" guides="1" tooltips="1" connect="1" arrows="1" fold="1" page="0" pageScale="1" pageWidth="1200" pageHeight="1920" math="0" shadow="0">
      <root>
        <mxCell id="0" />
        <mxCell id="1" parent="0" />
        <mxCell id="eP5wv--7RmJ1oQfR4Wkm-1" value="" style="shape=image;verticalLabelPosition=bottom;labelBackgroundColor=default;verticalAlign=top;aspect=fixed;imageAspect=0;image=data:image/png,iVBORw0KGgoAAAANSUhEUgAABFoAAAF2CAYAAABeaPx5AAABU2lDQ1BJQ0MgUHJvZmlsZQAAGJV1kEFLAlEUhc+UYpSLBoKCCgZq0UKjJqFFKxWKoIVYQdlqHG0Mxun5ZkqCoE0/wk2rWlT4B2pRbtwHQdQfiFoHEqRM9znVaNGFy/k4HB7nXUBqaoyZAQBFy+HppYSysZlRQi8IYhQy5hHQdJvFU6kViuBbu6fxAEnofVS8daieDlztv1bqcn3kIpqZ+Jvvmv5c3tZJm7STOuMOICnEqbLDBDPiIU6liI8FGx5XBGc9rrYza+kkcY14UC9oOeI74ki2wzc6uGju6V8dRPtw3lpfJe2jHYNKP09g9p9MrJ1JYhcMB+DYgYECHCiIk8NgIk+8DAs6phEhVjFDGxO3/X0z3+OXwMIR0NPwva1noPoIyLe+N7UIDJ8DN2Wmce3nklIjYG/PqR6HORB8d923cSB0DbS4636cuG7rDOh9AmqlT29xYj7/1pZRAAAAVmVYSWZNTQAqAAAACAABh2kABAAAAAEAAAAaAAAAAAADkoYABwAAABIAAABEoAIABAAAAAEAAARaoAMABAAAAAEAAAF2AAAAAEFTQ0lJAAAAU2NyZWVuc2hvdA4JlToAAAHXaVRYdFhNTDpjb20uYWRvYmUueG1wAAAAAAA8eDp4bXBtZXRhIHhtbG5zOng9ImFkb2JlOm5zOm1ldGEvIiB4OnhtcHRrPSJYTVAgQ29yZSA2LjAuMCI+CiAgIDxyZGY6UkRGIHhtbG5zOnJkZj0iaHR0cDovL3d3dy53My5vcmcvMTk5OS8wMi8yMi1yZGYtc3ludGF4LW5zIyI+CiAgICAgIDxyZGY6RGVzY3JpcHRpb24gcmRmOmFib3V0PSIiCiAgICAgICAgICAgIHhtbG5zOmV4aWY9Imh0dHA6Ly9ucy5hZG9iZS5jb20vZXhpZi8xLjAvIj4KICAgICAgICAgPGV4aWY6UGl4ZWxZRGltZW5zaW9uPjM3NDwvZXhpZjpQaXhlbFlEaW1lbnNpb24+CiAgICAgICAgIDxleGlmOlBpeGVsWERpbWVuc2lvbj4xMTE0PC9leGlmOlBpeGVsWERpbWVuc2lvbj4KICAgICAgICAgPGV4aWY6VXNlckNvbW1lbnQ+U2NyZWVuc2hvdDwvZXhpZjpVc2VyQ29tbWVudD4KICAgICAgPC9yZGY6RGVzY3JpcHRpb24+CiAgIDwvcmRmOlJERj4KPC94OnhtcG1ldGE+Ci00zWMAAEAASURBVHgB7F0FvBXFFz50d/ejQ7q7uxsJCQlB/0pIiaASgoqggKAIIo2IIKAI0kh3dz26u/P9zzf3zbJ3395875Hn/H57d3dmdmb229m9O9+eiBDEQiKCgCAgCAgCgoAgIAgIAoKAICAICAKCgCAgCAgCoUYgYqhrkAoEAUFAEBAEBAFBQBAQBAQBQUAQEAQEAUFAEBAEFAJCtMhAEAQEAUFAEBAEBAFBQBAQBAQBQUAQEAQEAUEgjBCIHEb1hLqaFi1ahLoOqUAQEAQEAUFAEBAEBAFBQBAQBAQBQUAQEAQEATMCU6dONe+G+/ZLQ7RkzJgx3E9WGhAEBAFBQBAQBAQBQUAQEAQEAUFAEBAEBAFBIDwRiCDOcMMTXqlbEBAEBAFBQBAQBAQBQUAQEAQEAUFAEBAE3iQExEfLm3S15VwFAUFAEBAEBAFBQBAQBAQBQUAQEAQEAUEgXBEQoiVc4ZXKBQFBQBAQBAQBQUAQEAQEAUFAEBAEBAFB4E1CQIiWN+lqy7kKAoKAICAICAKCgCAgCAgCgoAgIAgIAoJAuCIgREu4wiuVCwKCgCAgCAgCgoAgIAgIAoKAICAICAKCwJuEgBAtb9LVlnMVBAQBQUAQEAQEAUFAEBAEBAFBQBAQBASBcEVAiJZwhVcqFwQEAUFAEBAEBAFBQBAQBAQBQUAQEAQEgTcJASFa3qSrLecqCAgCgoAgIAgIAoKAICAICAKCgCAgCAgC4YqAEC3hCq9ULggIAoKAICAICAKCgCAgCAgCgoAgIAgIAm8SAkK0vElXW85VEBAEBAFBQBAQBAQBQUAQEAQEAUFAEBAEwhUBIVrCFV6pXBAQBAQBQUAQEAQEAUFAEBAEBAFBQBAQBN4kBIRoeZOutpyrICAICAKCgCAgCAgCgoAgIAgIAoKAICAIhCsCQrSEK7xSuSAgCAgCgoAgIAgIAoKAICAICAKCgCAgCLxJCER+k05WztUZgX+2bqW4MWJQyRw5nDNe0N7y3bvo3oOHVD5XLooRLdoL6kX4Nfvg0SO69/ABxY8VO/waeQ41r9m3j27cvevVdfpv7166de+e0auk8eNRoUyZjX3ZcCCw8/hxOn3lCuUOCKA0iRO/NrDce/iQZq5ZbXs+NQsVpsRx4tjmSeKbi8CF69cpSbx4FDFChDcXhOd45oEXL9LKPbtDtBg1chRqVrp0iHRJEAQEAUFAEBAEBAHvEBCixYTT9FUr6eGjx0ZKpEgRKX2y5FQ8WzaKGPH1U/4ZMGUKFWWSxV+i5WlQEK0/eJAOnjpFQbydM106yp0+PcWIGtXA0JeNYX/Mprv371G1/Pl9OeyVKAt8mn79NZ29fJmm9OpFmVOkeCX6bdfJEXPn0il+Oa82fLhdtlPa2AUL6OjZs0YaxtvzIFou3bhBCzZvpmI5slPWlKmM9s0bW44eocNnzlLTl2AyMW/Devpn4yaa2L27uYuv/PaDRw/pp/l/2Z5H/gwZhWixRebNTVy4bRv1nzyZKvB/wJctW765QDzHMz927pzLe1SIlud4IaQpQUAQEAQEgdcOASFaTJd03D//KI0KU5LaTJYwIbWtWoVqFy5izXrl96NFieLXOVy9dYs++nksHTl12un4lPw1/stWrSh7mjRO6d7u4Cva60hq4fyfPH2qYLj/4IG3cIRZud0nTtDkZcuobO7cVKNgwVDXGyNaVK+u0+j//Y8eP3lCN1kDptmQIaFu19sKHrL20E9//033ea2JlgOnT9Mj7ksuJgQhf23cSDuOHH0uRMtfTPosZg2yLnXrUsbkyV2ehr8kpcsKX5KMdypXpnaVKjn1JkrkkH8/YT1O0eB1HnvD5symhKw907VOXac+yI4zAt6OU+ej3O/5ck2fBj8jb5u04NzX/vLnhgemYXnWZVmDdNXQoU5VDp71O/27abNTmuwIAoKAICAICAKCgG8IhHzT9e341640iILvOnRQ53X7/n3afuwo/TB3Hg2ePoOyp05NmV18HX/tgPBwQkN+/12RLO2qVaOGpUoRlLxXsfoxcJqweDENbdvWQw1vVnYEVoOf2qMH3bxzh1K9ANOQPUy0rN61iyrkzftcgY8fM6ZqL0qkSM+13RRMjkICL1ww2p23YQPdZo2pXOneUWnQLkrvhvQwDgyDjf8Y+80HDlAcNtV7EyUSawR6Q+qGxzi9cP0aLdmylWoXL/4mQu/TOYfHOPXlmoIEzsb/s2mSJPGp3y9z4fDANCzPFx82olk0dqNGklfDsMRY6hIEBAFBQBB4MxF4/exhQnkd8UU5XdKkankrbVpqUbYcdWvYUNW6dt9+29pv8te3E5cukf4aZ1soOPEhf1G/yGYNngRf3s9cvUIwz/FGYJpykvtw1422xPU7twn22N7W6apdnMPq3bsJpFRb/lKNyXQ8XqDxM6xjR/qkcWNXh9ItJq/g38MbQX9hr+9OgDnO21Od8BVhxh3XzNUxwBLtXr55013TPudhku0LyXKGiQBXffS18VvBmCeNH9/jodC8Qdtm3yruDsI4xXUNK/H2mrprD5OHjClTOpktrWPfMpv2H1Bmbjj25IWLFJA8WYhqfGkf1+fctWuGtlKIyoITbty9o7a89Ulyn8crnilaC8pVvb48e1AH7t0T/AzA8+VlFF/GKZ5j5xl74I971pXocezN2Ecd3lxTjBHcI1qAq6dnFZ4/YXU/63a9XV/jZymuu6fx5Ms4xTP1FGMA31PuxJdrinqg8RXVC2LW1//IsHyeujtfa54vmAJL/Efj/ncnuJ7mZy7GHsagK8E94Gl8ujpW0gUBQUAQEAQEAUHAPwRC/dniFPvn+PTTT6lr166UL18+/3rxkh8VwMQLxDxRx/52dmD59cyZFHj+PHaVdKhRg1pVqED4gmsW+IMYNW8eHTx5SiXHixWLSrMZR7d69Zx8muAF6utZf9DKHTtUOZhoVGMC46NatSi6yffJxOXLlF01iI2NBw8oNd8brC0BKZEzJ/Vr+rbhdBUv2P1nTKd9xwNVPurs2qCB2vaHdHka/EJ3h1/e8EJodlxbgv3ZWAWToD/WraMZK1YoHyXIB0lTr0RxeqdceWtxNSEw9zdr2jQ0rF17Shw3rlEW7Y5i05DZ//1npGUPSEd9325qmGbAaWv3n3+mItmz08b9DpLs7fLl1KRs5oqV6rjO9esbpiMgqUbOn0//btlsmJABq/dr16FGJUoY7fiygZfbOl984XTIOvZtYjWPOsaaFzCtacD+QvKwn5vRf/1FF65eVcfVK1mSevL1glaMr9Jo8GDlT0Uf9/7IkXqTBrdpQ+Xz5DH2MWn65o8/lOaFTgzgSU/3Rg2pYMZMOslYr2UNjW9Ys0n3M3fGDDSgxTuUPEECo4wvG95cU1/qQ9+Xsc8HTC6h1aD7eYTv19SJEhHul/RJnxEt3raPe+b3NWvo10WLVB26T7h2H9asadynIADq9e+vs9W6eLduxv7fAweG8FFyhwmrT9lHBfoNwXPim3bt1JgwDuQNb589XXj8b+D7YM5n/ejb2XNoHTsn1tKCTXk6sUaa9VkFUxuYXiVlh6TPS3wZp3ieTGIzuElLFjvdp9X5Ofmh6Tk5ZNYsmrd2rXEK49k0FAukcbmy1M1kRuTNNcXEtlLv3pQrQ3pF0mH84JnTuHQZ5VcE9VYqWIAG8j0AaTV8GJ2/cpUGtWlNQ36baTz7cJ/gOZX2OWhtrOLrPeLPP4220S88Dz9p0oSSB5Ouvo7TjYcO0Xdz5jj976HOXvycSJkwEZpQ4ss1/Wb2bJqzerU+lPA/+q7F1ExnevMfGV7PU90HT2tfMT3P/xND+F1C/0+hfoyl7vUbqI8Y2B/N/q6mLFlCpdjUBx86IP1atKB569fRrqPHKBHfr/1bvqOe1SP+mk8zli2nb9q3pynLltLuY8dVeZhB49oXzZpV7cuPICAICAKCgCAgCIQfApG+YPGn+lvso+ODDz6gluywbherxXdgc5sUr7CDT2AwaekSisOaGQ0sk2q81MPha9VChZTDV5TdduwYYdKKl/6m5ctTI55kXbp5gxZu2kRReXKeN30GFFMym0mGvr/+yo5e76sX/Cyp0yhtic3sSHYDkyQ1eIKAyQ78njQd8pVqq1qRwlSFX7Su8cs8TD62sQlTzcKFjcn2hgMHacfRo7ST+7GJSYQCWbJQvZIlKCqTMWv4Jax6kSKUIHZsjnLzkFoNG0Ynz/NEvmIFalSqtJrkT/x3sepbumTJqLKPBFlk/toIu3s4Od1w6CD7Y0nrRIIEn7ax6jdtKk1bupTic3/qsPp+Wm7zyJkz/LK4h24wWVOcX9Ih01eupGuMwRKeZOI61C5aTOF07Ow59fWuNBNIWrr8PFZNRuFctS1PFrOkSkX/bt5Cy7Zvp7rcBswUjjPBtJTrunrrJr1Xs4bCd/Wu3XTs3Fka0LoV7edruv3IEWperpyqdhybPM3kPpTLl5dJoJKKDDrDkWAw6c2UOhUFmCbluh+e1vjOHonxypspk/r6e4/JnLZVqhjXUR9/7fZtms2T98Dz52jJ1m1UlDEpyo5cj549Q7uZ0IN2hj9mLnfZGWn2tOmUj5Tr3AbMJwozGZYnY0b1sh2fJ/Jauo77mXYyHk2YjKpesBDFihmD9vN1XsK+Rarx2I8dPboqOosnRFdY22fxli1UgcdOOSZrrt+7S/sDT9AKHnsNmBiyTt7xpXYq30epeXJZtUAB3aTT2ptr6nSAh53jTKhs4/Opwu1tO3KU1uzZo45IkzQJk5CxFN7NmRRNEUwMedv+5sOH6XMmQ7KkSU1vly1LOZkYgw+atVz/vcePqFgw2ah0LPi+BtaHz5xWvmre4ckj9jEeMNnBvQSB2d1hvidW8r0OQrcJ1xs5ciQ6fo7Pge/zRoypJtp8evasXUMXr11nMvaQGke4/niOXeY29gQGUpMyZZyuFSaItT77jGbwfVCEzyOZFxpQ6gRc/Nzn8Td1+XJ1vgX5nF2JL+N06soV9CMTkXkzZSQQpYWzZWWTsAfqXj/F92uFYPIQYy4VjzcQwdBmABlQnscr8C+YOQulNZnweXNNHz5+TFP4OQY86/CzNhmPG5iDrdq5kz6qV5di8P2xfNt2fm4XVJPj6UzmXuQJ9MJNm6kSj8EK+fMpn0GYFP+9aSPV52vqjTmVK8w8pe/m6/vRmDHqWdqFccJ9F4ufq8v5GbmQfQY14+ceIvv4Mk6hGdHsq68oGv/PNOXjS/KkHyTVJsZhK/8X1Sla1IgW5Ms1ffT0CT8bklKyRAnpKDuoxjUqYDNevP2PDK/nqSfMdb4vmEIrreGggfzsv0C1ihWj1lUqU3Qes4t43Bzm/9hqwT611h7YT3v5Y8ljJo5hsruT3wnwfxcndizqzkT832wa+YSvZrlcuWkVP4cPnDyp/kszpEhJDdi8N26smIqQWcTP7fz8vqCfe7rP5vVqJugOsU+rdlWrmpNlWxAQBAQBQUAQEAR8QCCyD2WdisbkF7Y2/EW8Pr/A1eCvT9Yv9E6FvdzZyy8Gv6959lXLelg51gApmzOXSsbXnYs37M1KIvHLY98mb/vVJ0xA/ly/XrWBULz7eDK+lO378WW5Ok9QtAzjL//QdpjMfjf0ZKQUEwEt2akcomw0ZUIDL9HQaBjKX/1RdhpHmzF/8cNXvCg8mdJq0vgKha+kPdj0pgFPiCDNypQlfJXGCz3CMVsdmeIrPbRTmvCLlC6/iImBDExmQH5btYqu8Dl93KiRoZUBYiVuzFg0i/P8lf7vvEP9eLKJfrX+9lvKmzkTtalYiYpYvpQhbCTww1fgkR07Gdo7D3jcdBg1kgrwcVYp+lYO+rxpM/XC3pJJrGr9+hLs3D/lL3EQfKXdwhNHEAJdWdtEC7RkELFiJhMB7dikSUulAgWV5gwiSoEcale9Oocmzk2buY4/mdyAOj9Mn9pUrEjFeDKWjyfOWpqXLUP1BwykBfzSq8eezvNmHYcnXx35pRiy7chhdS3cHYfw1n2aNTUcL5d6K6ci9Fbt3eOkfeKuDnNe6/IV1O5JJp2gedWOSR5Xmgr9m7dQZXV4YRCOC/ilfODUqbSSX9z1GNP1Y3KJ8QnBpK3L2J9o26HD9Be/8FvJSlXIzY+v19RNVUZWQPA9EHjpEm3ir/AFs2ahw6fP0EYmKVMlTqLKpWfSBeJL+4V5kjKiUycqxGsdghZf3/EFfz6TqtrhKkKnf8DPRsgf/61SxJ3eV4k2PwnYYeu4Ll0I4waiNVJwDvqe9vbZY64e134cax1qR8C1mbTdzhNjq++c20yYabFq8On08Fj7Mk7XsoYO5JNGjQ1TvFocKvpb1rIAGa2lIvsjwjKT73FoCoAsrOoiopm31xR14zkDbRhoFYG0KP7WW+o+SBJvh9JEPMJErr6HUP5/desoE1RsN2Ptl74c7Q3HTWYC6n/B4wN5YS0bmMiHtK5cyfjfgAZbPiYwYM6jyVBfxinMH3/m8ZmJP6rEZDIAgsg0A3/7jRbwfQ9NEh1RzZdrimcrFmh+unPC6ut/ZFg/T9UJe/HjC6a/LP5XaWZ9zdonZXgsQfD/hOuD5wmI1fwZnn24ac//X4jMt2o3f4Dh520fvg9ysJlzGta81Rqzuov4EPF9sM85pOUMSE/f8bvLqPnz6NcuXXUxWQsCgoAgIAgIAoJAOCDgN9GCr/QleCK2Nlg1W39tDU0fT/JXR3cvWcniJzAmu/iSA2eWrqR3w0YUlV9UfBUQHTAHMgteYIYwqaQnP/iqhgl7WX6Jx8um9gGAY4qwFgImNTDDwMvoquCv6Hg5MpMsKAs1d/1FE/bmOHeo9tbjr1pa8LL1Pr+Mt2FCYy0TDFaiJX+WzCEmwObJBL5qQuqb6sR+ee57aIgW+GUZ+d57tJYnMNAE2nH4CHXmBYTLoJatDJOIRUyyQLrVq2+QLNjHeY95/wOKFTyhRJqWrnXrGRNYmEu9FRCgiBWYM0Tl4zYyFpBq+Qs4YV8oc2aVDs0As2BiAcEXZ0gO1vCARIsaRa2DghzRgOCfx0yyIBPXDCSbu7GmKgmjH5i7mKNb5eFzh1xgTYPQyK3gCXSs4MmRXV3myaHO1xPz0zb3Wj3WONICsvBdJrfw4r/rRKDPRIuv11S3624NbS3IcQ5fuo6Jqnf56yzU63Gf5edxCvIzfqzYqoyv7VsJRdynudIHKK0qTdypivkHWm+Y8KVK6hh/Ot1u3aFGdeM5g3yES4fpzyUmbEG0+PLsMdeP54++lkjHfWcX1h3Ovkf97wP29fSQSvEk7XmLN+M0I3+hx/Om54QJ1IbHXAnuJ+7dHsHmkNY+32ZSAaKJAWu+3vd0TfXHhALBz5kY/CyCvBUcxUo/y4OeKn0GXS2TO880uFAHtARAtOxkUiE8JWPKFKr60fPmq+sJ0gk+gjBJtxNvx2nu4GeSuQ6kgWg5c+WyQbTofG+uqS7rbu3Pf2R4PU/d9dOc5w2m6/buU/8xIFPM7xLF+V0CRAu0WsxEi96OFc3xPMkWHOEvGj/PHvPHBLPUMH0cQnpD/oAzYeFCpX0Iny76I4/5GNkWBAQBQUAQEAQEgbBBwG+iJWyad66lCmtaaLVv5xzHXmSTj4qZn3ziUHm2K8hp/r5A4Guljjr0A6unwxa6V+NGijTRTR2/eEFtwo+K9qWi8/T6DGuagGg5wi9JkFzpAtTa/GMO5QoHeJDs/GVKfyXXZbOyWQzkGE8YrVIhT15rktM+oq6AvNFfL3Wmt045dXm7Ncg1TNaw7GNtpLH8Aocvx51//JGmdO+uNIqgfgzJypEkrGJHsqjJL5M4Zokdw7F/L5hoOcbmNRBo0tgJnLOaJVoUxzCPEJzoamyAyFm0fRut3LmLjjLW2qcHDov1nKLFZE7tuNa6//q6weQoNAITMojZn461Pvg+mL12HW05fIiOs7kWSEctdg4vrXXpiFzQnvFVfL2m3tSvTUOgKg+io1DmLJQgTlxFtPy9YSNlCr6vUJcv7WPyBA2ZvzZvoiOsIXPh2lXDVwjqgq8XaEhp0dhp0yudbrcOYPMJs8QOHnf32AQH4suzx1wPzLu8lUKZHISlt+XDspw34xQaYjDFgglO34kTVfNl+PzgGwtf9q2CEN8QjaU1H/veXNOYwUQtyF5IhIiOJ0rU4OeLSrT5MfuWQnb6YJ9fcMYcnlKONUTgNwh+rL5n7Uks8A/TsGQpW3NRb8fpMf6Q8Ad/YNl/6iQF8nMS95aWew8dWOt9rL25pubyrrb9+Y8Mr+epqz5a0z1hCvLoVPDzshK/09jJWev/GZOKZrG+L5jzUrEvKrPg/yQb3yP4nz7HZnZw/C8iCAgCgoAgIAgIAuGDwEtFtOCFwdUk2Hr6VpV3a76/+zrqEI5/j78Cg2gZw2ZKEzp3Map8/MShAQG1XNjj2wlCQUPwAg95xHbV7uRR8GRAlzeX1V9S7SJGeBPF5r7NJP0+m0UpCe6fuT1/tjHBGcEaLj1++UVhdogJJoTp1H1W52Uiyly1ETWyYxLjKh/p8JUAgSNAjY1KCP6Ja5rkmtPdbcPPQA/+Qo4X0ExpUit/CvDjEZnDXE7691/jPNzVERZ5ducD8im0ghd6iKuXckR4avHNUGXahHFdh7XV4seKqaLT/MimcHbj0tonfe/6c2+GxzWFhgFIRmiYAUP48dE+aTC5yZfJYZ6H8/Clffhs+okdMUM7piybM2IiHY01hVbu3KEm/1Zc9L0fmSc5nkQTa67K+fLsMdeRinF4FcTTOMU5KPOVDz9SJhUr2D8KfAXBTwqWr9q1NbQe9fk+fOJ4XsCk1JX4ek1d1eNNOghqjMfIkcP37xft9GATzcYlS9IS/igAf1Ugp7DsPXnCMHHTffZmnMJcqtOIEeqQKoULsX+tHIqExj0G7Qs78eaa2h1nTfPnPzK8nqfWvrna94QpoldB8JzqyI607UQTc3Z5ntLszj9q8Ljz5nnkqX7JFwQEAUFAEBAEBAHXCITvm57rdl+JHGikwDwIWiuIsKIj6uivQNDIcKWGrU8wA9cB2cT28lrlV+eZ19rR6QH2CYOXL/MLEkKYQuAQ1SqeTLbgpwKRRuArRvuSQR3n2KFjaAShj61falFfZp7Mgpy6G6xBgcktNEPgzDesvpRnSJ5CRVBC+G0dESo054Jj57HaO0iWlmyK8D4TbGYB0fK6iCt18WEcmQS+fOB7xGxCgRDDIFrsBFGazOYYx1l7CoLr46uExzVFHzLy/YfxV4QnhCCZEBEJWmswBQtI9uxrrrftwwcFSBaYyI3q2MnJx8l+nrzaiZ7g63vCroy3ab48e8x1RvCC5DGXf9HbrsYp+qXz8DzF0rVOHfpt9X808s+5NJ7vVasvJU0uas0W67n5c02tdbjbhzkIyCEtl9n0FFogOU0O03VeWK41Thgz8FmFRTtSRtQ1+KTSpnNo19M4Bdnae/x4ZeYypWdPJ19Pc/n56Ypo0eek+6P3fV37+x/pazthWd4TppoMxseQqqzR6+n/3Ne+XeBnOj54mAVarpAUrwj5au67bAsCgoAgIAgIAq8SAp4/sXo4G/2lW689FH/lstsHe93/ccHfxlf9ZPwlG5M1RKOByYxZ8BJtVvUtERxRZyJPAA4Em9Ho8sv4Cyxe8iHQpEFUDEwK/+SXVrOMXbRQ7cJho68CHw8QfLHVAu2NecEOf3WaL2uQNohkhJd2syD8Kcw0IBnZ1wikHBNVkGF/zCZoTWiBpstv7LRWq5XrdG/WBYN9JIzmCa9VtE8aa7qn/dPsWwCSxhJydQn7UjCb0Hiq52XNTxDsi+SgaQyax64290mdJLHTKcCZsivRTkmRj/sfk1yIXbQQleHmJzyuKZpLn8IxDs3kUeFgh83pkjnyUM7b9s+yuj0EkxSz5g4IKUT7shNNRh1nLS9tSoDxf5AjSvkqvjx7fK1bl9985DDBiTWeE89bPI1TaEd0/GEUmc0DQUrXK+bQTrp1x+GPxdzveMGmhwdOnzKSEfIeRCHEn2tqVOTFBp7zZhnHYcEhBdm/llXg3wdOz7EOrXzN4a3h5NksIKbgmBxiNfPxNE5hEodnISLimE1P8Qz/Y+0aczNO256uqVNhNzvh9R9pbhL3MbR/tBaOOc+fbU+Yok5E9wKu+D80C4gp6zuDOd+b7aVsCmuWxfx/Bm0+vGuYP+aYy8i2ICAICAKCgCAgCIQNAqHWaDkX7DfkKhMEr6OAMEBIUDgvXMGTD0QDwFennhzFpwv7Ivlg9A/UjCO7wPHgKX5Jm75suXoR/bNvX/Uik5Yn7lAJxldw+BSpyU5pMZlFmEZofmQPSGd4//8Yat5ffqmiFMFHCLRB4AAX5eDUD6EzfZXGHI1oxooVNIdf4uBIMy+HzfwvOFqBr3Xp8ns45C+0HxDeuhSH94RfmQicOZfJGxBFTSuUN3xUQOMHoUQRnajJ4CGEsNVw4odwtkdOnaYr3KcPLBokuh1Xa/jymc3RqRD2uiPjX4cnWdACQmhcpPVlk6KaLky6XNWZn/1STFvqMAnBBCyArxvCaf7OX35DI9D8WbBls6riBIfvhCDaCPw7wDllKna2+zwEhBuuQd9Jk6hsntwEwgUORX/r00dpBRXKmk1FrOjLUZuaciQh+J2Yv36D0oZy1b9+XNc+nrymSJCQFm3dorSMsqZNo85LHzOd/UM8evzImNSB0Jm03EH6wdxMazmFxzVFHwKCyRRNpCAN23PZx0RAcMQhpHnbfs50aVGcFm7cxOF9EyqNioPsL2QCT57NvipUIdMPNGCAd6cxoylXQADf03voDms6LBw40KcJjy/PHlPzXm9iYvfhD6NVeTszHK8r8rOgp3GKUNf7+NnZgCOB1ednWz4mDq4zKYHrCanJYe2tkit9gEqCZhZCM1/nSS1I8p4c3a0+Owf195pa23G1/xVH5MFzvCAT5evYsTE052B21oR9pVhl0IwZxvP+t969rdle7yNkMJzTYsEzGj5s8IyGE/ndx44rjSy78L7uxil8MuH/CmHcP58+jaoWLEQIozyVQ17DdMiVeLqmOA5kFMhu+H+B7GANSDwnEseN5+QAPjz+I1WD/ANypfW3Q9V9DN82MLsKC3GHKcgO+Bxaws/PERw1C//7CA9/nXH9c8N69R8589NPKZ3lA4C3/VrCzujxzEWI+0D2CaS1jv5Xy95Mydt6pZwgIAgIAoKAICAIeEYgVERLq1ataN68eaoVhHnuw5O2nqxS/KoK/INEiBRSyQchcUG0/LJwkSJacH5F+av4Dx/+j76d9QenOzROkA7/HgiTa/5a1JpVtJPzF/Dv2Bnh3yZNErwAf8Iv+1pAykxnh3ifTZ2iiBGdjnKfNm0awqGtzne3xhe1sZ07c0jRycoECmZQ0Mb5kdNga3/r/j13h9vmwWFxEg7xOWzObDUpABEEgd8BhDJtyiFMtWBiOJzDVo5jbYdZq1bSb8tX6CxqXrECdWBstUTmyDWPg/2v6DSstd8KbVOOOke+15HG/POPipyECSwE7bfi+qoHR9XQatuRIkZS+boevYb/FUiECBGVWVin2rWUmQzCX0JQX0dOm79uvdr35+cMa0BYTW9AukGypkr9jGjhc3In5vHkrpyrPBBumw4eUJMsmA1AgH8S9i8Cacfhic+zU1eE4v4scJJKg9+AXhxSG1G4gLlZMBFJliA+jeGIJlrg2+ULJrnMZcexJpiZgIDJjsajSbmyBtHi7TXVbXm7BmGG8zBHVCrIpAckRfwERjXetg9Ti2EdO9IADtE7kcmVicE11GASFF/8MYG3k84chrw7m12AJMCCSFYgYDVWGIN2osd8RFO+L88euzrdpWkfNiiDEPDPWzyN0yJMVoz56CMaMfdP9YwEgQzBvdqBo7PhWWuVAhkzUb2SJVUo99nB5UE8IDw3xNtrqq9Q5OD/iMjW5wo/vyARLf8hPZiUH8raJfo5CbJiUMuWhIhqVokfO7ZKAnEBDUEd6c5aztM+wgv/+fnnNJxNAkE+67ZxHMbqh7Vr21bhaZziv60f/5dgAo8FAge7rfm5C61NO/F0TXHMn+vWqshy+nhEL8MCrMyR9rz+j7Q8r3S9em33PMX/BZxl33twmXYed9bW1Mf5s/aEaUKOBDW1Vy8aylqfeD/Q7wh4RgzmaIeaZNEmcMb/WvB4032Chl1QsP84nfZRvbo0jf9zYVYHQZ0D+b1NOy7X5WQtCAgCgoAgIAgIAmGPQARW+fdbPxzO6RDmGS8tT/hrELQKogRHZAj7rr68NUID4ixrcqTkCZ1WFXbV20usCQITmnQcXURHr7AriwgwZy5fofTsY8UuOg/U+nHp8PKlJ2t29ZjTYNb0gKOXhKUWBb4CIpQ1JgRJ+CutO0GfUZY7rkx09Iuju2M85aFORE+ApOQIC95i4apeTJZPXb6kMIemRmjrc9XOi0qHVtMdHq9wjmo32YDJAkwpkidMQFrl311fYQKDiD1JmbQwR9pxd4ynvLC8pngm3eFrap2w4os/JqN24k37OG+EvMYa5mZmMyK7OpGG+/Uck1kg+JJ6uFdc1WFN9/TsQf8gmly0Hm+3Dw0RROAKiz7iWVf1075qwgzNBrM0LFHSiQAz53kapyirnz0xmbBIGj++S0fPul5gdZGfvynZT4/ds9efa6rrtls3GjxYmWls+P57NU4QpjcBEylmX1nW43BONT/7jCf8cSg0Gi3metV45nH3+PET9Yz0NFa9GacwH4U2C0gAa/Qxc9vmbW+uqbm8p21P/5GejrfLhylvsyFDqAET067Chdsd5ynNG0xRB8yF8FyBQ3ezeZan+q35X/PHgj/XrKFfunUj+DKDqdwTfv7Ap5n1fxfnPI+1Z8yycf8BpaWEsSsiCAgCgoAgIAgIAv4hECqNFjOpAsIFy5soIFfgONcbARnhiZBAPZjkupvoqpclD1/trP0JzYubtS69j5f2DEwGeSPos/465015b8qgTm8iL3lTF8rgK/Pr/LUPX0+xuBKQJb4QJpjAhzVeYXlNQSZZSRacuyuSBXnetI/z1o5pcYw3AtIuZRibinl69vhCsOhziO9H1C59rHUdhUklaBTBZGfpte1O2RXz5nNJtHgap6jIl2cPygMrd86z/bmmqNcbQd1Wp6R2x2FCDH8d0BAJK1Hj2Ydx5804BVnkjjCy67s319TuOFdpnv4jXR3nLn3L4cMqu0ahQu6K+ZznDaaoFJHbvP0/9aUT7p5VJy9d5IhUzvcm6obmq4ggIAgIAoKAICAI+I9AqIgW/5uVIwUBQUAQEARedwSgjTePNTREPCMAbbqPx42jUhwy/G3WqBB5vggcZufUw1kTpDObQcN/1JsiiNJljdT1ppy7nKcgIAgIAoKAIBCeCAjREp7oSt2CgCAgCAgCbyQCdYoXY789j7w+d2jTta1ahSrmyfvamSx6DcILLJiWzXnhk6oeO6x/1aVw1iwUM3o0NhVL+KqfivRfEBAEBAFBQBB4ZREIlY+WV/aspeOCgCAgCAgCgoAgIAgIAoKAICAICAKCgCAgCIQDAjqQQjhULVUKAoKAICAICAKCgCAgCAgCgoAgIAgIAoKAIPBmISBEy5t1veVsBQFBQBAQBAQBQUAQEAQEAUFAEBAEBAFBIBwREKIlHMGVqgUBQUAQEAQEAUFAEBAEBAFBQBAQBAQBQeDNQkCIljfresvZCgKCgCAgCAgCgoAgIAgIAoKAICAICAKCQDgiIERLOIIrVQsCgoAgIAgIAoKAICAICAKCgCAgCAgCgsCbhYAQLW/W9ZazFQQEAUHgtUHg8uXLdOPGjdfmfOREBAFBQBAQBAQBQUAQEAReDwSEaHk9rqOcxSuOwK1bt2jChAk0c+bMV/xMpPuCwPNB4MGDB1S9enVatGjR82lQWhEEBAFBQBAQBAQBQUAQEAS8RCBCEIuXZZ9LsadBT+nbDcNpwb6FdOLKaUqfJB2VTl+C/lf4A0oSM7Hqw9nbZ+mbtcPc9idn0reoXb53aceFnTRxx2RVtlz6slQnSy2Xx32y7FO69/i+y/wYkaPTkApfGvno68/bxtPELVPozLXzlCBWPKqRowp9UqoXxY0al1YErqR5B/8yyrvaKBNQmuplreMq+7mlf7byC7r54JbL9ipnrEjVM1Wj3/fPonUnNxjlIvBW8jjJKVvibFQ1Y2WKFimakYeNR08f03cbv6fFB5fSscsnKG/qnNQqf0unazF6y490+MoRdVz/cp9RvKjxjDr6rviMrt67RjGjxKBvK31jpHvamDZtGl24cIG6detmW/TRo0c0ZMgQNVkrWLCgbZnnlXjs2DHKmDEj1ahRg/7+++/n1azP7Zw+fVoRQs2bN1f9tVYwb948OnHiBH300UfWLJo8eTKVLl2aAgICnPLOnz9Po0ePdkqz2/nf//5HyZIlM7Iw0UZ7W7dupciRI1PJkiWpatWqFCECRiTRmjVraPny5VS5cmUqWrSocRw2pkyZQsePH1f9jB8/vlOeu52LFy/STz/95FQkevToVK5cOSpUqJBT+p49ezwSZwMHDnQ6xtM5mQvj3FatWkXQ6ihSpAg1aNCAYsWKZS5ibGNMrV27lp48eUIVKlSgMmXKEPoNQZtff/01pUmThtq0aWMcg42HDx8S+pgtWzbCNYfgvjp69KjaNv8A9969e1OUKFFUMvqHa+BKEidOTO+//77SSPn2229dFVPp7dq1o3Tp0jmVadmyperfb7/95pQuO4KAICAICAKCgCAgCAgCgsCLRuClIloePn1I+UYVof3nT4fAJVGMGLT4vfmUL1le2nh2ExUbVSNEGXNC4YBstOG91TRhx0RqN7OHyhpcqwf1Lt7TXMxpO9qnyZgUeOqUZt6JEjEiPfjygkq68+gOlf+lCm0+cdBcRG2jr2s/XEaTtk+mIUucJ2UhCnNC80I1aEr9iXZZzzXN0/m3KlKHfq07nqpPrU2L9q637RvOfXLzn6laxqoq/9aj21R2XEXafirkxKx3pfdocPlBqlzuUQVpz9kTant4vX7UpbBjor7n0h7KPbyc0dbTIZeMbU8bTZs2JUzC7t27Z0wqv//+e+rSpYs69PDhw5QlSxb65Zdf6N133/VUXajyMcn96quvqF69erZtaaKlYcOGNGvWrFC1FZ4HY/KMibpdP2HCgckwJvtnzpwJ0Y38+fNTrVq1qH///k55GzZsoGLFijml2e2sX7/eIEy2b9+uJv779+93KgqyY/78+ZQ8eXL68ssvqW/fvvT7779To0aNnMqBGFm5ciU95ftdEzNOBVzs7Ny5k/LmzWubC7Luu+++U4QPCkyaNIlat25tW1Ynmnlub84Jx4EgbN++vapf14N1zpw51bmnT5/eSAbp1aJFixCEB67TihUrCGVx3TTZtGXLFipQoIBx/J07dyh27Nj0zjvvKKIMGSBp/vvvP6OMeeP69esUL56DJMV9NmLECHO203aGDBkUYXPy5MkQJIpTQd4BYVOiRAkjGcRMjx49CMRfqlSpjHTZEAQEAUFAEBAEBAFBQBAQBF4GBF4q06E+y/oaJEvuVAHUo0I7AmECucKT5W7/hCRJ4keLRmkTJAyxZE6SMQS+saLEDJFmlwBCxa7ODEmSG8U7/vWBQbKkjBuPupRrRcUz5FT56GvVX2pTuvjpCHl6MQ7mDZ2Gdep4/k8UMFHctm0bWSec5rZ83cb5Z0icJMSSPmFAiKqAPxYtOPemk9vS9fvXVVKr2W0MkiUJT8DLZMmni9JXS8YqrR8jIXhj4qYpRtJPW8YZ275uZM+eXR1y8KCDDMPkv2vXrnTgwAGVDnIDkiNHDrUOzx+QBNAqgObF6yB//PEHQWPDLJj8uvKXgWsAIgHkg5lcwPGY2F+6dMlYPvvsM1UtTKnM6ZoAwOS/Zs2aasyDJINGBjRNQJZt3rxZkSrmNtwRKe7yzOdm3QZxs2/fPtq7dy8tW7aMOnToQCApmjRpQnfv3nUqDnMw4GJdbt++bZTz5ZygNQIcoamD9gMDA6lt27bqejRu3NioExhokqVnz54GliA/QMCAbAIJaRZNQprTsG3GCQTN48ePae7cuaoYtGGwj0WTLMgYMGAAnT17NsTSrFkzdVzHjh3VWv9AY8mKkd43kyx41oFkgdaUkCwaPVkLAoKAICAICAKCgCAgCLxMCLxUs75F+5ca2GzstMZhglKRX9j/G0TDl/1I0xtNMvL1Rt9q3albEYeGgk4L7bp8tsK08B3XJj/nbp+jaZsXqGagwbG98wbDrKnCxCq04uA2lVc1UxXqkL+d0Z0kA9IqwihVvPh0qvdhIz00G1DtHz58OKVMmZK++cZ7sxp3beZNk5k2dlzjroiRF9hnnzKTCrwRSLUnN1RaKTe5T4uPL6HSaUvR3J0rVdmARIlpZ+fNFCdKbJp36C+q96tDg6Tnwj60udM6oz5s7DoTSCdvnqK0cdPQrK3znPJ82dEECiZmefLkoaVLHeNryZIlyhRCmz9oQsZcN76yY6JqNVcwl8E2tAsw0YUZRIIECazZxv61a9fUdurUqY00TxsgguLGjavqdlUWE2WYwAQEBFDMmN4RiTg3mHekSJHCVbVepX/xxRcEwgVy5coVGjVqlMvjpk+frvIwwcdEvXz58kZZ9AX4adHmLwkTJnRK1/kwZcEE/ocffjC0g5IkSULjx49XmjRZs2ZV10WXD481TJj0uME4w/mA7AH5AFOmUqVKGc3iGmJxJ96eEwgZkEto+59//qFIkSKpanHuGAfQOMI4r1ixIo0bN05pgoCQABmiBfsgg0CexODnF54hWqA5gmsKjSVXEpGJWIg2EcK+7of5GLvzBjmHsYD+W0kdjF9POKF+bWYEjTURQUAQEAQEAUFAEBAEBAFB4GVEwPHG7GfPYJaBCUWuXLkIX1Ix4QyNPHj87IV/w+mNRlV9S/WhAz23UorYoZsYGhWGcmPSrmcaF++XbmuQLKh2RI1h9FvLMXSs+35FFISyKdvDMbnHAtF+FswTVWi5PG8JiBdAHYq2MZo9dPkw/bLtV2O/T4UeimRBAvzkQGMGsvXkYbr58KbaNv+M3fIzrT61hi7xxNJf0UQLNA8gIFggixcvVmsQGUmTJnX6Cj9mzBjlBwQEC8gLTKg1maAOCv45dOiQMqGJGjWqMj8CKYD2NJmjy8I0CRPawYMHqySY3WAfiyvHtzAdgr8WLCAQ4BsDvjXMAsKiUqVKilx56623lLkO7kH46zALfHigLWhBjB07VtWJcwMxh/5CC8NfmT17NsGUBgKSD9oHrmTGjBmUOXNmlQ1NldAI8MF1gxaHWXCecIwKjQ1cl+ctIHggp06d8rlpb89Ja8f06dMnBLnRq1cv1a4erzChgvTr10+tzT8YD7q8ToePGwjSzeSLzg/tGsRlp06dVDU//vijQdT4Ui+IJowfjGGr3x1f6pGygoAgIAgIAoKAICAICAKCQHgi4DfRAieUnTt3pjlz5hB8LOBrKiJAhEbKZyltHF7upwb08eIerAFylSJGiEjJYz0z2zEK8cbJ66doy7mtTsuJmyfMRXzevnb3ulN9qB++QrRsObVVb9LbOZsY29jImSQnNc7u7A/CqUAY7GACBbV7YH///n31VRraFHD8CkedmIAiio2/cvLKWRq1+Qen5fDVI26rC6IgWn50pVEmbfy0tP+Sw2QHiVUyVTbysFE+axlj/9CVZ9o90BCCTNvyO43dPF5tJ4sdR619/cmUKZM6RJsKaaJl9erViriARosmY1AQGhoffPCBmsTD1waICZj6wEwEx5gFJhnQHvjwww/VxB5loGUBTQBojGiBb4vu3bsb2g9wNop9LLlz59bFjDX6CMIEeXDiC1MMaABMnTrVKAPtEa2h06pVK0XYoB1M1q1f+WFWA4HzV4wZaA3gPNFvaPrApMkfgSkKBHVBkwNECxz5wtmtVWAyBH84H3/8sdL8gDNVf8cnCEYQZGhHk4zW9l7EPkgE4A/Rmi7e9sOXcwKOEDvnzXCIC4HfEgjIQPhtMZOwKsPFD4gwjAvgC19GYS2//vqr0rCB6RD8vPgj8HUEsToe9qcuOUYQEAQEAUFAEBAEBAFBQBAILwQi+1sxJp5QO8cXdwhU1eHsEz4VdJqvdQ+t/BUtO7iSI9M4HJ5+t2Ii/bBqMrUt0ZgGlutPiWIkDFHlyJWTCYtZauYqRfObzTEn+bS9KfAAFR7pcOaqDwQBcOkzxwT67I3zOpkC2A/LixCo64NogakCNFhwPaC9AIHfAmg2xInjH0Fx4fYt6jynv9NpDah+k6BZZJUiYxwmEheuX6HrwZP6uKxN0DhHQ/pp/TijuJUoSx03lZF34MozQiZfQE7aHriHTl67StODzbOaFKwX4hobB7vZgFYDJo8gFKDVAkLg7bffVg5yN27cqMhB/VUc/lvgpBUT2HXr1hlf28uWLUvQVIBTVY0vmtTEBzRWIDDHwJd2kFzQKNCRjrQ2ASa96AfaQHQXVwKtEHzt1/4rQNwUL16c/vrrLwKpAgG5gXLQKKlfv75KAzkDUgiTWRBAZtMcFNAkEEgOre0BsgK+TvwRYIIJM0ggOECF4P4HUWUVaLNAEBUH5Aj6hzT4NfFVQAJAAljbyFsBqTVo0CCn4qHVvoNfJGg/QXCvLVy4UBEUwD1fvnxObWmCy5wIbSVcU4gv56TLpk2b1lyd2gYphwVECzSgQMqA/PJFPv/8c+X0FhpYIAW9NUfz1AYw+uSTT1T/hg0bZlt84sSJBibmArgftbNe7YRXfLOYEZJtQUAQEAQEAUFAEBAEBIGXDYGI/nYIExd8qdYC7QCYI3j79VQfZ14jJPLuzlsJ0W20IArQT6t/o2xD89LeS3t1sts1TAjCU24/eGbOYg1lHJ7t6roxYYX/BTib1FobIFugzYDJH/wxmCOP6ON8WWsnt3odL7q9j4mDF84SFjPJsqD9LIoeKTqZcYrEWklmicGhmrVcvXtFbyrtpcYF6xr7cIacPE4yY9/XDRAC8AuBiTAmoZr4gPkQJtta+0CTKCBi4KQUPlWwgDTExFmbyOj2QbBokkWnaYed2veLTsdakxGefFCgP5pkwXFaS8GsJfPvv/8qrRs4M9X9xFprlFn7inpw7j///LNBsiANJE5otEIwKYesXLlSkUDQnrAKND0Q9QdELJ4NaBN9ASHkj2jTKF8IABCOILfMiz9tm4/B5B+kEhbgAK0+nCPIL6vAfwnO2bzA9EmLL+d086bDzE77R9F16HW0aNGUthC0niDW6wuzIBBcWN577z1jXOrjEyVKRHBGDCIP5GJYCdoF0QmSEBGhXIkZI2yjP5oYxDH6PvDF15GrtiRdEBAEBAFBQBAQBAQBQUAQCC8E/NZowQu8fonHl3qozY8ePVr5gwhNZ2NEjqFCCH9ZcQD1XzmIJq6frUIuI5pNw2nNaH8Xh08I3UbXcq2pZd539K5aJ4v1bBLjlOHlTtH0OejHus6OPWNHjWUcnSZhKiMU8albpyhd3Bej1YLJJky24B/k6tWrigzQk22js35sFEqX1WtnuC0K16T1xzfT0UsXVEt/tJ5MJVIXV9upE6Q0cLpw54KTj53zt55pBSWN7Xy9OhXqQD+udmhBvFesHV247ajbj1NRpkGI9gMHotAMgakQCEFoYmAyqYkW7cdFm/XYtQWyRH9Zh5kWxjscu0JbBZNILdZILkjXkWg8aRlpPx+6LmguYcKp64TvDG0+gutuJxgTVoFvGHfOeq3lvdkH0dSyZUulAQHSz05g6gF/MlWqVFHReVAGYX1BTCASkfV87eowp2ltIF/8oIAIAcFjFviWguNXfwXRhVAviCT4yoHvEPis0uPDXC/GSdWqzhpy5nxfzkk7Z4bWipVMhRYLxiHGuCa8rWG2oUUD7SaMfQjMueCHyCyI/oM+g5jzFJ7afJyrbYwBaHvB3A2mSa4EbZmd9tqV0/eRmaiyKydpgoAgIAgIAoKAICAICAKCwItEwG+iRXcaX2OhYYGvn++//75ODvU6ZeyUNLbmGOpevBsVGlGGHaY+VJoTl+89035AI6k4NHKepCF9XYSmA/FixHVbZ+bEmWghrVNNrDzxH7XK5Uz0hKZtb4+FjwuYoWBypc1a4DcHvjgw+X1e8kONEXTk6lEqOKKyarL7gt6043+b1bYjHLTDB8iGM5uoXtZnmkqHLx81upiGowuZBX5uRjccRLcf3qZmb71N320cYc72aVv7YAEZqJ2nQvNg8uTJqp5s2bKptXYujPDPmBDaiY6Gg8ls/vz51YQVIXYxQcSXd5Ag0Jixc0as69cRW+zqR5qn8M/aKS4m3Lj+dgLnuFaBqUp4CCbGCKtsZ8qC9rTZECbtWMwCrRaYG/kiWpNh9+7dvhwW5mWh6aRJOvirQQQd+KnxRBTYdcSXc9I4g6SyEi2aVEE6xhkILYx7jD2tAaMJRWgkau0ua5+gQTJ06FD1XNcmcNYy3u6jba2hhShRdtGJvK0L5aCxA9FEkdqRH0FAEBAEBAFBQBAQBAQBQeAlQ8DZnsPHzsFcAeYLMFlBeNLQys/bxlO1KbWcqsmcMBPlSeuYDCPjlk2EGqcDnsNO/pTPfDCMXD3aqUU4ze2zvC9r4Tx2Sg/rHURWAdkCPxn4uguyC1+xYRKza9eusG7ObX35k+ejMlkcmCA0M8I3Q8pnKIuVkglbJwZvET0JekLL9zsImCg8ISyayuHE0yjAG50KvEc9in3sCPFtzvBxWxMtOAyaBxDtvwSaInriqgkXEBLwhWK36MkqvvhDKwDhdWHGg8k1JttWrQnVmOVHO6e1JHu9C79IIFmg4QJCza6fdo5Sw8ucDmYgrhybghSCvxqYFMG3iF5AEgB7kIKaOPIWABAIOD9ES0IY5ZdBYIKjw6tD08lX8eWctLNh+PGxiia19FguXLiwIiS0k15reXf78P2DKETQPAqNwKkuTPcwVnVUo9DUB/IIYtYgC019cqwgIAgIAoKAICAICAKCgCAQHgj4TbTgS2Xt2rWVs0X9ZfTLL7+kc+fO+dXPe4/vUe/5X9C/+zZQren1KPBGoJqQ/3NkIa0+4iAOMClPHy+9U/3bzuyg3/fPCrFsOLvRqRx29lzYRwuPLgqxnL51xqnsmevnQtSHNjSB0CJnM0oZN546Zvupo/Thwi50/8l92nZ+O1X6uTZ9tWQsZf72LXr49KFTvWG5Ay0KTLq0SQIma4gChX2E237eMqza10aTXef35BhEQVQ/Wz3SEYMW7F5D/VcNVH52ak6tS3cfO4io2nnKUaQIkYxjw3pDTzpBRukoPzCjgehJG7Y1WQAnoNqfCtIhO3bsUKYhjj2iI0eOqE2rj5bhw4frIiHW0HiBmMMp+zuJBVGEiabVqShIHHP9ITrxnBOWLVum+glHvdCy0Atwgy8ckFU61LYvXdO+YRAq2Hyt4JcEJkFWXHyp25+yMKHUoZLxDPRHvD0nXHtoXCHymA7jjPZgLjZy5EhFYEHDCIIQzhA8n7VvE5XAP94Qfoi8FRpBm8ADpNq3334bmqqMY7Xzauv5GAVkQxAQBAQBQUAQEAQEAUFAEHgJEPDbdAjOWOHjABNThIgFwQJ1c6jQ+yMnbpykp+zvAIJJ+YLdhUJU82HZViHSEJlGR6cxZ5bPWoCWtl5kTqJxa2epxSmRd4bV7Utdi3Q2kvecPUFvTw5pBoVoOtf711IOW7+v9zU1ntRRHTP6v2mExSzti7WmqBGjmpPCdBvmBtaoLXoiG6YNeVmZ1mpZdWg7BV65TOO3T6D2+drS8LqDqfnUD1Ut/ReNJCxaYnKUnFE1wj6MrK4fa/hEgbaB1gRAGrBDNCJt+oE0kC7QSoH5R968eQkmRDAPwdiGyQM0hxCxB4LJLhxBgyxAtCFomYwfP15pt6gCNj/FihVT0XaaN29OtWoJWVYfAABAAElEQVTVUuQN7p+9e/c6hZi2OTREEu45RJzq0aMHwYSmWrVqitCAHww4woW5iCaYQhz8HBPgBweC0NdWgRkXwmejz+i/L4JISVjgewdaGwhtDc0YaMhAa0Y7JfalztCWhVYLNJtGjRqlQndrTSnUC+0TaD9ZBT6WtOmUL+cEQg9kIXAFdilSpFBYgHyDOZn2zwJCBuMTBAzCISMkOcY+HPlqkkZraVn7hn1oDmG86nGvy0BLBQ6j4ZsIsnLlSsNcDpGKdNQ5+DvSfpDsNB5RB5zjakE0KvTXTkBkIdIQ/CxBtPNqu7KSJggIAoKAICAICAKCgCAgCLxoBPwmWvBSDDFPYGHSoP1Y+Hpi2RJlpcO9dlLDGU0MDRZzHZ3LtqSvKw5RSZEj+t1tc5XGto6IA40ZRDnyRhpma0CLO8RnsqWVEXEHx6GOjyu0p09LfRKiGmidvG5i1kaBVkvBQw5fLX0XDFRES1P2sfKo2WNq/9vHTthC0+WfdnNIh32OHNGh1RIpeG3GKQKFLooUSAdtNqTrxUQVBIxZhgwZoiai8F9hJgyhuQVTLS1w/AoHr5isan84GPtwIIooNHbXGfVBwwNaLCBuIPB/ocPU2h2j24NfCrNvC5jrwGwGPpHga0b7m4HWDhyyPg+SxZUvGZ0OJ7EIPQ6zIbv+YOIPogsYwpGs+bmh63BHAsAfETQ1gDmi5EBw/iAh9LXTx+u1xhNrcyQbc7qnbX0d9FqXxzUCGQCtMhDOIFy0QPvETqDpoYkW5HtzTigHog8OZnH9EU0LgrowRq1EBdJAwKJPZo0rOCfGeEeejmSkKrL8gNSzI1ow/rUsWLCAsEDgs0gTLVrzC8QfFjsBWaydAUMby5VGFog53Ctw6Ixj4O8HRI9Vq8yuDUkTBAQBQUAQEAQEAUFAEBAEnjcCEXhC5FAj8bFlfEHG5FD7fkA1j9kcxG5S42PVdOvRbVp3ah0du3acQMDkS56X4keP72s1z6U8TGR2X9xDm85spoD46ahcQNlwNYV5LicVDo3AZw2u6R4O0Z0tcTYqzziFlkDxtpuYSELrxDw24eMEY1dHzrLWBQ2tS5cuKZLA1aQcjqBhsgHtBWvkFmt9ev/8+fNqYgtfMNbJui7jyxomIIhCBNMkaDZYRd+XaMsdmWM97lXZx/nhGiAaDSbdrq6V9XzgsBjPMIwJXBMzYWwtq/ehfRMWfkZ0fa7WvpwTxiB8ZWE8ebq+GNMwtUJIePO94KofrtKBm53DZ5QHSab/E1wdH9p0ECyIVgUNNH+cD4e2fTleEBAEBAFBQBAQBAQBQUAQ8ISA30SLp4olXxAQBASBVwEBOLDVEanc9ReaTIg2JfLiEYATaGgAQbMG2jwigoAgIAgIAoKAICAICAKCwMuEgBAtL9PVkL4IAoKAICAIeEQAEdfgSwkmgNaw4R4PlgKCgCAgCAgCgoAgIAgIAoJAOCPw+jkNCWfApHpBQBAQBASBF4sAnFwvXbpURa2CU2QRQUAQEAQEAUFAEBAEBAFB4GVCQDRaXqarIX0RBAQBQUAQ8BoBhHmGbxpEUxIRBAQBQUAQEAQEAUFAEBAEXhYEhGh5Wa6E9EMQEAQEAUFAEBAEBAFBQBAQBAQBQUAQEAReeQTEdOiVv4RyAoKAICAICAKCgCAgCAgCgoAgIAgIAoKAIPCyICBEy8tyJaQfgoAgIAgIAoKAICAICAKCgCAgCAgCgoAg8MojEPmVPwM5AUFAEBAEBIHXHoEWLVrQuXPnbM9z2bJltumSKAgIAoKAICAICAKCgCAgCLwIBIRoeRGoS5uCgCAgCAgCPiGQJk0awiIiCAgCgoAgIAgIAoKAICAIvOwIiDPcl/0KSf8EAUFAEBAEBAFBQBAQBAQBQUAQEAQEAUHglUFAfLS8MpdKOioICAKCgCAgCAgCgoAgIAgIAoKAICAICAIvOwJCtLzsV0j6Jwi8AAROnjxJT58+fQEtS5OCgCAgCAgCgoAgIAgIAoKAICAIvNoIiI8WP67fzZs36fvvv3c6Mnr06JQhQwYqWbIkJU+e3ClP7zx8+JC+++476tWrl05yWn/zzTd0//59Iy1y5Mj01ltvUc2aNSlSpEhGev/+/enx48fGvt1G9erVqVixYipr8ODBtuVTp05N7777riozefJkOnz4sF1VRlr27NmpWbNman/atGl09OhRI09vRIgQgXr37k1RokTRSWq9Z88eWrx4MR04cIDy5MlDtWrVorRp0xplDh48SDNnzlT4lS9f3kjHBvKmTp1K1apVo+LFizvluds5cOUg/bTlZ6ci0SNHo3Tx01G9bHUoeSzHddp4dhPN2D1TlSuetig1zt7I6ZgfNo+mI1ePUQRO7V/uc4obNa5T/uu2M2nSJGrdujU1aNCA/vjjj5fy9B49fUzfbfyeFh9cSscun6C8qXNSq/wtqU6WWkZ/f98/i9ad3GDs4/olj5OcsiXORlUzVqZokaIZef1WfE63Ht5W+ygXK2osyp08F9XKXJNiRI5hlDt7+yx9s3aYsW+3kTPpW9Qu37vkS/t29dil/X14AS09ttzI0n3NliQbNcrewDinqXum05YzW1W5lnlaUP7k+YxjngQ9oV5LP6HHT59Q0thJqE+J3kaebAgCgoAgIAgIAoKAICAICAKCQOgREB8tfmCIr/3p0qWzPTJevHg0cuRIatmyZYj8efPmUatWrejMmTMUK1asEPnx48enGzduhEhHW3369KEOHTqoPJAZnuSrr74yCB1X5UF47NixQ1VVtWpV+vfff91WW6VKFVq0aJEqU6ZMGfrvv/9sy1+/fp2Ag5axY8dSx44d9a5aI//333+nypUrq/0///yT6tevTylTpqRDhw454fP3338rYuaXX34xiCGnylzszDk4lxpObG+bGyViROpVqRMNKPsFnbp1mtINdkxEYzK5dbbfQYNMOXHzBKUfUlDVkSx2HDr76VEmXDzjb9uol4njxo2j3377jYYPH65IKS8Pc1ts7dq1hDFRr149jxhOmDCB2rZtSxUrVqQlS5a4rfdFZN56dJvKjqtI20+FJPp6V3qPBpcfpLpVfWptWrR3vW0XE8WIQZOb/0zVMlZV+dE+TUaPbDR4MB5+ajKMWuR0EIwg5YqNqmFbp04sHJCNNry3mnxpXx/rad3h7040fq09+RU/WjQ+p7FUM3MNAtHSclpnVV3e1Blo2wcbjap/2fErtZ/ZU+3Xz1ue/mjiIBmNAl5uvOhx6mU3pZggIAgIAoKAICAICAKCgCDw3BEQ06FQQI6J6L59+9SyZs0a6tevnyJKQKaAjLHKjBkzVD40N1wJtGJ0nevWraMhQ4bQiRMn6L333qNt27apwy5dukR6gZYIBBNjnYb1Rx99pNLxA+0XLN26dVNpmzZtUvtbtzq+eCMRpIf5eKRBg8WchjJaVqxYoeqYO3euSvr666+NdswkC0gSkCw4L4RgPX/+PI0YMULhAOLm8uXLukq1Pnv2rCIEnBKDd1wRRnZlrWkgSXKkSENJggkuTKoH/TuaoCGQJk5qalmktjrkLuP0xcoBxuEDVnxpbPep3C3cSRY0BkJu+fLllDBhQqPt0G6sX7+ecC2gJeVJoOUEAg7lX0ZpNbuNQbLgepbJ8kxb46slY2lF4MoQ3QYJgUXLlXv3qOnktnT9/nWdpNYgVjImSWakYTyAsFh/5plmjM5EfWkTJAyxZE6SURcx1t62bxzgxUaWpCkoe/LUhD5Drj94QA0mvksX715UxFBAosQqfcfpY7QkcKnaxs+QZUON7UEVn411I9HLjRc9Tr3sphQTBAQBQUAQEAQEAUFAEBAEnjsCQrSEAvIECRIoMgKERIkSJWjAgAHUs6fjS7F1knr37l1lGoPmfv31V5etxowZ06gTpj8ww4G5EUTXmThxYtIL+gCJGzeukYa8GPzFXgvMjvSCtIiszWHeR5r1eKTBHEq3gzXKaNF1aBMhvW82cUJZEEUQEAcwCUqWLJkigYAVRJ+b2gn+GTRoEJ06dcqcFOrtz6r2oj0fbaMLfQNpaJ0+Rn1z9juIoiEVHVoQyBi9aoqagN98eJOmbpqnymKi3LGAs1aOUYmXGxcuXKD9+/fTo0eP3B5x7do1lQ/tHk9y584dpQF0j4kDd6LrhLmYNwJtp2gmYsLVMTCHgwmZt/5cYJ5mJddc1W2Xfv7OeZq7c6XKApFwpNceWtFmMf3ZZoJRvOfCZ9dXJwb22UdXvzhNx3pvppwpHdpoN7nvi487a+yUzlqIDnfbQ48Gn6d3i9fXh1PPhZ8Y23qjb7XuFNjzYIhlSv2Juoix9rZ94wAvNv5t+xft7bydbgw4TdVyFldHgEBceWKV2v6qxjMS5eO/HOZBi48tYVOrSyq/fNYClC1RVi9asi+ix5Q34/QBk0AY+yBu3Ymu05txGhQUpAhtaAi6E9wj5ufJlStX3I5B1AutOk/3lLs2JU8QEAQEAUFAEBAEBAFB4M1GwG+iBb5E+vbtS6VKlaKMGTMqUxn4LnnTJXfu3AoCaKGYRWt+ZM6cmaD9YuffxFzevA0iB+JpQmE+5mXYhj8WaOVA28ZqavXhhx+qLsJkyCzaP4smrMx5YbVdMUMFo6rb9x1+OVLETkFtitZT6Zis9lvxBX27brhhTtKlfEeKEtGzNohRsWljzpw56h6B754cOXJQ1KhRqVKlSkpTSRc7fvw4QWMHCzCDQPtEp507d04XVWuYcKGu2LFjU9asWQkEHeo8duyYU7ksWbKoOuCnB1KhQgWjTqtmFbSmdHtYf/HFF+oYux+QRjBDAhmTKVMmpX2D40EoaoFfHtTTqVMnmjJlCgUEBBD6kyRJEmUGhwmtr/LLtmckZZ8KPShOlNiqCvhmyZA4idreevIwgSSzk4B4AdShaBsj69Dlw8a2eSNShEg0vtZYpTGC9LVH99Cx687Ymst7u+1t+97Wh3Loa6n0JYxDbj1wjGn4GtLaOXvOnqCFRxfRF0ufEYpDqjzbNg72sOHrOIUZYYsWLRRpi/GaNGlSSpUqFY0aNcqpJV/GKf5n2rVrRyCZ8VwBKQOzS2jKaYG2DcYe7gncI/AH1blzZ8JzB6QxxuC3336rikPLDmUbNmxI0MzDfarvKWgnyv+aRlXWgoAgIAgIAoKAICAICALeIuDfzJFrx0srJnXQVMBXajhtxYTrs88+87bt17IczIMguXLlcjo/pOPL7/jx4wn+TeAH48svn5mlOBW27OgJMV7+XyU5cuSI6m7BggVDdBsTI2hNBAYGOuXBtw2+OMNHCcZY0aJFnfL93VkTuI6JkigUeD2Qxq2dbFTTOHdDY3tIpUFKgwVEy89rZnB5Bw8J04yPi3U1yvmyAVINTmVhOgUfM/DNA1840GoqXLgwnT59WjkOhrZQ9+7dVdXwfQFfPXof2kLASwu++sMxMCaZMFeLEyeO8p2zdOlS5edm8+bNhjPid955R00UFyxYoDQK2rRpQ4kSJVJVaVJQ14tJKcyVcE2AvyvNG0xMce0uXryonCPj3gdh9vPPPxPIFZwzJq5aywVj/6efflI41K1blyZOnEg4R5A+TZo00c17td5/6aBRrkomh38fnVA+axnW1nD4Lzl0xZ5ACaIgWn50pT6E0sZPa2zbbbQt2oq6z3Xcp9vP76DUcZ9pBJ28foq2nHtmfofjk8RKTOniOjRm7OrztX27OnTazL2zKE7UOLTr/G6asG6WSsaYrZm5ui5C39T4ks2J2qn9ltM6EEymIAXSZqZCKULelyrTzY8v4xTV4PrCvBH+pWrXrk179+5Vz0CYNmJcf/DBB6o1X8Ypnpu4lxo1aqQ0CUHozp8/n7p06aJIHBAmT548UfXiXkB5jEH4zoJZI56nn3zyidKmwz2mCb/Zs2cT7iFNAoMchJNw3A+rVjm0hFSl8iMICAKCgCAgCAgCgoAgIAh4QMBvogVf+d5//301ocMXQog3/h889OeVyoZ6+ZgxY1Sfb926RatXryZMaDEBxuRaC77qwuwHL/ClS5dWk25E7Rk4cKCabOhyWGPyquu8ffs2YaKAyC/4EqwjBJnLv8zbWmsnTZo0tt3El+idO3cqUkEXwAQdTmAxCe/atSvBt0hYyIwt/xAWs9TJU5YaZnt2nZLGZIyLN6Kxa2YqTRYQLpD2JZtRrCixzId6va2dByPSlL5+mHyCbANhok2vQH4MHTpU1QsSAsSM3rc2hi/5cEQMskObc/Xo0UNplWFyCLIjX7586jAQMRCMVZhuIGKVq+uBCSoWTDZBtLgSXBeMU0xc9aQU7cOhMohXkEj6XFEHSCM4RNbOnDHhxvWFlpevRMuxy8eNbumoUTohddxUepMQccosRcaUUrsXrl9RvkywE5c1ixrneEa0mcvr7beS5NCbHHnqqBPRMnLlZMJilpq5StH8ZnPMSWrb3/ZDVGRK6D3/a9OeY3NMo68oWaxkRnq9rHUoa7LP6OCFswbJgswvq/Q3yviy4cs4BVEHkgUEM64/pEaNGsrfFAhVkCtafBmnIPMRVQ33kBaMP2hWImIWxrAWONiGI3GYLuG+AMHSuHFjNcZxn1nN2BYuXGhEawNxAzIU9xqe34j+JiIICAKCgCAgCAgCgoAgIAh4g4DfpkP4QgjTAdi+t2/fnnLm5PCqrGb9JglIAnyRxQJfKiBZQKTgpdzsIwVfSiF6UokJBkyLMKG1Ciawuk5MzkGywNwIWhBmrQbrcS/jvla5h6mMncDcBQKSyiwwH8KkZsOGDW4n/OZjPG3jS7/ZGSrK/7P7P9p6fpvToQPL9zc0WZCB4z4tHdLnh9NBbna01ggmksOGDSNtAoR7BRM5q+DrOogJaKm4E5jsaZJFl4OfIIgmuHQ61iD7INZjVKIPP/DJAhIGZKLWRsDhIIwQ1QiC+8AsMH3TJAvS0XcItHl8ldsP7hiHRIrg/PiKEeWZX6Krd68Y5bABogELHMZCQLIsaD+LokeKrvZd/cSP/kyT6IqlTrtjQBTaib/t29Wl03AOWMwycPFXIcymvq05xFyE4ES3coZKTmm+7ngzTjEmcO3h4Br3M0g4aJpAqwSmPXZj0ZtxCq0wM8mCvoOYBBkN7ROz6HIwH4JoDTn9fNZaV8hDHfCLpQWkkr5HEbVLRBAQBAQBQUAQEAQEAUFAEPAWAeeZirdHBZfDlz7YvkNtG3b3iGzzJok56hAmt5iEQsUcpJNZpk+frnbhvwKRd7TzSDunuHjZ11GH8PUXMnr0aMqbN6/afpV+MDYgZkeU5v7DzwdE42HO0/4TQGCFhVPK7+sPUM5QHw++QCPqf66agsZKk2ktzM1S4hiJqG2JxkZa4wLVVJqR4OMGzBsQdQkEGswUcK4gRKB5Yif6XD0RLbt27VKaAYUKFVIEHCb4OoQ2nH9aRftO8VSv9TjrPkw/INCYgemHWfLnz692oTljFuv9oLV47PppPs5uO3WCZw6CL9xxjB9d7vyt83qTksZOamxjo0Xhmoa/Euz/0XoylUjtcCCLfVdy+uYzMihd/HROxbqWa03buy5zWsbWHu1URu/4274+3m698+N1dL3/GV6OUuMCVVSRk9euUteF3Z2K18hUnbVanuHWt5LDMa5TIR93vB2nU6dOVWMe5Bu0mDD+4cvH1TPBm3EK/2AwU4MGVUBAgDJTw/jHPaaP16ejCRVNgLkifVEepq9WKVCggErSZpDWfNkXBAQBQUAQEAQEAUFAEBAE7BBwninZlXCThi/TmjzYvXu3cjzopvhrl2WOOgSCRE8gzScKMgFfciGVK1cmkDOYaECgGQDtBbOYow4h+g7k008/NRd5ZbYxCYIcPOhsxqES+QcaDcDNOmFHPvzR/O9//1OaPzAlCiuJyFoQHxb6n/JRgToRgQXhcM2SK9kzouyt5M9MR8xlvN3GBO/HH39U5Bm0WvCFH85uYTqhzW7MdYGsg7gzwwOZB7MhTDYxOQRO33zzDcH/iivR/lbssHZ1jF06TDAgZk0AXU5HnLISrjpdl8PaHALcnO5pO33CAKPIhjObjG1sHL581NhPEzeNsY2NH2qMoJnNnpFb3Rd4Rzb8F7jGqCdzQueJeKp4qShP0txOi9WcSR/sb/v6eHfruFHj0vQGkw1NrH/3OZ435mOyJHvW99xJc5mz/Nr2ZpyiYpBv8OUFDUiY9IAMwbgFCXvy5MkQbXsapxh3tWrVUs9Q+AqCaRCekxj/0GjRvllCVOxFgt041ZG33N2PXlQtRQQBQUAQEAQEAUFAEBAE3jAEQkW0YBKJL4Yw9YApBJzi2r08v2GYOp2udmQLJ7iYcOgFfgMgmIC4EmixwHko/LTo0M6uyr6M6dB6wIQazk/1BF33E2ZBwAJmUa7k888/V8ejbFjL3YcOp6CoN1KEyGFdvVGfPm8QLAhpDW0laDVBfvjhBzXxNArzhiZCXGl7wGQDPiYwqcS9hvGDiSZ8VMCfhCfR/fFUzlW+dvIMsznrpFabbcA5bnhJ+QxljaonbJ1obD8JekLL969X+zD3KpqqiJGnN/Inz0dlsjh81+w6E0jzDv2ls2zXIOB+Weu4P1WdqUPWaXugi0Rf23dRjW3yvcf3jAhZkTmce3iLp3Gq28d4A1nx9ttv06xZsxSxDC0viDsC1dU4hVNlmFwiKtmOHTtUHSCiMf5DK3ZaNnC0C0HEJBFBQBAQBAQBQUAQEAQEAUHAWwRCRbSYG9FfuHVEE3Pem7yNiTDIhubNm1P69OmNBVoIEEQfcic6xC5CaevoGO7Kv0x58MEAzQ18xcZESPcfZgdwSgmBY1VXAifLOO+wkK1nt6mJ9a+7JlHt6fVp//nTqtpkseNQohgJw6IJ2zrgvwjhnc0CYlL7irASKtpvBZzXavMMfOXfunWrqgIOkoEnCE6zyRXqwSTUlej7csuWLUYRfwgs+MeAVhZ8DGmnzbpCrXmF/PCS+tnqEa4ZZMHuNdR/1UDae2kv1Zxal+4Gmy7WzlNOhTy268Owas8cyHad35NjEAU5Fbt+9wZtPreFRm4aRdm+yW/U2blcG/aHEtep7LYzO+j3/bNCLBvObnQqZ97x1L65rKftf48soTkH59IPm0dT4TEljeKFAxwmXEZCOGx4GqdoEpps0OIzj3Ech3DvkKtXr6q1+cfTONX+h6xmPjBRwn0RGoGzXCxaYKKk/Q7hnhURBAQBQUAQEAQEAUFAEBAEvEXA70/5UNWGeUedOnXUizQmk4i0g4mYiAMBTEYxmcUX3OjRnZ1upkiRgqpUqaKc3MKnBTQe7AQmIlCPB774IgxtBl8EoZJhugLREXwQmQNaFfjSjBDK/sj3339PmPSDEICsXLnSMCeBCUuSJElUOhz6wj/DqFGjVPswJUB0JpwzJi/AwJ0gDCz6D+2X0MiEdXM4BK4z4YH6Jjf/OTTVuj0W2MMXCxb424HzaGiB/f7772pclCxZUhFv1kqQjhDJcORZpEgR+ueffxTWcCoKHysIlw3CpGnTporIgnkaHO1afaOY64WTT5iwgfCD6QW0AdAGfK7or/UwZYMvCu2HBfnQlgGhY44iBE2cbNmyEa6NjnAEjStcZ4xjs+Nbcx/CYjsCcVSquoOp+dQPVXX9F40kLFoQintUje/1boi11ipZdWg7BV65TOO3T6D2+RwTfxTecHwfFRlZzem48lkL0Odl+jmlYWf65gVqsWag/NLWi6zJat9T+7YHuUjsOMtBVpqz4fDZ3fmby4Z22904hRkOfFDBjxfMA2EuiTED8kUTguaoQ7ovnsZpuXLllBYLCGg8f1Anxh38WIWF4JzgtBwRjKCFCC1NaBVqR9Nh0YbUIQgIAoKAICAICAKCgCDwBiDAWgZ+Catu41NwEE8gg3giFsSmQ0EcMcKvul61g9i3iDp3Vod323We/KpyTJDYluMJt8pnMyKVz+YgQUyshCjLZhqqHDsVDZG3bds2lccaIyHykMAEhcrHtbIurGljewwSkccTepf5HHUmRH26/u3btzsdx74UgvjLtlN5JmOCWGPDKMehflU+k0BGmt4AfqibtX90klfruQfnB0XondhpidonaVDqIZmC6s1oGLT/8gHbesZs+ck4Zsjar23LeJsI/DniitO541x4khnEX+Btq9m0aZO6pzSeGBc8kQxirTFVns0Zgtgsy6nO4sWLB7HjYJXGploh6r106VIQa9E4HdOtWzene7Zs2bJO+bp9u3HAPpnUWNVlsMazwHxOKIN0u/vE0/gKcQKWhEm7pgThWpqvb/JB6YO2nX829qpNqWXk335426hh67ltRnrSgelUurWuVIMzBpWdUClowk5nLLec22oca27bvF3h1yqqTl/aNzrnYaPj3x+EaD9W3+RB6YdmC+q8qFvQ5btXbGtgLS7juJ0XdtmW8TXR0zjFeGWSNMj6rGDiJYhNKm2b82acDhw40GmcYiyxWV4Q6sUC0c8Tjvim9r/77jt1DJthqv2PP/5Y7aM9JjDVNsY/a+A51d2sWbMgJnTUMfIjCAgCgoAgIAgIAoKAICAIeItABBTkyZBfAtVqfGVPnTo1uYvm4FflclCYIaAdTNpVaOfA166cNQ3+ObS5mDUPjiOhuWEVmMIEBgYqLQ6rho+17Ou2D6yOHz+uIlPha7mn+wW3Jcrj+qRJ4+zYVWMDHy0wl4BmmbfRhOBAFGG30Qc755+6bm/X0KaBOQf8svCE19vDwqTco6ePad2pdbSHTYeyJc5G5QPKsr5LyHEXJo1JJbYIeDNOcSDGHMYJotPBv5An8TRO4YQd/lMQ8h4mmXbPG09t6HyEXIfWFsyc/v33XxVuHppa0M5C/SKCgCAgCAgCgoAgIAgIAoKArwiEimjxtTEpLwgIAoKAICAIvEwIWImWl6lv0hdBQBAQBAQBQUAQEAQEgVcTgTBzhvtqnr70WhAQBAQBQUAQEAQEAUFAEBAEBAFBQBAQBASBsEPAb2e4YdcFqUkQEAQEAUFAEHgxCMSOHZvYXxHlzp37xXRAWhUEBAFBQBAQBAQBQUAQeO0QENOh1+6SygkJAoKAICAICAKCgCAgCAgCgoAgIAgIAoLAi0JATIdeFPLSriAgCAgCgoAgIAgIAoKAICAICAKCgCAgCLx2CAjR8tpdUjkhQUAQEAQEAUFAEBAEBAFBQBAQBAQBQUAQeFEICNHyopCXdgUBQUAQEAQEAUFAEBAEBAFBQBAQBAQBQeC1Q0CIltfuksoJCQKCgCAgCAgCgoAgIAgIAoKAICAICAKCwItCQIiWF4W8tCsICAKCgCAgCAgCgoAgIAgIAoKAICAICAKvHQJCtLx2l1ROSBAQBAQBQUAQEAQEAUFAEBAEBAFBQBAQBF4UAkK0vCjkpV1BQBAQBAQBQUAQEAQEAUFAEBAEBAFBQBB47RAQouW1u6Sv3wkdPnyYTp48+fqd2BtwRlu2bKGHDx++AWcqpygICAKCgCAgCAgCgoAgIAgIAoKAA4EIQSwChm8I3Lx5k77//nung6JHj04ZMmSgkiVLUvLkyZ3y9A4mnN999x316tVLJxnr9evX0z///GPs223EiBGD+vTpQ/3796fHjx/bFTHSqlevTsWKFaO///6bNm7caKRbN9KnT0/vvvsuXbx4kX766SenbJxTuXLlqFChQk7pixcvpg0bNtA777xDON4sixYtorVr19IHH3zgEgdzeXfbjx49oq+//pr69etHb7/9Ns2YMSNEcXeYhigcRglTp06lY8eOqdoiRIhAceLEURgVLVqUIkWKFEat2Fdz7949Gjp0qFNmzJgxKXPmzFS5cmXCGAlvmTBhAp0+fdplMwULFiSMP0iOHDnUGscAHxFBQBAQBAQBQUAQEAQEAUFAEBAEXnsEQLSI+IbAiRMnQE7ZLvHixQuaNGmSbYVz584NQv7t27dD5H/11Ve29VnbwYHWNLt91Adp1aqV2/IVK1ZU5Xbs2OGyHE+cg1avXq3K4eejjz5SZWvWrGmk6Y1u3bqpPCYidJJf66dPnwbVrl1b1YX2t27daluPO0xtDwiDRGBmhzkTUkHnz58PgxZcV8EEh23b6E/SpEmDmFhzfXAY5eTJk8dlH9CPNm3aGC198sknRtlp06YZ6bIhCAgCgoAgIAgIAoKAICAICAKCwOuKgJgO8czQX+EJN+3bt08ta9asUZoXN27cICY3bE1doJGB/JkzZ4ZokskLunTpkrGgbgg0J8zpSDPvQ7sE0rZtW6d01GeWCxcuqLbRvnmBxotZGjVqpM5n7969tGzZMurQoQPB/KNJkyZ09+5dc1GlLbN8+XKnNL0TMWLohhY0d+bPn0/oD7DNnz+/rtpp7Q5Tp4K8Ay2Mbdu20fXr161ZPu8zYaa0iq5du6ZwatCgAW3evJmKFClCDx48sK0PmDJhZZvnayKTGap9aPQw8UdMrCmtpObNm9OdO3dsqztw4IA6fyaxbPO9TVy6dCmdPXvWaTl16pTS6EIdnTp1MqoaPHgwLVmyRO2jb//995+RJxuCgCAgCAgCgoAgIAgIAoKAICAIvI4IhG42/Doi4sM5JUiQgLJnz66WEiVK0IABA6hnz56qBiuBAZJCEyy//vpriFZg8pE4cWJjiRIliipjTsM2xJyGPkDixo3rlG41IQExgDLWJVq0aOp4/ZMsWTJ1PjD5KF++PI0dO5bq1q2rJtWsVaKLGWvWYKHQTtyNyoI3du3apYgDYMvaQWTtoy7vCVNdTq8XLlxIw4cPp8DAQJ0UqjXMhOLHj69wmjVrFoFIAOkxceJE23r/+usvGjdunG2eP4loH+Mkbdq0yhwNBB9INBBjdgLTMJz/kydP7LK9TsP4S5EihdOyYMECRQqCmLOamoE0BD4QEGcwfxIRBAQBQUAQEAQEAUFAEBAEBAFB4HVFIEyIlnPnzilfDGE1gX2Vwc6dO7fqPibcZmETF7ULXxrQ0Dh69Kg5+6Xezpo1q+oftBbMAiJm586dNH78eHNyqLe1/xuQPFbCyFy5N5iaJ/WalEqSJIlRTViRRPDVAl8ykB9//NGo/3luRI4cWTVn9hFkPn+QbCCtNInHanph0j1oWMHvEJsuETRY7KRhw4ZKOwq+gOyIRrtjJE0QEAQEAUFAEBAEBAFBQBAQBASBVxGBUBMt+DrOvjRo//79hMnmmy7aYWuuXLmcoEB6ypQpDVICzkFfBcFkXGsjQMPELF9++aXaBcFw69Ytc5bf2zB7wUQchFSpUqXc1uMJUzjTff/992nQoEF08OBBpX2CCqGFAhMWaOO40j5x27CLTBBSOXPmDDONGRfNOCXjHEGADRs2jH755ReFmybGEK2pffv2yskxyBCcNxz3gnyZPXs2tWvXzqX2i1MjHnY+/vhjpUkDnBMlSuSydPfu3VWeJtJcFpQMQUAQEAQEAUFAEBAEBAFBQBAQBF5hBByfwENxAgMHDgzF0a/2oYcOHaIxY8aokwDRAP8bMKFIly4dwWeHFvgEgSnRhx9+SKVLl1a+LNgxKAG70Poy0W14WufLly9EkWbNmlHfvn2d0uHDRJ/T5cuXCeY28BMD7RVrHalSpVJaHDgPkC7wExJaAaaQevXqua3KG0zhPwV9hG8SM9ZdunRRZAM0O8KaHMS137NnD6FtkDtmE7IzZ84oMysz5hgPiBbkq4CMsmqGQKPE3B7GZMKECZUGFbSoMNagwfPee++pNczJXPlz8bY/q1atoilTpihzIRA37gTkGcYR/PoAH61h5O4YyRMEBAFBQBAQBAQBQUAQEAQEAUHgVUMgVEQLfEGAWPj888+pVq1ar9q5h7q/MJtBGGOzYOI8evRoJ5MXaA9A4FAWgrDICNEMp6L+TLJVJT7+xI4dO0ToYbuJ7rp16wiLWcw+Nszp2IbJCDQpEIbZ7ATVWs7b/ePHj6uiICzciTeYgniAlgU0OBDiWps4gWCAFgY0P/7P3lWAR3F10YsHd4IUCAQIbsWKuwUKLZRSSilQihdKcflxd7dSCFCkuENwt+DuGiS4O+Sf85Y3mZnMbrKbbIx7+YaZeT5n32z2nXcltIkWEBsQ+EqBo1qEApcifaNo07TXslxwztCc+f7774W/FTimBXkBczU8LwgY+G+BA2Ec0Gbx9vYmhN6GIPwyfKXAz0pIBNo08jOH/5fgYAnfPxgrSCgO9xwS9LkuI8AIMAKMACPACDACjAAjwAhEVAQcJloQWQU72P/++y9hp/5LFBAQ48ePF48O3xfp06dX/V9o8Zg/f764hfNWRPKBCREEC+KwIlqgbWPNqawYzOf/QAaBOIPJUKVKlYTGw8KFC1WzG21ZXMePH19oiyDqUefOnQUGxjL23IMUgEjCwlpdezCFnxeY0UDg7FcJwSxIgeAQA9b6t5YOf0UQaNK4ubkJDSZZFho/iFIl54xMd+QMh7Mg66SA1IEzXmiXgEjRRp2CyRAcDEODJ3bs2IToR4haFFIZMWKEMBmEeZa1qFDGPvCOQEAKMdFiRIfvGQFGgBFgBBgBRoARYAQYAUYgKiDgsI8W+OWoUaOG8EkRFYBw5BmgESKjDmXOnNmUZEFYZRkCGaQKyBmYbkBAYEDzISIJHMXimaB5gAhKGN/w4cNtDrFx48aUL18+4cvFqA1js6JJJggKyI0bN0xyLUn2YgpzGpi4lCxZUkSGAuEA0gOmUaEtIHSszYXQ7kvbHggUaboltX2QD8IM/lug9QJ/LTCbgrkQnNaGxBEwHF/37NlTOMCVvnq047F2/fDhQ5ElP2dr5TidEWAEGAFGgBFgBBgBRoARYAQYgciKgENECxZL2M2GPw/4IkFYYwhCu0r/HpEVkNAetwzpDLMV+DqRR48ePURX0nluaPcbGu2BEIL2DYgWkBvWBL4/sJiH7N+/31qxYKWDpIDAtMSa2IMpojuB0ILmDbQ4cAbhALMXOWZr/dibDjM6aGqUK1fO3qqhUl5qA2nJu1WrVgmfMYiGVbx4cUGigXCCA12pFeRI523bthXVQO5AYya4In3wZM+ePbhVuBwjwAgwAowAI8AIMAKMACPACDACkQoBh4gWRBbx8fERfi5gNoCoQxA4V4WWC0sAAiBS4BMEZh2ZMmVSD7lQjcjRh1xcXIQPFjxNUFoLFSpUIE9Pz4AHd/DK3d1d4AWtjDdv3pi2Yg+mIG4wJ9u3b6+aToFwgFlUy5YtTdt3JBFRt6S5Tu/evU2bgE8UzAFnCLRTRo8eLZrWmuRAi6po0aKqLxUUgAYSMAjK4bC1cS5btkz4ZkIbaCu4Age4CMkN/zspUqQIbjUuxwgwAowAI8AIMAKMACPACDACjECkQsBhHy3wAyFFmmDAb0SGDBlk8hd/hnYDNDzgeBSkhVaw6K5SpYpwUopFujF0srZsaFzD+atZhCOY/MC/ijWBVgsc3U6YMIEQntfW5zty5EixALfWVnDS4UcGzoInTpwoNC6aNm2qq2YvpvDDUr9+fV0buPn1118DpdmTAK2R6dOnC0ezJ0+eJKllA7LDGkYh7VM7PhCd8IkD06BHjx6JeYZ5BAfAUlsK5eGfBtGutIK5CILUEYEmkGwvXrx4gsAytoMyU6ZMMSaraY72HahBTmAEGAFGgBFgBBgBRoARYAQYAUYgIiKgLNRCJIr5hb+yuPNXns1fCd/qr0QiClF7kaGyr6+veF5lAW9zuMAGuCxevNi03KJFi0S+sjAOlK9oYYg8xZ9GoDxtgmK+Jcopi25tsnqtLO5FPsZhdtSuXVuUVcgCka9ofqh15cW4ceNEnqKFI5I6dOgg7hU/KrKIelaiMIk8xYeHmmbvheIwVrSBeaU4rtVVDwmmuoZCcKNo7ojxSTyVCED+Cpnmv2fPnhC0Gryqcu7JvnFWNKb8FcLM/6+//gqEV/BaDX4phWDSPbt2HNprY4uKA14xToxVCc1tzOZ7RoARYAQYAUaAEWAEGAFGgBFgBKIMAtHwJMoCyWHB7jUkZsyY9OHDB3F2RjQXhwfIFSMlAtDKGDJkiHAevG7dOlNHw+H1YDDTkaGaEUbZTFMovMYWEfuFxhvMl+CfaM6cOUJjKSKOk8fECDACjAAjwAgwAowAI8AIMAKMQGgg4JCPFm3HiOCCA+SKPGvz+ZoRcASBgQMHCtOqzZs3U/ny5UmGTXakrdCuA2JFznsmWWyji3DmME8DyYKw4TALY2EEGAFGgBFgBBgBRoARYAQYAUYgKiMQYo2WqAwOP1v4IoAwxPAHMmvWLIL/n4MHD4bvgLh3uxB49eqViPKESor5meos2K5GuDAjwAgwAowAI8AIMAKMACPACDACkQwBJloi2Qf2JQ5X8WUjFuyhEdXoS8QvPJ+5b9++IjKRm5tbeA6D+2YEGAFGgBFgBBgBRoARYAQYAUYgzBBgoiXMoOaOGAFGgBFgBBgBRoARYAQYAUaAEWAEGAFGIKojEGIfLVEdIH4+RoARYAQYAUaAEWAEGAFGgBFgBBgBRoARYASCiwATLcFFissxAowAI8AIMAKMACPACDACjAAjwAgwAowAIxAEAky0BAEQZzMCjAAjwAgwAowAI8AIMAKMACPACDACjAAjEFwEmGgJLlJcjhFgBBgBRoARYAQYAUaAEWAEGAFGgBFgBBiBIBBgoiUIgDibEWAEGAFGgBFgBBgBRoARYAQYAUaAEWAEGIHgIsBES3CR4nKMACPACDACjAAjwAgwAowAI8AIMAKMACPACASBABMtQQDE2YzAzp076f379wyEAwgcOnSI3r1750BNrsIIMAKMACPACDACjAAjwAgwAoxA5EQgmr8ikXPoEWPUPj4+tH37dnrw4AEVLFiQypQpQ6lTp1YH988//9CtW7eoffv2lDhxYjUdF8uWLaNTp05Rr1696O3btzRixAhdfrx48Shr1qxUuXJlihs3ri4PN58+faJ169YRFrP4GIsVK0alS5em+PHjq2XXrFlDBw4cUO+NF5kyZaKmTZvSnDlz6OLFi8Zs3X2OHDmoQYMGujRbN1hgDxs2TDx3u3btAhUdM2YMJUmShJo0aRIoLyIk4DP9888/ad68eTRt2jRq3rx5oGHhGfEcXbt2DZTnrIRBgwbRx48fRfMxYsSgFClSiM8dn4+z5fXr13bN05w5c4ohzZw5U8xPZ4+P22cEGAFGgBFgBBgBRoARYAQYAUYg3BEA0cJiPwLKQte/fv36IKkCHV5eXmqD+fLl81cIFn+FFFHT5MWPP/4o6iqLdX9fX99A7ci2U6VK5a8QJrKaON+5c8cfbcsy8pw5c2b/gwcPqmV//fXXQGVkWZwrVqwoylapUsVmOZRFGXvkyZMnos0aNWqYVsNzKeSQaV54J96/f98fWOK5geGNGzdMh7RixQrx+b548cI03xmJ2s9Pe/3bb7/5Yy45U+ydp927d1fnlUJYOXNo3DYjwAgwAowAI8AIMAKMACPACDACEQIBNh1SVqqOyKhRo2jhwoVUu3ZtOnPmDL169Yo2btxIadOmpS5dutDLly/VZuPEiUPRokVT721dQLvjw4cPwtzi+vXrNHToULp37x79/PPPujabNWtGx48fF9owyFeIAaF1ceXKFerXr1+gLvz8/Ojp06eBDmi8QBYtWiTaQDs4INCQkPc4o4wjotWwcaR+WNeBmVCdOnUIWI4ePZoU4ozSp09vOowFCxYITP/77z/TfGclYt5hnty8eZNWr15NuXPnJmhPNWrUyFld6toN7jwdPHgwbdq0SdTFHIYZFgsjwAgwAowAI8AIMAKMACPACDACURkBJloc/HQlQTFu3DhBSMC0p1KlSsKMCIRESMgFmIPEihWLMmTIIExSFI0KsZiHiRAEZkZr164lReOC+vfvTylTphTmIzBtwaJ7xowZgZ4KZkuJEiUKdIAEgiAPJijyQJqLi4t6j3SU+RJkypQpghAA7h06dLD6yCDXJMEya9Ysq+WckRE9enTCPPnqq69I0RiiPXv2iHkI8u/s2bPO6DJQm0HNU1lB0ZqixYsXi9sffviBYH7EwggwAowAI8AIMAKMACPACDACjEBURSBmSB4MxIJiMiF21h89ekQFChSgJUuWhKTJSFMXi2zI7du3BSEiBw6fKjhCU2LGtHxM0veL9M8B7HEkTJhQ7Q6L7qgu//77b5CL9caNGwuyyl4s4PcG5BmIqUmTJtmsrpgNiXx83rt376bLly+Tu7u7zTrOygQJBn8yLVq0EJpNY8eOdVZXVts1zlNtwbp16wofN9OnTyeQUq1bt9Zm8zUjwAgwAowAI8AIMAKMACPACDACUQYBhzVasNjfvHkzNWzYkGrWrEmKfwj6448/ogwwQT0ITDcgtWrVEloNiiFYUFXsyof5CsxCYKIEkxAs5j08PEQbcJILLQGYDMH5rtR0sauDSFx4y5YttGPHDpsHnNQ6ImgbJkOK/5wgtZJgNgRTMalBBIev4Skwd4JcunQpzIZha54aB9GpUyeRFB4kkHEsfM8IMAKMACPACDACjAAjwAgwAoyAsxBwWKMFkXRgutKmTRtnjS1Ctws/LPBbAu0HxSku9ejRgzp27EjwnRI7dmyHx47dfqMZiuI0lqSpkmx4/vz5ot+tW7dS4cKFqWTJkmIM1apVk0V0Z2gbGQURhBDxKLKJEZ/QHP/JkydFc5JIs9a24uhXfCYgFxHpCe8CohMNGDCAYNYTHpI8eXKhiQPfPs6W4M5T7ThAFpYvX54wZx8/fkxJkybVZvM1I8AIMAKMACPACDACjAAjwAgwAlECAYdXhEoUFuEjYvbs2QRTDmhffEkCHyrYmT98+DDB7wS0IEA6ZcuWjfbu3eswFHBq2rt3b+rZs6cIe5wxY0ahuTJw4EA1pC8ah18WaBTBfAVhnWG6Ur16dSpVqhQpEYkC9Z8gQQKxCIdJjDx4oRsIJrp69apIdHNzC5ypSVm6dKm4g+YL5JdffiEQHPhMwlMQLvv58+dOH0Jw56lxIDLc8/nz541ZfM8IMAKMACPACDACjAAjwAgwAoxAlEDAYY2Whw8fEhypwikrzDjgoHXZsmVixzpKIBPMhyhYsKCIxgPiaciQITR16lQqUaKEWHTDma29Au0UbdQgmMAgWsvcuXOpUKFC1K5dO7VJRDKC6RKO/fv30//+9z+x0K9cuTIdO3ZMEGGy8K5du8TnJe8j8/nu3bsEkxVrAlzgJNYRkRGXkiVLZrM6NIog8NUDcyOYEEGg6QH8w0NgvgayBxo2zhZ75ql2LDJ6E8YJgpCFEWAEGAFGgBFgBBgBRoARYAQYgaiGgMNEi1zgAxCQLK6urtS2bVsR6jiqgRSc5wGpgmg1MCGBWRGiv+AMzRfgYyZwZAtB9BZrAjMkhHiGk2FoUWiJFm0dLFoRRhfOcEF+HT16VBAz2jJhfY1nh2hDXWvHAFwQ2che6d69u02iBe1NmzYtSB8rZv1KggYaWpjTZoJQ2TB/gRhJFXzuINugNRTWArIPEh4OeYM7T0HQQtKlSyfO/B8jwAgwAowAI8AIMAKMACPACDACUQ0Bh4kWLRDQbEEEIpABz549+yLCAMNHjdliUfpCkeYbMP2Bs1r49IBZh1ZgbgRiJiifHlLL4unTp2p1a/3ny5dPEC34HMJb4LQX/mXMzMoePHggQlZnypTJ7mEi7PKbN29s1nPUT44cD0IkQ4PITGRIZzjBhc8RKbgfPHgwwUluy5YtZXKYnSdOnCj60o4pzDpXOjKbp8b+L1y4IJKyZ89uzOJ7RoARYAQYAUaAEWAEGAFGgBFgBKIEAg77aDE+/evXr8UuvjbUsLFMVLlHxKWqVavS6NGjdY8E0w1otUAk4ZIjRw5xDw0LrcCUB4t5+LqwJQg3LPuRphbQXChSpIiqVSHrg8yBRgUkb968Mjlcz/BZc/z4cdq3b59uHBKnPHny6NKDc1O2bFmBPz4Da4fUpglOe9oyMAWDwLGtNQGRAo0VmHSBmJEHNLogZtGHYAIGgubMmTPWmg1R+sqVK2nkyJGE+QYnx0Zxdv9m89Q4BjjAhU8hkI8pUqQwZvM9I8AIMAKMACPACDACjAAjwAgwAlECAYc1WgYNGiT8U8BJK7Qn4Iz1p59+IvjHiOoCTRRoaSDK0OLFi0XEHzinXb58ufCVAk0ImFZB/vrrL5o+fTp169aNsJsPbQM4Ah0/frzI79+/vzjL/3x8fKhz584E0ubRo0eiPRAy0AxBZCMInO3evn2bKlSoQJ6enkLzArjDPwh8X7Rv3z7QQhZjNdOcgQYMQnM7S6DhAZ8hiIYEsyeEqIbZDcgILLjDQ/PD1rN+8803gvzy9vamy5cvBzLDAb7whwMHyEazpzRp0lCVKlUIdfGZSZIN/SE6FUzJIHBWnDp1anHt6H+YS5hX165doyNHjog+Qf6AwDL7nEO7/+DMU+OzSXKtdevWxiy+ZwQYAUaAEWAEGAFGgBFgBBgBRiDqIKAs6B0SZcffX1nY+Sthhf2VBaW/EnXFX/E54lBbkbGSsuD2V0gOgYEyG/zl0ahRI3/FLEb3SKdPn/ZXtFHUMiirmAz5KwtytZyvr68uH2WAr0KE+Ctkjb/iAFYti4udO3f6K1ozujoorzjk9Ve0F9SyipmNrowcpzwrYYzVstoLtKUQRtokh68VLQZ/xVmsbhyKVoq/QhY43KYzK06aNEmMFWNUtJd0XY0aNUrkKQSbLl3eLFq0SOQrpJhMEmcvLy/1+RVfO7o8e2/w2cjPD9eKY1r/5s2b+2MOWZPQ6t/eeSrHg3cAY8WhaF7JZD4zAowAI8AIMAKMACPACDACjAAjEOUQiIYnUhZtDgkiv2BHHQ5E48aN61Abkb0S4Lt06ZLQQMmSJYupNoF8RjgChTYM8IL2Q2gITEKg3QD/L9KRa2i064w2oAUER7JZs2YNF2exwX0mzOuKFSuSQmaJUNvaKFDBbcOsXJ06dURkrpBqtGgjLtljIhVa/Zs9m600+OMpWrSomPtz5swRobBtlec8RoARYAQYAUaAEWAEGAFGgBFgBCIzAiEiWiLzg/PYGQFbCNy7d0/42YGJFsybYHrjqINd9APnyPBHA588a9assdW1U/LCq3+Evla0vISpW58+fahv375OeT5ulBFgBBgBRoARYAQYAUaAEWAEGIGIggATLRHlk+BxRDgErl69KhzLwicL/KsMGzbM4THWrVtXRJ86fPgwJU+e3OF2HK0YHv2/evVKDbENospaaHJHn4nrMQKMACPACDACjAAjwAgwAowAIxAREWCiJSJ+KjymCIMAzHQUvzeEkNJw3uuobNq0ieAwOX/+/I42EaJ64dU/NFgaN25Mbm5uIRo/V2YEGAFGgBFgBBgBRoARYAQYAUYgsiDAREtk+aR4nIwAI8AIMAKMACPACDACjAAjwAgwAowAIxDhEYge4UfIA2QEGAFGgBFgBBgBRoARYAQYAUaAEWAEGAFGIJIgEDOSjJOHGQkRePbsWZiNOlGiRGHWF3fECDACjAAjwAgwAowAI8AIMAKMACPACFhDgIkWa8hweogROHLkCL158ybE7QTVgKurq4gQFFQ5zmcEGAFGgBFgBBgBRoARYAQYAUaAEWAEnI0Amw45G2FunxFgBBgBRoARYAQYAUaAEWAEGAFGgBFgBL4YBJho+WI+an5QRoARYAQYAUaAEWAEGAFGgBFgBBgBRoARcDYCTLQ4G2FunxFgBBgBRoARYAQYAUaAEWAEGAFGgBFgBL4YBJho+WI+an5QRoARYAQYAUaAEWAEGAFGgBFgBBgBRoARcDYCTLQ4G2FunxFgBBgBRoARYAQYAUaAEWAEGAFGgBFgBL4YBJho+WI+an5QRoARMENg6uHpVG1uTfp6cjFqvOI32n5jR6Bibz6+oQ7eHanhssZ0+cnlQPkRNQEh1g8dOhRRhxdlxgWM3717F2Wehx8k4iDw6e1burN2HX149SpUB3Vv5RHGIwAAQABJREFU23Z64+sbqm1yY4wAI8AIMAKMACMQgACHdw7AIthXN2/epFmzZqnl48SJQ2nTpqVKlSpR6tSp1XRcrFmzhg4cOKBL095kypSJmjZtKpJ27dpFGzdu1Gbrrr/99lsqXLiwSJs3bx5dvhx4wRctWjTq1q0bxYoVS5SbPn063b9/n7p06aKmyUanTp1KDx8+pJ49e9LTp09p5MiRMsv03KxZM8qYMaNpnqOJ//33H3369ElUjx49OiVKlIhy585N6dOnd7RJu+oN2jWElp5YQaM8h1E5t7KmdZ+8eUK9tvWhfVcP0ONXTynfV7mpgntZal2oFUWPxlylKWiRJLHcrMq048JRdbRHb16mOQdW0dBvu1KXbzqp6eMPTqRx2+eI+2sPr9Pu37epeRH1YsmSJdS+fXvx3l+8eFGcd+/eTVu3blWHHC9ePMqePTuVK1eO4sePr6bzhX0INGrUSFSYOXMmFStWzL7KEbT0pmubae359aaja1moOWVP7iHyhu8bSX7P/WhIxUEUO3psXfmhe4fT/Rf3aVTlEbTl2jZaemaZLt94Ey9WXBpZaTgdunOYZh71Mmbr7idXnyDu/zk2i076nVLzoit/A9MnTk9NCzSmxLETq+kYy40nN2lMlZEUJ0YcNV1ejD84gW4/v0NDKwyWSeoZJOtopV405Z9RphyeRucfXKA/i/1BbondjNkhvvdduoyOdu5Befv0oEzNfzdt79o/M+n9ixemee6tWlL02PrP5eXVq7SvYRNKU6kcFfGaaVovOIm+z2/RyL2j1aLAPolLEiqVoSSVdStjihcKb7yyibqt70X1CtShbsW7qPVx8e+p+XTo1mGR1ihfQyqYuoCa/9H/I3Xd3J0+fPpIqRKkpB4luql5fMEIMAKMACPACEQ0BJhoceATAdHSp08f05rTpk2j5s2bq3lY7MyePVu9N15UrFhRJVr27NlDAwcONBZR79OkSaMSLSBQdu7cqeZpL9q1a0eJE1t+YE6ePJmOHz9OcePGpb/++ktbjNDGo0ePVKLFVt+oWLVq1VAnWry8vHRjkjfoq23bthQjRgyZ5JTz2G1T6OHr1zR67zgyI1ouPrpEBcaUolcfPqj9X3u4nVYe306zfObSlqYbxA9LNdPOiz///FN8Plj8giQLDfn7779p4cKFNHr0aMqXL19oNBkl25h+ZIZKsiRX3o/6hb+n5cfW0O1nT2nX1T06oiWDsnCTkiphCnkZJufT909Tt0296Oyd81QjdzUaW2VUkP3is+/YsSOlSpWK8B0AEhOyY8cO0+8ulFu5cmWISQJ8hw0dOpS+++479XstyMEGUQBEcZs2bcjV1ZUmTLAsroOoEubZtWvXpiFDhtA333xDIMEbNGjg1DH4+/vT7du3KV26dE7rZ8WZVTRl1wLT9gumLaASLRN2TKNbT59QvFjxaEC5frryU3f/Q89evRREy8ZLG2nqroW6fLMbEC17b+4NsqwkWmb5zKG9VwKIFtlmt1WD6fsClWlendmCED/se4SWHt1Cpd1KUv2cP8pi4vzy/Uv6c3l/ypwiZSCixe+lnyBZK7lXpOpZqunq4ebv/TPpmO8Val+sbaC80Ej4oGilQd49eWq1udNDRyoaL69N8zP+3IBip9B/Z318biFl3j1+YlonuIk3n92k8Z8JaH2dcZQucRJa03Qp5UuVV5+l3E06MFVgdvPhxEBECwrLNnde2k1H2gRsVHkdn0Ojt1o2ub7PXz5Qu5zACDACjAAjwAhEJAQsv74j0ogi0VjGjBkj1MXPnj1L//zzjyA3WrRoIQgM42P4+fkJrRFojmgPaLwYZfXq1fRKURM2HmhbyrZt2+iDsvhfsWKFSBo2bJi4R5okWWRZnPv3708PHjzQJpleg9zQjk97XaJECdM6IU1Eu2vXrqW5c+dSv379CFo+GzZsoFGjgl5QhqTvA7cPCpIFbWw8vZdefwj8Q/XHBT+rJEudAhWodekG5Jbc8qMV2g+TD08NyRAIRNONGzdCjWTBYLBgBnGTLFmyEI0tqldedtry7uA5T3c6RBOqjaWLnU+Kz3dUteG6x8fCbEuLxTTn53G04Id/dXnOvjlwy4fWntxNVx7cJ48U2YLsbt26dYJkyZEjBx05coRq1aoViLA8evSo+H7x8fGhXr160b179wRJAFI2JLJv3z6hxRczZuhx+Hg/Fi9eTC9fvgzJ0Jxad/DgwbRp0ybRx88//2yVBA+NQezdu1eQ0MDEmTKx+jh6P/guPe53SXRTOKOHuEfaL3l+DtT18M1TCaSENeldphfd7nVSPfKmcxNFz3Tarabd6XVKV316vWH0qM/FQMeTfoG1OTf8Pp8O/7mJdrVZSWO/603xY8Wi/w5voAE7B4k2mxT8VZxnHw78/i49t1zk1Svwva5/3Mw6btkombBvcqA8bUK8mPG0t6F2HTul5e9N3PRfmbbpr2iEgmTJ8F0Nqnr0QKAjlsnfgdjJk4u24mcMIJBNG7cj0TVBQkGuyCog38pNrh7o7yq0Urac2SuKYZNj89Utsoo4N8wd8DcWBBY0q6QM2TJCXtLAiv3Va75gBBgBRoARYAQiIgJMtITgU8EuMUx0oHoP8x/8AIbgR/f79+91LYP8gFmM8YDZkVGQBg0U46HV7kDfuJcmQvJeW0bbLggTkBhBCUwJjGOU90HVdTQfmhwYfwpl161IkSLChAkmSiCToD3kLPE6Okdt+r3yY3XeSf3u7duPb8WuGwrlTpuRFtdbSBOrjaPzf52kMtkKEBYK3Ut0Vduw9wJzBJ/LV1+Z/4A2tgeyDqSecW4Zyz1+/FgkwZwtKMHi9cKFC/Ra+cFrS9D3kycBu59Y/L5VfAdYE4wBZSKyXPCzLNagzZIqXiox1Lgx49LlTmcoW9Ks4v7uy7t0+O4RcSRySUQ5UmSnp28D7yw/f/9CLYc6WHDOPOZF2IE9++CcKQz3Xz2glRdWE0wPYCrx/tMHXbkrT66INk/4nVTTQQbK8cBvjFHgJ6RJkyYieenSpVY1HkCE4PulUKFCNGDAAIImHgRaGSEROfeCM6dhMnjt2jW6qpgxQEPDmtjTJtoAoYw2bb0nHz9+JJhTScFcDmq+4rvIFlkN7URJfvzwww9BvlOy7+Cejx07JrQSoaH0/PlzypUrV3CrOlQOZjIxosWgmNECSDPc4zAzocF3aPv1Ha32FT9WfEodP7V6xIoRS5RNkzAgzTW+q65+kriJhcYgzFG0R6LYiXTlcJM/dT4q4JqfSnxVnNoV+YPWN18myiw9sVKcq7pXoXjKvN967iDhu10rC479J25/K2h5d7R5c30sfxe8z+ynZ+8s2iXafGdfx4wXX3QR18r3+QdlLkBcFK20OCZHtM/abKLQ5/9iJEwgruIqWrKhJV0r/Uk3u12ke73Pib+NaPeJ8l6N2KvfMFlzcZ26eYEy03z+xkknQz0DSJSOqy3mQTA3AtkMKe/xtapRpavIN4wAI8AIMAKMQARCIFSIFqiL44cldlK/ZMmZMyfVr1+frl+/HqGwAGmROXNmmjhxolioR/TPCGQPVPEh69evd9pwVxzTz9cZBy0qybLDT/4W3zG4v/HgDmFhDIkVPSat/HkJ7Wmx3XTBIQrZ+A+mZCCXYn+2m4cJGO5x5M+fP1DNZcuWkbu7u/D/gzmGevAHhHkmBQtL2YYk/LCYlml37tyRRcUZGkNoK0GCBOTh4UHAHG1euXJFLde5c2dRv0aNGqLvpEmTEnxQQANJzqnNmy27jTCBQl/Lly8XmhHQpkEZNze3CPUu4OG+X/gDVZ5Tna49tHyerxXCC/c42q5vr/tMh+8ZSYXHVdEdUw9NVzGSF/tu7lPLlJxantIMzE3N/utMTRd2pFyjShF8wWiJkY4bO5PrgBz03aym1GZJLyoyviol7ZOelp+3LArRbqPFv4k2pRo90jqtGKT2c/r+GSTpZMGCBUI7BaQqNFqCK7/99pv4vOAzCX6b7JVs2bKJzx8kM6RChQrq3EObWgGpAg07zBFor+G7CXOrZcuWQstGlsWYMKcwLyEghOR8huadVkDaQAMO5kUpU6YUbeI9adWqldomiELUh3kPSEiMGT6v8D66uLiI569Xr57abMGCBUV78JuF9y9Dhgyibcz/8+fPq+W0F3Xr1hWmo9AQ0vrx0pax9xp9wY8WfGih3fLly4vvconL9u3bCeaCtg5nEtZ4niTK5gAIy0WHvemYX8i0ouzFx1r5nClziiy/p5b3HP60auSroBCan5T3LECbDQQnyBeYDbkncdc1d/3ZdTp715dSfvZf9PeRf3T5YXETQ8EV4vJZs8XY53uFrIfESJjQmGX1PoYy3yFxlHcltCVF3OS0s/kW5e+k5eflhO3678u5R/UaRetP7qB3n97phlEvxw/kntJCup26fZ3WX95AfTcPVMsMqRJwrSbyBSPACDACjAAjEMEQCBHRgh/MWIxhB7VHjx5UvXr1CPZ4YT+cOnXqiE6hJeCowGQImgbaQzqMdaRNaLmMGGFRue3QoYMjTYR5HWmmZCQIQmsgR+4eJb8Xlp3Ach4FRbMHr53Tqb5DuyFbKsuO3zNFU8BjeH6hfQDVZ+yoYofWEQHB0alTJ9WHRdasWcU90ho3bqxrEs5L5ZyCeRp8r+B9A8EB7R+5aw+tI9THIU3H5D0cISdJkkRtFxoC1apVEwvQ//3vfzR8+HCxeEOb33//vdqm1FiBFg0WsWgXi1/MS4wDPiIwJgjmLAT1MRbMN5CvIIM8PT11DlhFwXD8b8Xx7bT5rI86AvjfwT0O77N6NfbkyqIBCwa5aFAr2biQu67aIhfvXlEdcI7aP4bGbPMS2WkTJVYXFBhHHa9mBJM2SKyYlh1/cRPM/+B3CSIdbAezmtCOq1mzpigO0s5e+eWXX8Tck+QO5qicf3nz6n00QGsGPq4KFChA0LqBNs3XX38tztKpLPoHWYM2oCkCwVm2CR9OWoHZDvJA2sCMEsQEnGrD4XfXrl21RWn//v1ibmKuIloQ3jnUAbkLjRT53f1CcS4KYqNKlSqib4y7ePHiQnOxaNGiVgkpjAMyduxYXb/23kDDBn6zQDDhPSpTpowgWPDZ4h2TgueB7x1bh6+To8vEUN6Rkd8NEkP6bWkLObRwPc8+Nlv0nyllenUcTQpanBZrzYe8L3sL8sXMbGjGYYuj2BVNForvgL/36cl4tWEnXiQvWoQq7txCCRRC3Ew+fPbdcn/PXjrcug1tr1CZDrVoSX6fTdnM6sA5LtpMr2wMOUPw97F89iKiaZgHSZIZmxcbTu0U6fLvLr73Fp1ZEmgYwz0t8wkZjeY1p/1XLcTy1xmyUuE0hQKV5wRGgBFgBBgBRiCiIRAzJANCdJs5c+bQqVOnxE5fSNqKKnWxgw8xqqFjUWEUOEyEfwSjSG0ObTq0FLAT66hgUVG6dGny9vYWBxYPZgKfIfARYxT0r12sG/ND+z6hsjsHbQuYrDhDZh21/AjHAnrqt5PIY4QF2xlHZlLPUt3VLuf95EVlJnkKVWeoQUP7oPfaQdSjSkdFPV1x1quo0dsr2EXHAVMAaIiULFlSJcKMbUHzBILFolw8//jjj2LRBcJEmo4lV2zuJZmGnW0sOOW9sU1oD0CLBo5y5YINhCkWufCTg/dZO1979+5Nv/76q/D9gnpYvCKyCkgao0+PypUri/kl+4QfIzhhxvjhD8QeAaEzadIkq1VgnuKI09H2ZRsJMx2vvYvE54rd+AZFLQRpxiQZdP1hLuAA+fHNBE9dnq2bZiXq0vhqY4TZUIUpNahnZUU7SPkHmX/EouGBXfKb3S+KdETvqO5Vi+LGcqGiaS0LlK1NvIVJTb1FP9GyY1tFXajlJ3NJKq7NIl6dPn1azK3gmO6IRjT/QWMDgu8umBTZI5gLEJAUIOagUWMtcpjUUgMpBJIR8vvvvwvtExB5UvDZ4sAcAgkIMkdLxMhyOOP7DBqVOMMMEQIyB2admNNaJ7pSuw/EBLTFUAdkJJzYwucV5jS0XaSAYMHfOgjeE2i9oB7SzSK14ZmgdQI/SXhH8b7ZKyCgoB0GAemMPvGOm4kcm1leWKb9mucXGp56NMF31dJzy6hO9sD+TuwdT/OF7emPWJ111TKmSEf7W+zSpeFm9L6xBPO+t+/f0rn7F2jFMYu2Xd+KAX9jK2eupJDksVXzIUQf+vf4AtFWk/yNxVn737zDi4TfkW/SFaPKuYoLX0lwTp0rZS5tMadeR1c0WuK7Z7baxzvFeTfkwT4fSpglE8X7Kh35bd1Jt9Z4U84uHShr+3amdW21aVrBzkSPVNkI5laQS4pT+dwpc5P3lY2q2dDgygOoxo26wk/aDJ9ZBN8sWvnOoxZ5uPam8363VV9qyB9UpZ+2GF8zAowAI8AIMAIRFgGHNVrwYxo74fiRB1VtFgsC8scwfG9oBaQBNAK0h7Uf4FhQYHGrPRxZOGn7xzUikUCw4wofBdZEO0Zc45mkmYu1Os5IB2ZB+Q5xtF9El4GUUWy9sybLojq49fKZp2vy69QF6XjH3VTCPbeajh26jisGUpEpJQi+ORwVOUdAKlkTqQ2AhSy0SqSGD4gPmOsYBVpmaNdWm6hTqlQplWSRbUgtImPYcIT+hcg2oUkDgbmRUTB3tQITD0S0geaA1JDR5tu6hpbMiRMnrB6HDx+2Vd1q3hglag987ST57PsgbbJU4h5pnb/paLVecDM8XNPS9BpTyCWGi/AZcfSvPdS8YDO1eqqElu/L+wqRlHVULuqzvZ/iM+INbWy6htY0CjBpADEDMuXZ2+dqXajlI82MZMGiHp89TLYcEfndpfXFY287sq4k8MzqQ9MEAvJ3/vz5QkMKJj0g8GT4em092aacf9o87TW0tCTJgnSQkGgPmGh9q2DuQ2Q4a2inQOR8NmoPauc0tAOlryuYzFoTaK1BrJkYWasn06X5Fp4BhKj8bGR+RD1Pr2MhRtsv70LQ/AupQFMmQdx4ukO+P8a2h2/+m3qtGUUDvCfS4iMbRfaEOv0Jvlmk4J3yzFtRZz604eQ2YTaEvwNagW8lmBf+ULCWSG5dtIU4jzswUVss3K/jKL7NkubNRV+PH0nld2ylYvPmUrktGyh20sR0ZvgYeqUxMQ3LwSaOE6B1df+lxXxr9mezIZBdIJQ981YSQ9p54Rg9efMk0PBG1hiiS4OGKcgyFkaAEWAEGAFGIDIg4LBGy/jx48XzbdmyRezqwd4eas6IcPEli1wIS80WicWuXbvIzPGtzNee8cNe2t9r00N6DfV8tI0dXun80timVKM3pof1PQiDu3fvOiU88Yl7SuSLz7uA0EiB01KE7MWP6sv3/ejcw/M6R3uw29/VbBv53DlEvTf3U3fpsHPbZWM3muLp2A9vmCZAbC1KYX4Dp8BYhEqzCZgvwJ+FdgEoPx9JTAW1KAWBAW0RRKWBU1BJ+qAdaJJoBU5TtaJdzGrTcZ0li36xgoUiyCJoJMD/izQtMdYzuweBa8vPha1xmLUXVmnVcuoXAhkT6YmPIZUH0q4LVcXOLsyMsDDEUTtfWRpdbQSlpBS6oT57bSFagjJfgpkLxNFoU9a+u3SDCeJGmpDZmn/w44L5By05ROiBfPvtt9S9e3fT8NKyTZC+1gTfF9D+goYYtHpg1qad02hDvmdyPoPcgQT1vWwMoSyd0Gr9GRnHJbV5YPID7S97BRo+0LyBlg2c3yKSWLNmzVQNIG17IKLgHNeWgOwM6jlt1Q9uHhzRVslZTHxHDts7IrjVrJabUm8M1c1ex2q+NsO7xQJKGTcleR2bI8ID/1KsNrUp1EpbRFzDfGjBoXUE86F0CdMpDm7fUWuTaEPTD1uctKaIn0I4rZY+uxb5rKKpnpNMyc5AnYVBQkJFa6v0+jW6nuIp2mk5Oneg4z360oNduymDg+SrrlE7b249v63WyJTUjfyVfyC1IEniJxB/d2PGCPgJOvO4F/1VVL954JmluqLVklZotaBer0oWzTJcszACjAAjwAgwAhEdgYC/cnaOFGYPMBNAeGJoR8A/C3bZ79+/r5oz2NlklCgudzCNC86I8nCDBg1SwyhDYySiCuYRJHXq1KE+RK/PtvtoGKrNUr1ZdjTFZxqNq2rR/pFpOMMufP0vq2nJuaVUb3ZLkbXmpLdCtGhLBf9aanjYCoWLxeCUKVOoXbt2BEenS5YsEQtULFIPHjyoM4lAz4g6A7HVJkwmypYtK8rBeTNMJ7CIhZaaLWJDVAjiP7N+5QLPLC+I5iLld0myuMlsPlZ+13x0pvNB6r6pF608FqBKD98xW8+WoAtdj6pRkNDQuw+Wz9Rmo0qm1Hpz1PGp9E0izXmC6s8sX/oMskWCQZMP2iAwrYGJDOb0qlWrxAEfKXAoq5XgvCfwYwJTITi5ha+ZNEo0FWiowBQI70poCt5JvC+25rPUSDGSNMEdB/qATxpomUHrB2QrNGngLBtkOCK0SQERc+aMxX+FTDOe27RpEyLTU2N7tu4nfzue3M8UocEbximmcLFsFQ3VvHyp8or3ZkiFgeS1dyHN3b+CBpbvJ6IcaTuqkKm8cN4LB7iuCS0+V8zMhhYesphuQUtGKyBm4Ew3NEyjtO2G9nWi7DlEky8d8LkUGmPZf9VHbSZDogy0+doWQWoh8cbjR8JZuFpAuZh5YE4gogX52VyzqERL3lR5tFX4mhFgBBgBRoARiNAIOGw6hN1TucMIdWrsrmMHEY75vmTBj14IHBdGRMFOKxxF4vOztSMb3mOXfmLMovCEdGyLj6wUTSDUZ90CFdVDagwsPLRM7aLufz/SiH36H9r4gY26kDfv3qpl7b2Qobjljr1ZfbnIhCYIIrVgQQUtMgiiSEktBllXLnCNWikyHzv/8PeAHW744gB5A000+J6QJkGyrCNno28itCEX8NihZyFacHohbbjkTfPqzKZn/W/Rht/nqw5xsYhbetaywJNYxYhu8QOEaCnSHAPnp+/05okwhcHnKsleWT84ZxCb8LcFkkUSNsGpZ62MnLdm+TIPfkygVQXtEzijhWAuGkXOaWvvCXwKgWSBryM48oX2F+4xpx0lOrRjgEmWVqD5g7918P9iTeSct1XGWl1tOrRv4LcG+OD9wQYHTAYRKenNmzeiKDY5GjZsaPNA1KSwkkyJM1GLkj8KjS2YWYa1wIl5h/IthXlQl40B/rbkOGA+VCNfJZE/58AqU7MhhFuHs/RaipbZmU671WNewwmimYn7psrmIsTZX/luMMrbz5sVMC0Ka0Eo5jN3bopu86ZzE9o/s4/8qw4DuMq/va4JEop0lL/29Jpahi8YAUaAEWAEGIHIjoDDRAt+9GkdlcofwwgV+yUK7PrhUwW+KJo3b+6wn4SwwA4q+liQRVQ5cOCA2OWGr4nQJqxgFnTrqcUW3DNveVpUb4F6VM9TWkAC3xk7ru8UpkJwQtp11VDqta23shv3TBz9dwxUHfq5u+rNQuzBVJp4wHxHCnxJwJRHCkwI4HhTK1igSnMEI6EizSOw0JNmRNAykP5MZCQVLOCw+y8F7WCBGlJBNCKtwEwNz4PdeUksafMj+vXL9y/p5nNf8n3mqw4VvgSQZuZTQC1k5QKhZP9c3o1aLu5OA3YOUnyzvKWKmSpQpewWPziolsRFbyKTOrGr2tris0to89Ut5DE6D/2xVq9mj0IgJkGg2kN4gzRAlCBI3759RQhkcaP5DwQfIkwFZaIifYnge1CKdizQuIKPFK0fIMwLaFxApD8WWRdn+Z5o24T21bNnz0Qx2Rac+Wp9SZ07d44QmjmkYgxPLR2YS99FxvZBzECTBt9fWs0TYzl77kEYgWht37698C2DKEsyqhE+c0RhsnWE9ff9sEqDVTLanucMrbJdSnQSTm//PbiGEKLZKL8VtMx3pJtFG5p+eIao0qpIc2FGmj25hzj/lKs+gRjYceEoPXj90NhsuNw/3LePNpcoTW81juNBvFzxmi3GkzhvnjAZ151nd2jLtW3UbUsPqvp3A7XPMTVGiOt1JyzOiRFpbXn9xerf3d5Vu6plpx6arl7be4HvFryrQWl32dsul2cEGAFGgBFgBBxFIKajFaGejR992N2DmjbMEeA7Iqx/0Dk6/tCohwgsUB/HD3qE4T169KgIKSqdJWr76Nixo85Ro8yDo0NtpA2ZHtQZP7KxaJY7p9u3byfpxBGLJlsOirHzDT8JsPk3CtT5YaZiJogcExo7xMa2b91SdvUV/wog7rBoQnQamDVh8SX9KBjrOHo/66iXWrVeHr3tf/PCv9FKxXwDMsVnOtXKUUNc47/BG6eIQ034fDGgSh9jUrDv8dlDKwz+S2AugahOMKMAKYEzzA9AVOBAiOTvvvtO4LFo0SKxkMYOfqZMmQL1h3TMR5BUcPSJaCyYK9AcgO8MRJTBovWnn34SUVyAOxztYvEaUoHpR8GCBQkmSXgvpCmS1FgIafthXf+3lS1o0WFvXbdjt80mHJ55StLqBnrtE11Bk5vNVzcTiDxIn/VjxaEthghInlmra5OonHsZEe0EiQ3mtlXz7j7ZQF61P+l8RYCYA7kAzTpJxqkVNBfQZAIpAn8m0JCCLxHMQcwJo2ABg+92EDLQqNBG8DGWRWQ0fIfA9wr+RqA85iL6gYNY5OH9hmklCGmQLpjnM2ZYFrbQzDCKdNIMh9AIUwwyEiZH0OjSmsTAxEaSsyAW4awdYw6ptGrVSpjIguBExCS8ryApEU3LTGDqB2ndurVZdojS4NwXxAqIHKM2W4gaNqk8++RcOn7nOL37+F7k3nh4WyyiceOZrTqVSl/SpJYlCeF9+3l2oc4rB1stE5yM0TvH09JTKwIVjR8nHs2oOS1QukyAVstfFVpR3/XjqNOGrrS4np4ALpOxtDAfQiQ5M7Oh5UfWCqKmUuaKskn1/Gux+gTHu9MUUkAboQ7EZ/zY8dVy8qJenrpUzb2qvA318wuFyH514xZtrVCFsvzelFwUc9uby5aLKESupYtTcsX8LCxkxJYZhEMrXSs2p3JuZWn7jR0ErCFVc1fQFqGGeX+mP5f1FhpG/x5cREMrODZnxo0bJ6KHoXH8LnWG2bFu4HzDCDACjAAjwAgEgYDDRAt+fMJHBH5YQ90cu6jS3COIPiN9ttw1xY99HCCXsIiARkuPHj1MnQ5aC1OLUM6SaLFnxx9ECxZHUtauXUs4IPCdI4kWqWkky8kzyBgsmOQOsuwbC3DtzrEsjzPGGdpECwgVqPvjRxKuYdoEUgELPrk7rh1DSK9XnrRgBDOhGlk9dc0hOgWiIcB8Y83xLbSw7r+UrX02qjPnJ2FTri0M06FJ9YZTJbfAP8S15WxdQ/sEBAcIL8wjCMIqt2hhiW6B58d7BeILvpDk54tyMNVDXTNBdCnMKyxocWB+wpRCzoV///1X4AtSBAcEC2lEEBs6dKjapCwvfVHIUNKyAO6N0atAqOCzBCkHQd8wSQH5Ehnl46cPVocdK3rA12es6AG+KLQOHo2VseBa//s8ajS/uUq4yDKIqLGwwVxlDiaSSeLctnBr+vfQAjrme0VNByEzuGZvHcmCTDgjBwkAcg4+sypU0C9q5HcXiFYIiAlEAcL8kFotIkPzHz5nfI4gLYLS0IBZC4gbaLGACIGAkJDfG9C6QD4cOyO8Mw4ICEeMAd+hRsEzgEBC2HLpxBvOc6XDcIwNf3vw/YSQyzggeEdgbiTfLUnayvlsPMv5Lb8L5Tgwn7GpIN8/EJXQ3JJRimQ5nLGbDoIHzyPfY21+aFxjnHCS7WxZeGyRzn8VTGlAMEBix4itEi2IDGQmHYq2p7HbJ9PLN6/NskmaxEVXHJJbk/1XzxAOo+D7WxItsv8Y0QLeR5SHVsvoLVNo6dEtdLOaL6VP+JWumdoFq9HOi3tE1Dltxr5b+0U44XpfV1GMjKJps8R1myKtBQ5zlXcSRIt8jiVHNwcqi4Q0iVI7lWjJ2KgRxUmRks4MGyGiDMlBZKjzLeUe0F/eOuWs/d5DB/hc0idLTjnSeFDPst2oWNqiot+FJxep/f+Up756jYuEsRKI6H+bz/oIJ/VwVu+ILxZ8D0iBXyZENWNhBBgBRoARYATCE4Fois8G/5AMALuLMDvAD/YvSaTTRzyz/IEels+PBa7UYDH2iwWEXFQY88LyHlo20o+AtX61C3XjAsdaHWO6q6urICiM6aF5f/flXdp5Yxc9e/Oc8qXOS3lS5Rbhe0OjD2gMQJMHO3DWQn7jswYhhbLwtyAXzNb6x2uN8pibMgKKsSz8qWBXHOZ+tqLEGOuZ3UM7AQth/MAF+QrtGHy2ICAlYWNW70tOu/LkCsEXBKKZ5E6ZSzlyW4UDETsO3D5I5x9eEGULuOYPRLLIyt7e3sKMBAuP48eP63Z2MS8+fLCQR/hcgvvO4T3GfApu1ChEDINpD+aqtT4wl6GRB4IVZj9BzRO0B40WmK26uLjIx1XP+E6+dOkS4QzfKEG9I2pFKxfZsmUTZm/ADG0CS2CKsZoJ/hZCgwzkKMhFs6hgZvUiahrm5Qd/c6IxpkJqmIUYj6jPYjauN0pIdZjuJY6tN9UzKxtZ0t4pZmtvfG9RPPfMFFNxBv2lSZ06dYSpLWu0fGmfPD8vI8AIMAIRE4EQEy0R87F4VBEBgeAQLaExzrAgWkJjnFG5DSPREpWfNTI8G6KLwZcItFtghgbyi8U+BLRES1A1oaXTSNEsgHkeNHP69u0bVBXOZwQYgVBEAP6j8uTJIzT0oAHKwggwAowAI8AIhDcCel3b8B4N988IMAKMACMQYgQQWQy+mDp06CDMwh49emRVWyrEnX3hDcA8CX6VIDAzsubj6guHiR+fEXAqAtL0ERG5WBgBRoARYAQYgYiAABMtEeFT4DEwApEcAfjLgPkRh3COOB8k/KUgMg60LayZpEWc0Ua8kTRt2lT4eAlqZPDVAi2Wxo0bk5ubW1DFOZ8RYAScgAB8IkGLzxm+3ZwwXG6SEWAEGAFG4AtAgE2HvoAPObwekU2Hwgt57pcRYAQYAUaAEWAEGAFGgBFgBBgBRiC8EDAPFxBeo+F+GQFGgBFgBBgBRoARYAQYAUaAEWAEGAFGgBGIxAgw0RKJPzweOiPACDACjAAjwAgwAowAI8AIMAKMACPACEQsBJhoiVifB4+GEWAEGAFGgBFgBBgBRoARYAQYAUaAEWAEIjEC7KMlEn94EX3oz549C7MhJkqUKMz64o4YAUaAEWAEGAFGgBFgBBgBRoARYAQYAWsIMNFiDRlOZwQYAUaAEWAEGAFGgBFgBBgBRoARYAQYAUbATgQ4vLOdgHHx4CPw8uXL4BcOYcn48eOHsAWuzggwAowAI8AIMAKMACPACDACjAAjwAiEHAEmWkKOIbdgBQEfHx968+aNldzQS3Z1daUCBQqEXoPcEiPACDACjAAjwAgwAowAI8AIMAKMACPgIALsDNdB4LgaI8AIMAKMACPACDACjAAjwAgwAowAI8AIMAJGBJhoMSLC94wAI8AIMAKMACPACDACjAAjwAgwAowAI8AIOIgAEy0OAsfVGAFGgBFgBBgBRoARYAQYAUaAEWAEGAFGgBEwIsBEixERvmcEGAFGgBFgBBgBRoARYAQYAUaAEWAEGAFGwEEEmGhxEDiuxggwAowAI8AIMAKMACPACDACjAAjwAgwAoyAEQGOOmREhO8ZAScjcOjOYRq8Y6iul1QJU9FUz0m6tIh8c/HiRYoTJw5lyJAhIg8z0o9t7969VLx48Uj3HFMPT6eVZ1bTvef3KU/aXNS4YCMqm6GM7jnefHxD3Tf3pPsvH1K/8v8j9yTuuvyIevPs2TO6cOECFSpUKKIOMUqM69ChQ5Q3b16KHTt2lHgefghGgBFgBBgBRoAR+LIQYKLly/q8I9zTbtq0iR48eGB1XFmzZnXqgmbQriG09MQKGuU5jMq5lTUdx5M3T6jXtj607+oBevzqKeX7KjdVcC9LrQu1oujR7FcKO3n/FK04vl3XVyJlMREZiJb379/TsGHD6H//+x/Vr1+fFixYIJ7jn3/+oVu3blH79u0pceLEumdbtmwZnTp1inr16kXRo9uPl66xL+jm3r17VKJECapRowZNnTqV0qVLFymevtysyrTjwlF1rEdvXqY5B1bR0G+7UpdvOqnp4w9OpHHb54j7aw+v0+7ft6l5EfViyZIlYo7HihWLQDbivHnzZgIhVqtWLcqXL59u6EeOHKE1a9bQL7/8QpkyZdLl8Y1tBBo1aiQKzJw5k4oVK2a7cDBy11xcS5uvbFVLRlOu4seOT9lTZqcfctShODHiqHk7ru+k5edWqvdmF7VzfEsXH16i0/fOmGXr0jw9qtHa8+tFWqN8Dalg6gK6fNx08O5I/sr5h1x16NyD83TS71SgMtqETsX/oq8SpqPuW3rS6w9vtFm667gxXWhIhUHUbUsPevPhrchrnL8R5XcNmKtD9w6nu8/9yD1ZJvqjcFtdfb5hBBgBRoARYAQYAccQYKLFMdy4VighsGrVKrp06ZLV1qpUqeJUomXstin08PVrGr13HJkRLRcfXaICY0rRqw8f1DFee7idVipEySyfubSl6QZK4pJEzQvOBX7gtixVXxSdf2AZPXv3LjjVQr3MknNLadK+aXTx7hWaVGcM1cpW02Yf/v7+VLduXcJnht38zp07q+UnTJhA165dEwSMmvj5YtGiRfTff/9R9+7dHSZa/v77b1q4cCGNHj060GLW2F9w7/fs2UNDhw6l7777jpo2bRrcamFWzsXFhapVqyYW6rly5aJ9+/ZRjhw5wqx/RzqafmSGSrIkjxuX6hf+npYfW0O3nz2lXVf36IiWDInTq12kSphCvQ6Li9P3T1O3Tb3o7J3zVCN3NRpbZVSQ3WLudezYkVKlSkWTJ09W5/Lq1atp/PjxVLNm4PfHx8eH+vTpI4gCR4kWZ8zT+/fvU5s2bcjV1ZXw7kZEqV27Ng0ZMoS++eYbmjdvHjVo0CBEw1x1fg3N2LPEtI12cbrQnJ+nUY2sniJ/69VtNP4zCWhaQUlMGDsBbTy/hXyun7dWRE13jZ9KbS91QldBtKy8sJrOPjhLv+b9hRLESaiSjukSpaWVp9bQ3iu2iZYfc/8giJbRW2fQ+0+f1L6MF7EUchtEy5it/6jlTt45RVsae6tFJ+6YLt7RGnlKMdGiosIXjAAjwAgwAoxAyBBgoiVk+HHtECIwaNAg+qAhMdDcJ+VHY9euXen27dtUvXr1EPZgvfqB2wcFyYISG0/vVXYFX1PcmHF1FX5c8LNKstQpUIFclR/J605vpGsPHxB26icfnko9SnTT1QnqpoBrfppc3bK42XtlP524dS2oKk7JX3xymboozp86b5B99OjRQ5AsP/zwA82dO1eYDmkrwZQoWjTsE4e+rFy5krZu3UrJkiULtcZBXEDbAM8TESVRokS0bt06oUHUrVs3QbocPHhQLPQj4ngxpmWnV6hDO93pEKWKl4qGVxpCucYWpFHVhqt5uKif80dybeFKt17cFhoFukwn3xy45UNrT+4WvXikyBZkb/gcQLKA6IIWnpl2Ubx48YJsx5ECzpinN27coMWLF1OTJk0cGVKY1Bk8eDCVL1+eKlWqRD///DN99dVXVLp06VDpO1uqNBQjegy6/uCu+H5/8vYt1fFqSjd7nhRzVttJ2kSJKWaMGNokcZ1WIURypPagW4/vivu379+pf09AbqRMkFCt45HCQ72+88xSvsOqLuLvSOI4ialalipqvnsyvQldhqTm33nxYunnG/pMkzgw6R83tovatrzYdv4IXXlyhTInySyTxDlebH2buky+YQQYAUaAEWAEGAG7EGCixS64uHBoI4DFpFHWr18vSBZPT0/Kli3oRZCxfnDvvY7OUYtiR3DeyQXUrECAZsPbj2/pmO8VUSZ32oy0uN5Ccf2+ygeqPLs6PX75mLqX6Kq24cyLm899aZ/vPrr34h7lSJmTymUsY9VsCT+g9/rupw8fP1DxDN9QtqRZdUM75necPvp/VH7kX1fT7728Tw9ePaQY0WLoVMplgRMnTgjtDyw0Z8+eHYhkkeWcdX78+LFoOm3atEF28VZZNF25coVSpEhBKVOmtFpetokFXFACbZ6bN29SDGXBZbbIlvVfvnxJjx49ovTpLdoaDx8+JNTFWMwEeTBBQfm4igaImYB09PX1pYkTJwrNG5BDEVUu+F0WQ4M2C0gWCMjLy53OUDTlH+Tuy7t06/ltcZ3IJRHhePr2qVpeZCj/PX//gi48vCBu0yVMK+qvvbhezPui6YpQjhTZZVH1fP/VA2Xu76PbSvuF0xaifIr2WKzoAX/m8G48VkwBT/idVOuAYD1894i4z6W8Wy4x9AvTd4rGmSQkli5davPzVxsNxQt75ilIapAomFdubm5WiU972sSjwLzz+fPnguyAuZSZfPz4Ubx3MPeE4D308/Oz6ccJ7xTmvbX3o2LFioIQAhmKA1pz1t4TszFZS/P+bTVlTJRRfA9+O/97Wn9qr9D22H59B9XLoSdeNzdfS9mTBxAl2jZbfd2CqLYl5drTa5R5aGFxU7dgVZpXZ7a2KMWL2UqQOnee3SH8bQFZD9l7fR8VSWeph/ssSQOIliQKeX2tS9AaM6hXPnsRWv/LalwGSwZsH0yzas8IVlkuxAgwAowAI8AIMAL2IxDd/iqWGv369aMiRYpQmTJlxFGqVClyd3ennTt3Otok12MECI4mYZOfNGlS+vXXX52KyIpj63Ttzzg4S3f/yT9AHfvGgzuERRwEC7eVPy+hPS22q4tHXcVQvLn36h6V/LscZRxcgOrPaU3tlvWlStPqUcZhHgTzB608e/eMKnpVpSzDilKjee2p6cKOlH14cco8MgedexjwY73o+MpUeFwVncp70fHVRFrJiVW1TarXY8eOFdfTpk0LlYWO2rCNi6tXr4qFIrRk4AMDEjNmTDXtzp07utpPnjyhhg0bEkxucubMKTQ/QIoYTSNA3qFN7JhDKlSooLYJEyetYD42a9ZMzMeMGTOKhWaSJElo3LhxajFo26A97LwnSJBALCzhq+aPP/5QyZ6RI0eK8nfv3hVlYYIFXzepU6cmDw8PgjYE5jv6MxOYrYDkWrt2LZ09e9asSLimfb/wB6o8p7q6eHyt+PLBPY6269vr3pPhe0aKuYY5KI+ph6YHGv++m/vU/JJTy1Oagbmp2X+dxbzONaoUwRcMHOpK6bixM7kOyEHfzWpKbZb0oiLjq1LSPulp+fkAXxuNFv8m2tSahXRaMUjt5/T9wP424IcI/nLwNy8sTbfsmacgVvr37y80vmCilDlzZjFnW7ZsSa9evZIQ0W+//abOVSQOGDBAnftt27ZVy+ECpM2oUaOEeREIS7QJx7StWimEwec28c5h7sO8ByQoxly4cGFBxuI9xDtTr149td2CBQuK9jZu3Ch+L8CZNtqGL6Lz5wO+o9QKygXelebNm4vPYNYs/Xe0tpwj1yCWS2UqoVZ9/vaFeh3aF6k+a5v4Pb9HB2/7qM0funGUHioktxT3pJnlpVPP831WK2ar5t83Tu2YG2cEGAFGgBFgBL4QBAK2+ux8YERdwI+7cuXKCYeA2EVDGn5wsTACjiIwY8YMevHiBf3555+UMGGA6rWj7Vmrd+TuUfJ78Vxkl/MoSFClPnjtHPm99CPX+K4iHTvxUDG/cO+O8KPiMTw/Dar5P2pesBklih1YE8daXyFJb7ysmWqrH08hGaB5g+PW0ydUb35DOt0+wOlovf8a0Nbzh0V37ild6c27t6Icdk4LjS1Lj/vdFCQRVMxt2fQbxwstDSxwsFMNQjWsBNpOnTp1Et3BR8vTp0/VezjVBeGhlR9//JGwgMOi7Ntvv6XTp08T5lO7du2EPw34pIDAMSkIDUlaQFshefLkIg9RTrQC0zY4+sVuOhaD586dE+ZTmJ8gcbAIxE4+BP44UB4Lc/jsgFNg6ZtmzJgxYuz4zoRAMwJOVEHGQGCKNWfOHLqm7Njv2LFDpGn/gxYBsMBCGaQXCK+IJEbnzvBptPmsZTF59cENomoBo00eN7kyDy0cf3Dn4ZUH9wMa+HwF30LSgemo/WNozDYvkQNTj7hxXOjyfT+hQVDHqxnt+yMNFU1bhGLFNNfGCNS4JmH6dAsJFNZ+fOyZp/BlAl8wZcuWFXMKGiiYe5gnuIYTXwhIRZjfHTt2TMw/aIzkz59f5GHTRCswkcKcgyNamE3hnQGpCMfMIDy1BOb+/fuFzxeQn3B+3bhxY0EkwuwJJkr4bQASBt/tIK3gewvvKUgh+LgBkVq0aFG6fPmy+i5qx4Jx4HPA3G/durU2y6Hr/04vVnysJKQTd0/SzL2LRRuYkzWyVg/U3inFefmLd3oCJlOSTJQ8rrlJT6AGPiekT5pWEJEPXjyiPTctxDGyrty/S/deWeY3vuPjx4qvNvFO+W5BlDqjGDW1kP/41ZNAZV1ixqHcKXPrqsMEdunRLeJvwJh946hPmf/p8vmGEWAEGAFGgBFgBEIHAYeJFqjQw25dqubD0SV+XFlTKw6d4XIrURmBkydPCv8H2DWuXLmyUx911lGLWjd+XE/9dhJ5jLAQhDOOzKSepbqrfc/7yYvKTPJU7fixU9577SDqUaUjtSvSVpjaqIWdcDG91hTKe6kodancjroV7yJ28EtMKyv8w5y96yvMMFLHTy163njmgDjXzFuaVv60VFzv8d1LNWfUo1alm6gmFM8H3BYkabrBWQTZlE7Zab3e9bzV0WORBIHT2LAUkB8jRowQXYJowY66vDeOA9GQQLJgV12SEDA9a9GiBSF6CRatUhAxCYLngnYINBWkqY8sI8+9e/cWfoK0i1A4AYb2HkyoQLRI+f777wl+bGAygShL+E7Ebj4IFYzfGF0LJnKSmAZxAw1BaATCNAiRhowCPxUgWqR2jzE/OPcgzSZNmmS1KMyoHHE62r5sI2Xh9oG89i4S7wpMHhoUrSP6yZgkg64/vF844CPpmwmeujxbN81K1KXx1cYoDkTPUYUpNahn5c6qpsz8IxZNpJTx49PN7hdFuu/zW1TdqxbFjeUiSBa0vbWJt5j79Rb9RMuObRXd3et9jpK5JBXXZlHEQNhBSyM4JmaikVD6z555irkEARkhTXd+//13oX2COSMFny0OEH+Yl3gvZHQfWUaeQYbgbzzOMloYyJzs2bMLYlBLtODdhGkbSEIQLajTpUsX4cR2xYoVdPz4cZ0ZKIgh+B2C4H3Ce4J6SJfaX3IcOOOZ4K8Ffppg9gSNx5BIt1XDAlWf/MNQlWTXZtab3VJ7K64n1OlPbZSoc/ZIpuRutOvSCXrw/DHtvbZfrQqycftVC7kqtV5kJghLaGYZ5Uo3H3JL7KZLxkaBsSxM+O73VohOjWRNkYVKuPvRnsunaOKOv+l/pXtqcvmSEWAEGAFGgBFgBEILAcu2ogOtYfdVkixY5MDcAyr2LIyAIwhAK0AuAKF5AHV0ZwoioUDKeHxNWZNlIbfkKcS9l888cZb/fZ26IB3vuFv5YRqwK4goRR1XDKQiU0oIPxKyrDPOCN/p1/sa/ZCzDq29tI5mHZutLBzjql0hVLQULG4hq0/sFOZGE3wmUq4UOWlXG28aUK6fLCYWoVhQvlY0XiCJ4yUUfi+QZrbQhAkPBGYA4SHQAoE2iy0NJxC8IOjgQBkkBRZkmFPQKsEuvJkvIJg9QMzy5HPGVxbuWpIF6VhUIvIMtE+0IsvBfAgiQ9JKnxIwxZCCNiTJgjSQSiBbIIgyYyZwNpw7d25B4kjNGLNyttJg8gF/O9aOw4cD757bak/mjVGi9kysNo6SxLPsxqdNlkrcI63zNx1lMYfPHq5paXqNKcJ/CpxJH/1rj9Askw2mSphSXN5XiKSso3JRn+39FD8Yb2hj0zW0ptEKWUyd+8/eWrTZkJFC0bCxNvexqMfcC6+5j/EFZ55iXkBA9s2fP59AqOE7FNonIImMItu09U6hDqJeSZIF93jP0B4w0RKHUtMN7wsE2ikQ6SBYO/eRriU+sWkDshNibe4jD+aAEGsmRiIzmP8lUkygcGhlwMahwTalMfue1LZldp1ZCZ0MeaL8/Th646TQ6qqSs5hI23p+pzinTWwhzcWNjf9C+vexT4VeonX8LZt7Sv83z0a3nMUIMAKMACPACDACdiDgsEaLto/ly5dTlixZ1J00bR5fMwLBQQCmFNevXxcmH9AWcKacuHdShLJEH7DRn3nMixBeFiY2MDeAPxOt80P3JO60q9k28rlziHpv7kfeZyy7kYg61GVjN5riOdFpw8Wu/88LGpOZ6QQ6ffH2pdr34Jq9qfUSy+4kQoPi6LRiAP1Zrin1KtOTEsayEACywuvP0Z7iBxFpAqFgIaEZ8UeOITjn18piABLUovDff/8VIXZhEoQDZAhCxPbq1ctUY0X6mbDV7ps3b4RJD3bbYTaEOSpFEiryXhIqchEEfxbWBN+XRvn6669Fkq1w59C8gbYMPhM8n70CctyWnwvtotretp1ZvlrOSrrm4chUK0MqD6RdF6oKbRq8KwO8J4qjdr6yNLraCEpJFiJV1nn22kK0SBMmmW48w8wFEl5zH30HZ57C3xDIM2g7QfMJAvM5aFVJwk8kfv5Ptgki0pqAzNuwYYPYRIFWD0hMECxS0IYkKY1zH6SgLTE6lEb4cgicWFsTqXWGd9DsmazVM0s/3nGvcIYLHyXNV7WmRYe96cbjR9RhfSf6p5beX9DyJjPJLYl+vmV2wI9K5mSZxVCk6SccrJdxLyX+nkjHuG7J9f2ADNrRxqKtpH0O4/xHXrFMOWlK7QnaYpQgtoX40iUqNxUzVSCYl+Lv3dAtI43ZfM8IMAKMACPACDACoYCAwxot2r6nTJnidMel2v74OmohgMgUWPxBHdyaGntoPrGXohUiBaQJHGxC7VrKFJ9p8lJ3LpymkIjqsOjXqWr6mpPe6nVoX9x5cYeqTPtOJVlgFlHELbsSUtQ8Sk7Lr5sr2isrqVSWAD8j+FE/YssMKjO9QqDhSf8YCHNqS+SiCH6YrAl2umEyYybwywDBzrUjgqgvEPiFsCVwtImFGnykwKQHi2SYUsDhptnYoYkHsUYuYBe+Zs2awvwITmyhLTBw4EAaPny4IDmkbxZbY7KWZ4aFXJzaek6pRWAtSou1/rTp+KysHWbj0tYNr+tkQfjDyK9EFzrT+SD9VKi6Et0lYJ7Ad0z+0SUUHxgWwkSO/90Hy5yS99bO0lwI0XGsiSTUoEViFETqgcjP1pgfnPug5inawHcntEG2bNkifJiAhFu1apXQmpL+WbR9yXfV1lyDo9zq1asL8gZhlTt06CDmfvHixbVNhco1yEmQPrbGgwheEPl9FBodw9fW/DpzVJ9B3mcs5mTatj2SZ6N8qfLqDiNprS1v7Rqak1opnrkolXUro02iTEn1REt0BRdj37g3k8RxEwUqi00Ca9KtfEeRdd7vtrrxYK0spzMCjAAjwAgwAoyA/QiEmGg5c+YMbd++XRdZwP5hcI0vGQGot0PgbFKqnjsTj8VHVormsSCrW6Ciesjd7YWHlqnd1/3vRxqxb5R6j4s62b9XF3NwOOss+e/MYuGEF+0PrtmZ/Hpdo/0tdlHrEs1Nu0R0l8RxEtGO37bQ8/7XaHq9Yeo4Eab6xjPzxeKzN5bFIBrFDi9CP2sFZi4QWyr7MK3Abrc0SdDWB/mBNqwRGtqyZteyntlCVlsei0csaOvXry8ccGI8cGILQdQeayIXncZ8zEv4sYCvCTgPRRs9e/YUPiWMZe29N1u4Q2MGIk0kzNqEXxmYSElMzMp8iWkLTi+kDZe8RUjdZ/1v0Ybf54sde2DxTCHqlp5droNFkosgG+V8x/npuwCNDVTA9xFIC1tzH0Qe5JrBlPRVZe8AAEAASURBVAxp0uwOTl9DKtbmKdqVefBjAhNMaJ8gqhUE5KBR5PyRmi3GfGhNwR9LyZIlxTPgXcA9/KmEBtEhw0vLfuFEF+8r/L9YE+krylYZa3VtpSO8tySdYzpIBttqX+ZlSaonWspmKk0g77WSObnlu1ab5qzrxvkakTQ3dVYf3C4jwAgwAowAI/AlIxBiogXRNeATwRgB5EsGlZ89+AhA1R0RK6A6jogYzhaYBSFiD8Qzb3laVG+BelTPU1qkw8/Djus7hakQHGZ2XTWUem3rLUgIEBH9dwwUJgoo7O6q34EUDQTxH9q4+dxXHG8/76x/UBZ8Mu3h60eiheuPA8xUvkpk0WKBc9ueqwMvnBDqefLO+VR6UlVadHYxxYsVjxrmbUCZU6VTR6ONZoFEOEqEXPS7Jcyl/j76D2UYlIMWKQSPVmDKhd1mmHfBlMZMZNhb6YhWltm1a5dwOCt9SMh0eYYDW+y4G304yHycpXkCFlrSjAi7/Fp/IlgIw4GyloxBPekI9NEjC6badmWkoUOHDqnJmItSEAEFYjTzgYmSNCmRZe09YyGLQwpwHTp0qLjFYtlMgBUWo4UK6RdnZmUjctrL9y/FXPd95qsO88mbJyINZ3sFTnj/XN6NWi7uTgN2DlJ8s7wVphGVspdTm0riojeRSZ3YVc1bfHYJbb66hTxG56E/1lr85KiZygWi8oAs1M4Nbb40e5HRiWQeSEfMbbw7UjNG5uGMTQpEtJJaL9o87XVQ8xQaX/CRIucr6kIzSUbZMiM/pSmUdu7DMbQMLy7bAokkNXbQLshAzMOQijGMOsz7IIhiaCYgZuBUF4RuSLS5ZNvelzbRsvMraKLPJCoyuaRMVjQGC6rX8mLdpfXiOxXfq9rjyhPrZk6yrvaMKEWSzEd62YxlhOmqVkMxS1K9BgqiDmn71F4/f2/RFJR93Hpyx7TsygurZRHdGWazbcs206XxDSPACDACjAAjwAiEHgIxQ9IUfvRjYYWFBwsjYC8CML2Q2iwuLi7CzMPYxgfFj4hcMBjzHLmfddRLrVYvTx31GhfNC/9GKxVTA8gUn+lUK0cNcY3/Bm+cIg414fPFgCp9jElB3g/dPZyGbtKbJyG6RMbBBURdzzwlaXWD5VQ5SyUat32OSGs0rz21i9OFnlgxz5l++B9RDvn157SmX6K3VXdpkQFzImM40kKZ8gn/ANjNzTkyYLExdf/f9FOu+qI9/ActETivRFQRONo0C3P7119/ic8PkURAiIAsAPkBIhbSv39/cdb+h0UeopNAEAJWG8FHWw7X2FnfvXu3cEwLR5uIhgKTJOzcY1EJ0zNE7IHmDCINYdcb/cv5pXW+KduGM1o4zYVPC5gIQWsFfcAfBbRKsOiDFkvfvn1FX2gTvl+k02bZjqNnPBNCUoPIQhjqixcvCp8yCCNtJqNGWTSrZEhoszKRIe23lS2ETwztWMdum0045NzX5gV1vfnqZgI5Cumzfqw4tHWwa+9pCNtbzr0MrT25WxRrMLetWvzukw3kVfuTzik0oveAXJg8ebKpbxDMdYRJ9vb2FmRxw4YNxXxBKGIQcngHpAaJ7AjkCExw8DcU804bwUeWkeeg5inmMEKLgxBEyGSQLjCzwZyCYDxGkXMMkY18fX2FY1sQqXjH8X0rHTXjfQe5AUfPIDZhNocxh1RatWolomsBO0RMguYYIobhe8RMYJ4MCY3QzmgHpJxRME8meI41Jit+rgYFSkPCkJpdqGvxzqZ51hJTJUwkiH6Q3DJaXNFMhQgR5CBGogV/F/B9biYn/tqmC9186vZ107Lw8/KkX02zJqhT8b9o2KYpur8VpgU5kRFgBBgBRoARYATsRiBEGi3YjYPA4SQLI2AvAlB3l45W8SMeO5bGA6FuQ1NWnlwrmsPOYo2snrqmq7pXUSNRrDm+RZANPu29KUPSZLpyuIHZ0awGo6mSW8VAeUElxIweM6giIr+ae1X6o8wvalmQKBh3mWwWQkbNUC7GVR1NQ7/tqu6YSlV4lEFki1W/BJhDyXpjqo9UtVpkGqK79K8YmDySCxw414RPHaPAR8S2bdvEQhQRyLC4g48H7MZjAZovXz5jFd3OtNxhD1TocwIIDyzEsKDEYhAkC0wZ5AIWYWGxGINTTvQL8gTkDhzWYve8UiW9M1U0iyg/cKoJ55poEyQLFnrSNAKaemgLZA7S4a8CpDLaBaEj/ZnIs/QvIc/wgwKRZzlWpJUtW5Zq1aolyKmuXbsKkgVhd62R1ggljcU+yBmzKDJoM7LIR0UDxZrE0rwbsaJb8EPZmDGsvzN4T9b/Po/gw8go2VKloa2t1irvdSJdVtvCrSn/V5l1aVhoj6zdT0eyoAA+J8y9uXPnCh8oukqfbxYuXCjISJAeICLbtWsnyA6EUTYjijEnpDPjoDQ0gpqnVatWFeMqUKCAmE8gFVEH5ml4R8xITmgPgkCCYLMEJAuc58r3BGNbvXq1GCPeLfQBszmUqVMngKCWjp/lnDee5dyX78hnuGjcuHGCtOzYsaMgWaClBaJURimS5XCG5g8IHmgGgUR1VKDBYRR8jyPiXDslPPnFrifU8M7B/Y7WthdTM1+16drrdElTi9sCbrnV5FJuASR3mgRpRHoM5Xs+uKLVkglOHe2z4b34uei3wanGZRgBRoARYAQYAUbATgSiKZEF/O2soxaHg0kslrNmzaqm8QUjIBGA7x5rpiayTGicXV1dCYsMZ8rdl3dp541dBH8m+VLnpTypcotQs87sU7YNU6IjfkcUe/oklN81v0KmWF90ws/EyXun6Pi9E5TcJRnldc1LGRKll00FOsOMY++tfeT34h5981VRsuU8sUePHoRFF3bvoVEiF1HGRrGbDlMLmEukSWNZOBjLyHsQbZgjMqKITDc746sKPi/Qr63yMH+A6QMIE7mYNWtPpsHRLepAs8S4IEQZ+LGAyQTMI+FrQy4uZX17zvBFgUU7zJxAQMFsBCZEML2yZn4JkxVoGGChCVM7Wz5c7BlLVCwLc45Ddw7TJ/9Pym5/Lt2Ov/F5/cmfENXr/MMLoizCRlsL24vPCmQD5tPx48cpdWrLgtnYJkzbMFdA8GE+ack1Y1nMe8xnaXZnzDfeBzVPUR6aMtAoQ/8w+7HVP8pj3kOjBcQhtAqNAhM9RMHCGRpdWjMiY9ng3GfLlk2QiniX0SawBKbSz42xDTh/hgYbvk/mzJmjCwttLMv3jAAjwAgwAowAI8AIRCQEQkS0RKQH4bFEPASiEtES8dAN+xHBjwq0OrDohGbFokWLgiRSwn6UEbtHI9ES1Gix8w/tBMimTZsEyRVUHc53DgKDBg0SocJBlMH3ijSvcU5vUbNVLdES1BMighKi0EGjDJo5MOFjYQQYAUaAEWAEGAFGILIgEHz91MjyRDxORoARcAoC2B2HiUGTJk2EmQ1MKlichwCIFZAs8JEBHxbQJGIJPwRgOgNTICz84V/FGDkn/EYW9XqGFhnmO7AG2cgkS9T7jPmJGAFGgBFgBBiBqI5ADOUHTN+o/pD8fOGDwDUl3Cmc2TpboCYflImKs8fwpbQP0wEQLDBfgT8H7FCz2IcAzC2xiEQ0G1uCOY33B5pDHh4etopyXhghAJ8+3333nTCXtRYdKoyGEim7QVQwkFTWogvJh5JmiV5eXqrDbJnHZ0aAEWAEGAFGgBFgBCIDAmw6FBk+pUg6RjYdiqQfHA+bEWAEGAFGgBFgBBgBRoARYAQYAUbAYQTYdMhh6LgiI8AIMAKMACPACDACjAAjwAgwAowAI8AIMAJ6BJho0ePBd4wAI8AIMAKMACPACDACjAAjwAgwAowAI8AIOIwAEy0OQ8cVGQFGgBFgBBgBRoARYAQYAUaAEWAEGAFGgBHQI8A+WvR48F0oIgDHh2El8ePHD6uuuB9GgBFgBBgBRoARYAQYAUaAEWAEGAFGwCoCTLRYhYYzGAFGgBFgBBgBRoARYAQYAUaAEWAEGAFGgBGwDwE2HbIPLy7NCDACjAAjwAgwAowAI8AIMAKMACPACDACjIBVBJhosQoNZzACjAAjwAgwAowAI8AIMAKMACPACDACjAAjYB8CTLTYhxeXZgQYAUYgwiDw/MwZenzkSLiN59627fTG1zfc+ueOGYHIgEB4vief3r6lO2vX0YdXryIDVDxGRoARYAQYAUYgyiDAPlqizEfJD8IIhA0CFx9dokk+U0w7q5i5PNXI6inylp1fQTuv7aKWhZpT9uQeuvJLzi2lrVe2U/dSXUX6kF3DdPlmNz1KdaOvEqaj/jsH0t0XfmZFRJpntmrkmaU67bi+k5afW6mWi6ZcJXFJQg3zNSD3JO5q+qn7p2iyzzSqkLkc1cn+vZouLy48vkiTD06lWh41qZxbWZkszhN9JlHlLJUpW9KsunTcXHt6jcbun0AeKbJRq69bBMoPjQTvAoXow4tX5HnhNFE0PGFg+fDiJT3ct5ce+xwil9SpKVXFChQvQ4ZABa/9M5Pev3gRKB0J7q1aUvTYsXV5L69epc0ly1OaSuWoiNdMXZ49N3t899Li00vVKjGjx6BUCVJRzaw1KEeK7Gq68WLjlU3UbX0vqlegDnUr3kWXjTny6PVjkda/XB9KFDuRmn/5yWWacGCyuC+eoRjVy/GDmmfPxaBdQ2jpiRU0ynNYoHmx7dp2Wnl+tWgudUJX3fiO+R0nr2NzRF6bwq1oz829dOzucbVrl5hxyC2JG32XvRa5xndV0+292HRtM609v960mvadDO57euHhRVp6ZplpezIxXqy4NLLScHr4+hH9b1sfmWx67lCsPWVNloX+OTaLTvqdUstEV+Zx+sTpqWmBxpQ4dmI1HePcfPn/7F0FnBVVFz90l3S3dIMgBiEgaQACCih+KgqKICoi0qWiqJSASIOUlHSnNOzSwiIs3Z1S77v/87izM/Ni33sb7C7n8HvM7fjPndm5555YQW0rfEjFMxY30nVg4aFFtPTf5fR55c8oZ6ocOpmvny35nH56+UeKp/7ZSeNUr1Adqpmnhj07wnFfn5MrQUF0efsOZog8VaE8pX/2WY99371wgU79NY8e3r1LWerUpuS5c3sse+yPKRT0ZRcq2aML5W39gcdy4WWM2zkhoHXq6TnBGumzth93myllRuryXGfLEBb/u4QWH1rKaW+XakFls5Sx5EtEEBAEBAFBQBCI6QgkjOkDlPEJAoJAzEIg9FooDV7t3CjaR3b+xgWD0TJzz2yasm0hbQrdQps+XGcp+tf++TRpy3z6tOIndObmGRqxbqol312kSfHGzGj5ZeUIuqJOaT0RNqpgtKw8ssrtOHstHkyV8halqc0mUa7UOSmNYr6g/8X7lrtltAzZNIyGrZ1Mz+Vy3fj8uGow/XPhIA2tM8hlOP9ePsL91yvxfJQxWu6cu8j9Oh4+pHgJEriM4dqu3bSuUVO1ebsdltetN5Ub/CPlaNQoLE2F9n73o7WcKTd387cocYYMphSiB9edTJm7l69Y0v2NLA5Z4vY+dabv6YUCJWley9kWRoluf9jmERR84jAdvzjUwshA/sELh+iPrQu4KBg32Pxr+nppV/ozaDlHizUpqpP9vv6yarhiKNymnzYMcmG0rDiy0jKn2vlfptKZS3EfO04HGXkdKrWjEZtG0ZbQf1z6b0vfULsqLWlQ7Z9c8nxJmLPvLxq+borbomWzlTGYn74+p0vVpteX5xRYX/nvcrhlXy/6KjNaxm6dQBsOhzFa9IA7/9WfGpapRZMbjaf48eLTpVuXuM3bd2/T2Nd+18WMa6eF39C+08ep24vfGGkInL15lgap91XN/DWoboE6ljxEloQs5ftR4Kl8UcJoCe85eXjnDu36ugsdnT7bMjYwMCuMHuXyXF9Yv57+btrSKLu7z3dU+ttelPvtt400c+D+tWscvXvlqjnZ73Cg69TTc5I+2VM0Z+d8Onb5Eo+lYvaK9FKeasa43p/+MZ265hxz+0qfGOkSEAQEAUFAEBAEYgsCwmiJLXdKxikIxBAEcOp7r/8ZHk3BgcXppPpQvtX3FMfdnRhjEzk/ZIHBgDFPI0G8BPRcjufoVNfdRnLftd/Sr2v/oJ9e70bNijUx0tMnC9vo50r3FAV/utnIMwdSJE5pjtLXNT+ixsUa0YOHDyjkUgj1Xf49bTqyj96a9jat/2AVn34XyZKD9p85QZBesUunzNm5gBLFj68kWl6xtLvr3G7eJPyxeSYNqfOL29NyVEieKLmlXmRGkufKTtiouWOy3L18mZksSTNnpNIDvqU0pUvThdVraHv7z2n7p19QurJlKUXevDwcMGrAjMn1en0q2r2byxATPfWUS1ri9Ok5LUXunC55gSbkz5iZrty4xgwMtLHu0C5qMPF1WvPeCkuTDxwPaMW+DZwGZsfyIyuoRt6XjDIDavU3GC1DVo+nblW+YemIc7fOGUyW9MmS0Xul3zXq+BPYfGqLMcalezfQ7fu3KVnCZB6b6L2qL81qNsMlP0Ui61rFOjx64Qzdun+fyw5ZM5EypshAXV/o4lI3vIShdQfR4Do/0417NyhdjwJUIXch2vDhGq4GxoWdwntOu1fpSp89296oVntsA9p1MpT2fbFeSYo5JU/sz3+Tci/TiPpDjTrmAKTLzLT4gz/UXDPSrXu3aPup7dRz4fc0bftiKpyxH/Wo0o2aFm9Crad/RXODFxO9Zq7pZKaAyYI5YgNvprE7x3N0yMZf3TJadNnkiVLoYKRew3tOHt5/QFd27aF877xFed99l+Kpd83+AQPo5PwlFDJoMD3d8TNjPP+dOUNbP/qEUubNRaV/+I4SpUxFOzp0pOCve1DKggXdSsEkzuh8bybLaZXyMRoNIODrOg3vOfmufm96a6KTifL5/E4U/MlWHs2M/X8aTBYwqvOmcb6nAhiqVBEEBAFBQBAQBB4bAq5fW49tKNKxICAIxBYEwCDBT5OOu9vAoUybmR3ooeOhLm65JoqfkLKkyGL8Uj1ilGRInsFIQz7KaUqopDewUXP3M5dD+QIZClCZzKWpfNZy9GaxZrSl7XolIZGYT9GxYQc1L9+Ur2N2jOWr/g+Ml5NXr1CNopUocXyr6sxv252n6pCuWRCyUFeJ1muilCkoeU73jI7E6dJRyb49qeLY0ZS+cmVKmDw5Zalbh0r06sZjPLc8jHlx//p1TkuaKRMlcfPD5s9OCVI5mQTJsma1ZwUcX9hqDp3vfoy2tV9KaZMk4XbAbNl6epulzfkKb82MQMbIraMs+dlSZqNWzzp34/cUE6nHqt6cb1ZR+6JGO5aUsFT0MTIuaIJREu1P3u1eckQXmrNzNUtW6Li7K+a7t30Q3ehzmn5v+oNR5Mflw+jOgztG3NcAmB54LhPGC3tu9HNqZ4joNr09pykUI8L8nCZKkIirZU0V9uzaVZ1SKCaju2fUzmRBQ6WzlOLn9LkclenTZ9rRotZONaWZu+ZyP6kUU6rK02VYmg1qgWb6Y49TIq55WedzbM6buNV5b5bs20TX7jqlO8z5UR0O7zlJqJ7hKksXUYn+/RSzpAClyJ+Pyv06TD2vyejsaus8j076g+5evkplB//MTJXUJYpT0a5OJty/I63PgJ5XwuROBlKybNl0UoSu/qzT8J6TZkWbUp70TkYQmHZLDjtVhfos/84YY98avYywBAQBQUAQEAQEgdiEQPyIDHb+/PnUuHFjKlq0KL3xxht0QowiRgROqSsIxEkEimfLzcyKHzcFpgIR2aBgw5gxTTpu9tSN03xtVcopdj89yCq+PyF4ojO/bEuXYczYPledwDs3MUM3DXfJj46EBImTUNJHJ9bu+svZtAlv3sx5aUuX4uidc+eM5HtXnSL6CVKlMtLCCyRImpSLJMmYMbyifufDHsOkFmEbxz6r+lvamBg0yRJftHsN3X1415LW/6U+LImExOFrJ9GJ6ydp1Po/uAwYbR0qfmop709kTrCVsfb7FiuDzl1b360f4C7Zbdr/Sreiti++xXnXlB2O0UHht++2IT8SY9pzWjRjUR792asXjFm8Xa45h8cGOaVUdMa04D852LyEM1+nH712lCXV9HM6asdonRVtV1+eE3cSaRhgohTJLeM8OnMWpS1RhKXRkOG4d48O/Oh8r55etoruXrxkKY9IAiW5BfL2nuACAfwX3jr15TkZUL+v0fPn8zvTxpObaM+po5z2XP7iVCpTSSNfAoKAICAICAKCQGxCIGBGy/Hjx6lBgwbUpUsX2rZtG126dInatGkTm+YuYxUEBIFoQGBQgx+5l94LB9LVu84NfTR067ELGEP99/xZ3oTDuC4IEhDYaIZevED/XDxg1J25c65btSFsBs7fvEmfVW/L9Zbu2/xY5lbhtxFU6vtvjfH6Eri4/m8ulqpwIaP4/Uf2G87/vYG2t/2YVr9Ui7Z9+BGdXbbMKGMPwDhujbUrKGezZvasSInDnoaWatl/5qDRJiSjFu9xnvRXK1SW0yHdMn2fc7OtC0L6otWzjTgKqZNyg54zpGDavNiKkiRIoov6dd1xJojO3nBKAOn+oXYDWyB2gspZneKVORlMnv8eeLYtZK/7yTNtjaSg08FGOKoCMe05HR/sZKbkzZjTmHKTIo35efwreImRBikV4O9Obej37U4jzXPencr1Rm2MeoaVMbBHAX+fk3tXrtDOL75kVb6sdV42mvvv/Hm6dewkZX7xBSNtbx9l9Dl4N6UpXJDTboSEPSe6UPqKz/BzmrJQ2POu8yLj6mmd+vqcNC7ciJ7O5JSKg/rXa2PD3if9X+4TGUOUNgQBQUAQEAQEgceCQMCMlgULnIYGCxcuTMmVSHpWJT5+QVnCFxIEBAFBwIxAnnS5qc0Lb/Im9/MlncxZAYcPXzhPWfvlc/nBM4mdZu2ZQ/3//o76rutPree3oQq/VOEibV9sYbGr0rycU+1gbNA4zj+tpF0OnD3lVm1o1HbnyTgkYT6o1IrLj9w+iq/R+V/S7NlcjNR66//GoX9p3w8/U+J0aShb3bpG0buPjE5e2LiVru7dr7wTZaazK9fSplat2U6EUdAWgJoDVB+iinKkz8JNn7962egC6gVabah/rT7KJofzxP73ra6b6L7Ve/MGG5XBGAOB+aG9XXGCn/9paQq0M+KVYUbt33c4N/VGwqNAz+rdOIQxD98+0p7tMV4o/dNGXuhF5wm/kRAFgah4Tqdtm+fyjOK5vXDbacTZPI2fNv7Cz2mP1b2o6Yzm9Pmc3pzds0ZXoxik0V4o6FQfWn1sDafP/McpheZObWjy9umUPU1aejZ7JapVrDIdPHea9p7fa7QXXQFfnhO4aV9ZpTotLFaGDeMW/bKDxcDt7VOneLjJcjiZw6fnzad/R0+gvC2b0dOfOA+5bj0qY55XfPV8oH9PUjPmsoGEPa1Tf56T7+s5vQ+hf/2cgvH9Qs7nAxmS1BEEBAFBQBAQBGIEAgEzWqpVq8YTqFOnDk2dOpWWqZPPvn3DREBjxOxkEIKAIBAjEPi2Rl+2izJmwyxlkPZQpIwpZbLkZP+lSZLGpe0Fu9dT1/kDqfvCn+n3v/9kGw/NK9Rjd6/mwu+UasnRGcFOZs2k3U41k1Y2tSEHOWjOjkVUMnsetlnxjmK2YNM9auM4c3MxLgwmy99vOD0QlRvyC2EDpimJ8iiUrmQx9kZUfc1KqjR5IlVbsZgZMvsG/Ey3jkb9Rl+PxXxNndSpygT1GU3jH6kNQf2nYrZnqF7Jmpy19mAwXblzRRfja0Zl5+f956x2O96t3NitFyNLRS+R2cHzObdKoXLsNUfbmBi3dbLbWhWylue1gsyBK4e4LeMuEXZUsK5Al26GMZrclY2stOh4TtOmSEVJlGcwOw1YPoqf0z5LhtKMHUs5e0ij3gSPTWZ6u1wLjo7bMYGvU4Kn8dWuNrT/wj8sofZG2Vc5v23FD/k6aLN747yc+Rj/S6ieRzA4NZ1esozunHQyV5B294KTORUvYSK6+e9h2tGxE6Up+jQV79WTkii37aAHHtyzc2YU/edpnfrznLz6dAOCgV0z9Xm5hzkqYUFAEBAEBAFBINYhEDCjpZASQ12+fDmtXbuW3nzzTfr888/ppZfCvD7EOiRkwIKAIBBlCKROnJq61/2S2289N0wlItAO82XISCEd97j8zO5Bddvf1GqrPHMsp+nvjOAkeLaZ2HCcRZoFGVA1AfNEqw9ND57JG127t6Flh5czsyZfhjw09+A8WhW6hrKqU3OoI8ETUUykGyGHaN1rjQjuoJ/5bRhlqlbVMsxUSjLxxUXzLS6fk+fKRUW+/IzLXVi33lI+uiJnr5/nrrTUCphci3ev4rS0KVLSmOBxlDBBQmM4Y3aOM8I60LtaT4NhgbSeVZ0SJjrfnyvur3Y5C8Oy6D9TKqcxT9x/s9qZud1uNb7mKAwrLzq42JzlMQwDuFB5AuVI55Ri8Fg4kjIi+zltWr6ByzO6v8NOgmFbOy35cAo/p59WddpLalnpNfq4vFNSw1y2SdEw9SGoYq05sN2t2tBvjyTMMiivTXhO79z/j5uZvvUvj4a5zf1EdzhVkSJUedoUanBoHzM8L+/aS7u7hzEbEj/ltCt17Z9/aGvrj3h4z/z+G8VXRpTvP2KwJFHvxegmd+s0kOfk+7phB3XwKgfmi5AgIAgIAoKAIBCbEQiY0XJTiWEPUC4IW7duTS1btqSvvvqKOnfuHJuxkLELAoJAFCLQ4ZlPWYx/zcEg2nhkaxT2ZG06X/p8VDpzKYItgMr5ijND5M9/ZloLPYq1LP8Wh37ZNJi2Hwtxqzb0+7ZHdh92rqbXx/6Pf8eUi2vQ4Bh4Wn5L2dP6u0kz9lby7KSxlLVemMoQD9rLf6kLF+Hcm0eOeCkVNVmwvXHsopPRkjVdJu5keegK5TnGKd0CzN+f9iVBSkrTmM1OKQcdxxXuflM/8mCUPKHTw5U535/wuEd2Q1AHXmzQP+yDaBq+1b1qUKPCDSlbaqe01cygFbq41+tqxcDTlD99Xh2M8uvjek5h9BTP6bcvOaXfJm6aQ2dunnGZb9IESala4QrM7Oy8vAszo9ypDU3dNpvrQpoNz2mjce9zHOtnthsVQ5eOHlMCJM1yNGpEOV6tS+fW/s0GbzEU7V0M6kJX/wlRNocGUvLcuXmUt46E8jVp1ix8jc7/3K3TQJ6TEpmLG8POnymPEZaAICAICAKCgCAQWxEImNHSqVMnunXrFo0cOZImTJhAbdu2pe+//57OnHH9MIqt4Mi4BQFBIPIQgOvnoQ1/4gZx+v84aGC977nbTvO7uu2+ZcnmnP7b+ul8tasNwR30wt2redO874v1pH+7Oq5iqYk/t80n7TLabQfRnOh48IC2tHqPJVnAZLFLspiH43gkPWFOgwFOEFSLopt6rOplSHTULORUVR2/Y5IxjFdLVaXGZWrwL3PKVJwOY5qhV0ONMpEdmLFjLjcJho3uG1et4jN1WxjTx953x+qf2JM8xrGGuizubuTXe9p35phRKcDA435OkyVMpoxMf8T3vtNSpySQfSrvlHWqDw1a7WSs2dWGtp3ezgaLsUb0M4rr5BZO1a2hG0fYm4xx8fhKbez+rdv03znnM5hYPYMp8+biceb/X0t21a4HfVq5aoc76DQlS+qkaLl6WqcReU6iZeDSiSAgCAgCgoAgEA0IBMxoWbVqFb38cpju9IcfOvWfT7kxxhYN85AuBAFBIBYgAHFweAd5XASbHnAZCvWg8budrpvNY8mUPBOVyZmfk7B5tqsNQQUBRk1h96Fw+kLGr3jG4tSgZFWWtpj1yDinud3HFT40dBiffpfs1dUrk+Xixo20/LkX6b+zYQwwMF4OjxvPQ09TskS0TCHkUoiSNphLjac1Jb2JBlOjxyN1n4W7lvM4IB0yu9kMmt5kCv+61/7KGN+Ibb8Z4cgMQC0Iqj+geiWrG31jDHVLvMjpMOS55uhaDtv/a1v+I8JcPNFdxRTbc34Pr8tSQypQ8InDXLR0jnxUI2/0quU+7ue003NfsE2nSVvmE1w026lh4dcN5pY7b0O/bf+dq7R5prXxjOJ5fbNYMwJTDlJ17gzy2vuJjvjDO3co6JN29NBkh+jWiRN0bPZ8Zp7A4LWmvC2cEncPbt/WSXRu1Wo6//dmytXo1SgzeGt0pgLhrdOIPifmviQsCAgCgoAgIAjEZgQ8f/WFM6vy5cvTpk2bjFK7d++mUqVKUdmyTnebRoYEBAFBIE4h8PeJDTRzn/Pk/tL1a3zy3HlFF55jkUxF6J0STqOynib9W8NfqczPEds4nrlymd78030/b5dpTnXy1/bUPf1Y93t6dkg9+mZ+L2pZvDnhBN9MUB8KOt7HrdrQ6G1juWirMu+Yq3C4XaWPaVbwShq2aSS9odzQatrw7xZ6d45TbUGn4Zo4YWIaWf9Xc1KkhmHAFoZsQXdOn6b9/fqHte9wUMLUqangp+047UZICLuOXfnSy1Tgg/8po5xZ6Pis2QQvRJlfrEzpn3surG4UhuqPftvSOhgTE1oMZ+O18DJz5T+nnY3axa3rp4WSROowqzuvxUlbptN3L5nmamkx8Ij2RoUWmpRoZGmodYX3aK5SJQMN3/obFVDqanaCysv7z79Fgx9JYdjzwcAr+ZNTckfnwVbFH80m6KhfVzASd57eqTbG97jesYunSD+nkJAJz6NLZDynq0LWeXxOv6vVl3Kndqq+2CcGqZaOL7WhnosG0ReLv6IZTaZaisA190tFKtLivRvJndrQ7B0LmFFTM18NSz1E3qnUjGB4d6RiyH3zQpjEzG+bR9O60PUu5UtkLU4dK3ZwSY+shJAhw5ipcnn3XsrZ8DV6eOc/OjzRaVi5WOcvLN3katGCQqdMU78/6d61a5QkfXo69uccNlr9dIf2lrJRFQlvnfrznFTJ7WRQRtVYpV1BQBAQBAQBQeBxIhAwo6VXr17UpEkTKlq0KLt2PnfuHI0aNepxzkX6FgQEgWhAYMvJrfTLKqekg+4OGxdQpbxFDUZL/HjxdLblClsMb5StZXgWsWSqSML4ztdS4gSJ7FlGHB/707YvNuLmwNMZCjCjRbeTKL61HS3V8ve/TumBd0tamSYtSjSnjrP7kF1tCIZYlyu7HJCmwBzshE0DTsvh/Qb2RfT4IQUxfrNT5cRcBxIzUcloubZ3n9HdwRGjjbAOZK0ZtqnP/fbbSj0oI+37/geDOYNyuRq9QsX79NZVouUK5kqejFmpbM5SNKDWt2ykGB1P3e1U50L4zRLNcDEIxlXhBWj5/q1srBbGOEtmilwpnLm7F3B/uG/1C9Yz+kYAnnHgBQn2P+bvXEFf1nAvtfX18508Mlp0g2mVPZmCWfLQS09XpV5VYcg3sD/TU4Onsx0Z3e7ZG9eZwYB44gSJDUZLoM9pgvgJuOn4yiiwnfSzB8mx0Ivun9MOldsxoyWBwhOUIJ51npBq+WnFcIJNm+N1TlDOVDks3bQq19LJaFHPq5k2ntxEF5XER5NyL7sYvEa5j59pyzhM3DaFGS36/QBbO2Z7O7rNCrn/iVJGS8H27RTT5Cr9O2ai8exBDahE968pz//e1cPgK1ypV54ymba1+ZhOLljKaWlLFKFS3/YzPA9ZKkRhxNM69ec5oTB+dBSOVJoWBAQBQUAQEAQeDwLxHIoi0vWFCxfogRJ5zpw5c0SakbqCgCAQixC4+/Cu29HCEwt+sZ3O3TpHGZJlcJF2ie3z8mX8dy9fpjsnTlLy/PmU6kJyX6pImRiIwEPHQ7rvuO92ZAkVU8MuyeW2YAxOxPwu3L5AUPeLCwR7SjcOHKAEqVJR8hyKqeSBUa3n+p863HqgGHtcVifKVRAQBAQBQUAQEARiDAIRZrTEmJnIQAQBQUAQEAQEAUFAEBAEBAFBQBAQBAQBQUAQeMwIOGV2H/MgpHtBQBAQBAQBQUAQEAQEAUFAEBAEBAFBQBAQBOICAsJoiQt3UeYgCAgCgoAgIAgIAoKAICAICAKCgCAgCAgCMQIBYbTEiNsggxAEBAFBQBAQBAQBQUAQEAQEAUFAEBAEBIG4gIAwWuLCXZQ5CAKCgCAgCAgCgoAgIAgIAoKAICAICAKCQIxAQBgtMeI2yCAEAUFAEBAEBAFBQBAQBAQBQUAQEAQEAUEgLiAgjJa4cBdlDoKAICAICAKCgCAgCAgCgoAgIAgIAoKAIBAjEBBGS4y4DTIIQUAQEAQEAUFAEBAEBAFBQBAQBAQBQUAQiAsICKMlLtxFmYMgIAgIAoKAICAICAKCgCAgCAgCgoAgIAjECASE0RIjboMMQhAQBAQBQUAQEAQEAUFAEBAEBAFBQBAQBOICAgnjwiRkDoKAICAIRASBXbt20bZt26h8+fJUsmTJiDQVqXXPnj1LCxYsoBIlSlCFChX8avvu3bs0adIkSx1P8zt58iQtWbLEUrZBgwaUMWNGS9qTFgkJCaEkSZJQrly5nrSpu53vzZs36dChQ1SqVCm3+ZIoCAgCgoAgIAgIAoKAIOBEQBgtshIEgRiGwNLDy6jzoq7UpEwj6ly5k2V0q0JX09wD8zgtS6rMlvzgsztpXPAEzvu4Qhs6d+sczdg706ifMH4CypQyEzUoWJ+KZChspEuAaP78+fTNN9/Q+PHjYxSj5cCBA/Tee+9Rv379/Ga0YFOMumZCO+4YSZs3b3Ypu2HDhieW0XLv3j36/vvvqVu3btSsWTOaMmUKwzh69GgCU6p9+/aUJk0aM7Q0a9Ys2rNnD3Xt2pXix4+bwqILFy6kJk2aUKdOnahXr16UNGlSCwaxOXL69GnavXs3gbmZN29eqlixIiVKlCjCUzp27BitXbuWMmfOzG2mTp06wm1KA4KAICAICAKCgCAQ8xEQRkvMv0cywicMgWGbR1DwicN0/OJQCyMFMKw4spIGr3YyUxCvnf9lKp3Zebq843SQkdehUjtaHLLEiKOsps70Pb1QoCTNazmbUieWj36NC67Jkyc3R2NMOFmyZH6PJW3atHTq1CmuN2/ePPrwww89tlG3bl2j7Ndff80MJ4+FA8jo0KED7dy5k1auXEnx4sULoIXAq5w/f54+/vhj3ugOGTIk3IYcDgc1btyY/vrrL5Zw+vLLL406qB8aGsoMGCPxUWD69Ok0bdo0An6BMlpGjRpFU6dOpZ9++ilGSo0UK1aMChYsSAMGDOB7uXr1akqRIoUdCr/iYFxlz57drzqRXRhMMvzMNHnyZOrZsyevG3O6P2FIlC1evNioAkYumHeFChUy0iQgCAgCgoAgIAgIAnETgbh57BY375XM6glA4IHjAa3Yt4FnevH2bVp+ZIXXWfde1ddtfopEKS3p+TNmpvSmzfq6Q7uowcTXLWUkErcQAEMja9as/Hvqqae8Tg6SCbpsypTWteO1oo+Z48aNI5zsRzeTBcNDvzNmzCBI+PhCXbp0YSbLG2+8QevXr6eyZctaqkGVKKrmMXfuXGZghHe/LAOKxkjRokUpKCiIGjZsyKp2TZs2pQcPHkRoBF999RUzbiBR8rjoyJEjzOyBVBuYXPXr16fr16/Tzz//HPCQoIoIJgsYU/3796dPPvmEGXDfffcdXb16NeB2paIgIAgIAoKAICAIxA4EhNESO+6TjPIJQWB+yEK6df++MduRW0cZYXeBOTtX09mbZ91lWdIWtppD57sfo23tl1JatVEEgdmy9fQ2Szl/Iti4Hj9+3Khy8eJFunDhghE3ByAlgA0vTq99Iahu7Nu3j27duhVucYxj//79Ed7whduRmwKY8z///ONz37D54QkjNA+cDh8+TEePHnXTm2sS2sImEXjFVMLYsLHMkSOHT0P0FdOHDx+ydAnmD9w80eXLlznLl/5hqwcb4SJFirBUD5gq0Ul6rNmyZQu3WzA4oFrmbT2hEajCXLlyxWgPz+F///1nxO0B5B08eNDjmoYEC6Q9YO8H9oMiwoxA32BEAHdIDkFiCPc/uqljx47Gfc+UKROri2FcJ06cINg6CoTA3IPq0RdffME2fipVqkRVq1blZ3XFCu8M9ED6kzqCgCAgCAgCgoAgELMQiBCjBfra1apVY0ONb775Jp05cyZmzU5GIwjEMgQmBk2yjHjR7jV096H3D/3v1g+w1PEWKZulDE1qEca86bOqv7fiLnk4ccdpfs2aNQmSDzASCnsV7dq1owwZMrBNjx9//NGod+3aNXr//fcpXbp0lDt3bt5sQ6Vl0KBBRhkEfv31V24XGzhsuGCEFWoK2NTBLoaZYDMDbcAeBgy2Yhw4acdYNm3aZC4aoTA28m3atOFx4dTdTGvWrOE+MWdsyhMmTMhqBmaGB8YHrNDGxIkTKU+ePPT000/z3Fq3bu3CHICdGDAD8ufPz2VRfuvWrdytmZGAcQ0cOJBVGoBTvnz5KHHixNyPL4wp8zyiMgw1CcwfYwPBTgXi+JUuXdqla18wRSVg0bt3b4LUB2xpYP5YXx999JGFMQf7NOgLaxXUp08fo39IF7ijX375hZNHjhxJgahruWszvDQwijQusIsDwnrSaXZJD9xjrCmUKVy4MK8nGEqGapYmPEOoD8mMLFmyMD5jxoyh5557jp9DYLZ8+XIuDpUZlIVNmubNm7PdFai2pE+fniVNsN7sBAmomTOd9p/AaDGve3vZ8OI9evRguzZ51HqHrSC8T/DMQ6LETGAWQbXK22/OnDnmKj6HNdbmCmBkQQUMef7SuXPnmKlcuXJlQ7UKDC+oWoH0lSPynyAgCAgCgoAgIAjESQQCZrTgBLlevXqEDcj27dv5VA2bHiFBQBAIDIGHjoe0eM9arlytkFNdAdIt0/f96dJgIrUBqFO8MqePWv8H/ffA8wm1vXLdAnUMqZb9Zw7as73GtZoAGAAwrFq8eHEaPHgwMxJgnwIbOPMJN8pg01SrVi3CJhabYTBPYLPjzz/D5qU3arClAUZNy5Yt6a233uKxgFGDU3hNOHGHhMRLL71EO3bsYJsYzz//PNsY+d///kfuNoa6rq9XjAcMnREjRvA4+vYNU9GCnRGcTOPkvXPnzmwoFafVMA4KaQhNehwwpPr222+zBIA2oorNImx6aIKaAd6f99X9xoYXmIGJgtNwOy1btozTgTXKQt0B9wFjtTOE7HWjMw7mF8aPewKChADi+LVq1YrT9H++Yory3377LWFzXqZMGd7sgylSrlw5whU4a8L6QF81atTgJFx1/7Vr19bFjCsko8aOHcvjfOGFF4z0qA7AOKoelzawq+MwOgumopnwdxf3Gs8UVLK6d+/OajyIa4kYLbGCv9NgyqFdMJ4wR9iAge0ezcC8rVQUQVjLUAvCmgLjFM8Y1lPPnj053/4fGJt4TtEWpDciQmAY4RmDfZucOXPSqlWr2K7OH3/8QXfu3OGmMU4w47z9IoOBgXccGDaQLMMaDsQgLnAHYY2C8D4BriAw8C5duhQp7yluUP4TBAQBQUAQEAQEgZiJgDodDIjUpsKhRGyNusrYImS3HYrpYqRJQBAQBHxHYOGhRY54nTPwb9PJzY4MvXJyuMqYGkYj36zsxmmJu2RybDm11Sj/8+ZBjtFBY434uZvnHV1XdjfiBy+GGG0gUGJwOc5L0z2bJT28iDrF5uf83Xff5aJqk8dxxWDg+AcffMBxZYCU4zdu3HCozY+l2X///ZfLqNN2I10xYTgN75Dg4GAjXXlw4XS1iTbSXnvtNU5TkiQOtRk00hWzhdOVOoWR5mtAMYS4rtowOtRm1PHyyy9zXBmQdSiGiaUZxdRwqI2rQ6n3GOlqM+jAeDB+JXHA6UrCgONIM49fqQ1wumLkGPUV44bTzO9PpbLgUG50OV1tlo2yCChpQofaEBppKKsYLzwuI9EUwLwwDswzPFLMLi6rpCvCK+pTvtq8c3t6zbir5CumqKvvs1JvMZrCPcK92rJli5GmA8rmBvevJGx0kturYtpxOcXccJuPRNwP8989c0Flr4Tr414ESlhXuI+eSD9/ihFiKaIYLty3MrTK6cjH/UY66MUXX+T4xo0bOa6YXrxeEVEGWzkP8zI/T4qZyuloR0locD37f0pKicsoCSF7VoTieAcoqRyHkrBxKKacQ0n9RKg9XyrjGVaMUIdiHnG/ePco5o4vVV3K4HnD2PU7YujQoRxXDCSHYkRzWL8jXSpLgiAgCAgCgoAgIAjECQTiq4+ogAgnTjCeqAliv6BDhw7xVf4TBAQB/xAY/0htKHXixFQx2zNUr6RT5WHtwWC6cueKS2MVspanktnzcPrAleF7UzE3kDppKo5eC9D+QJUqVbi+NpwKiQ6QVrfQ0hyQXtFluYD6D5IYsIMQGhqqk4wrJF7UZtaIqw0ih80SLToTJ+1mV6laCsFsN0aX9fWKk2aomixZsoRd2EJywKw6APVIqARBZTJVqlQsQQApAqhzaMkJ2M0wE1SLoCqkSY8T9h9A6i8J4SQeczUbXsVJumIqGWU48Oi/OnXqWDzboCzURyCFEJ7NDnM70RHGmEDAyx35iymkd0AwyAqJB0hp4B7hXgEDO2n7JJ761+XVZp6DUHF7HIR1AKy8jRPrEgTJHaw7/YM0C8isPoQ41ilIt/nMM89w3J13LUhUmZ8n2GBp1KgRl4ekizvS9wI2XSKToGKH5wYEaRAt1RKZfdjbwhqC5E+CBAk4C89noPPSax5t4dlWDC527QxJOKhkgWKSmh8PSP4TBAQBQUAQEAQEgUhFIGGgreGDDS4e8ZEMHXBN5k2JTpOrICAIeEfAQQ5avHsVF0qbIiWNCR5HCROEPZ5jdo6jjhU7uDTSrcbX9Mb4D+nk1Su06GCYG1GXgraEs9fPc4rZE5GtiNeoZqjo513b4bBXwgZpwoQJ7DoVRmPNRl41k8Zcp0SJEuYo25ZAgrtNib2sVrFQUjSWNvyJmF0g682ruf7evXs5CtUCT/YgoHJgtkGiN6O6Ha2KAAYBSDOGNLNal8PVnVFUbMjhzQQ2NzAeqG7ojR3quMMK6Y+L9P0wb+LNY/EXU3hwgfFU2DOBTRHQK6+8wmonmuFnbl/jgU20N4IbaNDj8vijVXg0U8TdWGEgGuSOoYR08/OFuH5OEQZ5czsNBqidtHoWDlDcPQ+wjQPSa9he3984GLRgJkGtDgwW2CwC8xXPBuLh2YGD7Rio3AVCeIdB/Q9jgOoPvA9BjVHbGvKnTb3WlYQVq7fBlhPmAdJMI42dP+1KWUFAEBAEBAFBQBCIPQiE7eT8HDPsJsAmA4zr4dQLEi4g8wbDzyaluCDwxCKwPHQFaemSY5cv0fvTvrRgMWbzBLeMlkaFG1K21J3o1LWrNDPIN08W1+5eo2MXnZvKrOkyWfqJzAg2LDglh9FNSKlAAgGnudjQYAOj7b2Y+4SBT1/JXlYzfXyt764cNuPvvPMO253Bew02YMwbUGz2QNh0ahsy9nbsm2B9Qm4uZ97063zNeDGX0wZBwVzRBKOusFECJgzwhWQhJBTA+NHGVHXZmHDV9kLs90uPzV9MsUH9+++/2Q0yDLLC1s9ff/3FP9gKady4sW6ar+H1rwtnz56dg+6kp3QZMMl0ezpNXzVDSd9Pne7rVXu38YQT2tF9w76Ku360tISvfZrLuetXe11yl4e6mjlklm41t+lPGLbeximbM5DSAYMItn209BfagVFguN72RmCSwWZURAjMKBjixvsK9pXAINbSNb62mzlzZi6K9Yn2YP9GM1i1cWNvDDVf+5FygoAgIAgIAoKAIBBzEfB9V2ObAwwbKlsLpHSp+aRp6dKlbOyxQIECtpISFQQEgfAQGL9jklHk1VJVKVF856O5LmQznb1xnfadPk6hV0ONMuZAx+qf0Bdz+pmTvIZ7rOpF9x55EqlZyKla4LVCgJlQ5QCTBQY9tSFI3ZTZM5FOiwlXGA6F0VBsLHGiDa8t8ISiN0V6w4U4GDKRQVpqBeoZYKiYGUb2TT/UlsBkgfFfuIg1SxJpD0WRMabIbEMzBLRkib1tfzEFswEMgOrVq/MPG2vcNxhuhUFVO6NFS3F46l+PRzPU7KpfOh9XqBXBcDHUkbQElc6HJBPa0P3pdF+vup47hptuA1jhPkNyB4ZaI5PcSaVo1RlPfcFdOQjGbAMlSOH8/vvv7KYcbSj7SNSkSRO+x+Y2wbyAypRWSzTn6bCWJNHxiFz1uoXEmF6jvrZnxguSLFrqF8w0YArVKCFBQBAQBAQBQUAQiNsIBGyjBbDgQwTeHvAhAt1wfPCaNwlxGzqZnSAQeQgs3OV0tZotdRqa3WwGTW8yhX/da4e5FR6x7Te3HbYt/xElD0cSJORSCM0+MJcaT2tKg1ZP4HZQp0fVbm7bjIxEMGJBduarMr5JcH8aE0lLmkAtEht5qBBAckVLlMDTCjbTOKm2u5LGSTU22/4S3pnoC3UhJagJXo3MnpmQrjHFOMxMFpy6g9kdE0mr4kA6SBPsyOhNuj+YYqMKKQeNA9rD3yF4qwJpeywcefSf7h8MEk24r3A9bia41cb9x73V6h3mfIT1hhsejsy0bt06Xit2NTFdBvcG99IXJgE24lpSBNI+kPTQBE9KIHfepdavX6+LBXRVBu0t88Y44B0LmGjvOfaGIfEBwndAIASpNnjNgn0cMCfA3IQnIy1JY24TaZAkg8coTz+4Uw6EME8zowm4K4PT3BRciNsJzD64bLe/A3Q5qAphPYH0vUQY7z6Q3W4VJ8p/goAgIAgIAoKAIBCnEHAem0dgSnC12KZNG3YV+eyzz0agJakqCDyZCKw+toauqA93UO3izo2URqJFyebUYVZ3lkCZtGU6tar0ls4yrkkTJKX3n3+LBj9ioBgZpkD90WFub5EMJsuEFsMpdeLUplKRG4QhTmycevbsSVCrwKn3ggULaNiwYZHbURS0hs077ERgAzl//nxWWYBbYTBFhgwZwq7tsdlT3laoZMmSfEqNdKg8gAmgT8N9HVrv3r1ZFebNN99ktRi4uMVmHkxskGb06HcsjMBCugIbNmzEwRgy22lBnbNnz/JGGWFIwoCg4qk3+5D80JII2DBC+ggEuxIgqHFAagYEd8OwfxEIQW0Mm3W0jz4hCQKmA4wH4+oPpnADDYkOMO9gYBhMFzCkIBEBatGihcsQod4KUh55CAZOweQBM0V5gjEYNMjHRh6bfKQDX+2WGnmaOnbsSL/99hurgoARAQYZJGC0ugruo53A4IGUBsidapO5PCSVwDDBfa1YsSJv9vHsYB1gTWF8w4cP5zWJuUOFF8yK2bNncxpwgERWIATJEjAHlHcobhP9gPD8wqi1nSB5gzK4t1i3gRDuPZgS6NNsBDuQtgKtA6lcfMeAWQbcIa2GMFSY8HxoSSdz+7jfkNQDgcGqJVbMZSDxBuzgMhxrBExA2NjBs21WiTLXkbAgIAgIAoKAICAIxCEE1Ad8wAR3nXCDqj5KAm5DKgoCTzoCH85va7hhXn5kpQscNcfXMfLbLmjHYbh3NtOZG2eMMnARbXfvjLQUXbM4ig0q42g5q5Xj9I3T5uo+h5UdEBgLcaiNKteBq1LE4QoW9Pnnn3Ncuy5V9kQ4jjL4qU2ZQ21G2YWt2sBwHfynNi6cb3aDjHS0i3pw9apJ2U7hNLXR1Ul8VcwGTlfMHEu6LxGl2sR14ZbVTHAzq8duzlu2bJnhzlnnq42ixTX17t27ua7ZjbNuGzgory46yldgChe7uj245FWn5hxXp/5GWSV5YCmH8nBJq3FRG2Yuax67btN81fcQhc3utc1ldFh5YzL6DySgGADGvNCmkpBwKCkPS1O+YIoKcI+N+npsuAJPpVJlcXltbly7Hdd1lPFch9r8motwWG2EuV3cB2V41SUfCcp4r0Op7lj6x1pWRlzdlodrYt0vxu6N4J5aqZIZ5TEOxZi0uBhXkjiOtm3bGmX0/JWUi+P+/fvcPNwUI13fN+0SXfddrpB4AABAAElEQVSNtaekbziq3TvDRbOyL2RpF8+FYszpapYr/v6jD/PatBSIRRG4S8czBJfM+jdo0CCHYnK5nYV+LrHuFEPGbRkkwmW4YggabcL9tmKIeiwvGYKAICAICAKCgCAQdxCIh6moj6WACF4aArXwH1CHUkkQEARiHQKwjQHVFkgyQAwfp9jRQXDTbPfCYu8XXoYUc8iebIlDxQTSBDA4ax878rRtjsiwD4HXMVRqYPDV27sVqg3wBIMrTt3NakSWwUdyJCKYQu0H0j44/ffmccVXTLW9C3ivgvqRtnHiacpoFxItkFDwJp0Dg6uQXoLEDdRHtBFTe7uQpMG9h2ec8IzB4m8l1JEgzRAeYQ1AlQb9eisPySStQgUJH/vaDK8fnT958mSWBOrXrx9LbkFCAzhBUsudCg/qKQYrQboHUigwTOxO4kW3H5uuJ0+e5GcKuIcnlQbs4aZe22/yNk+oJeH950tZb+1IniAgCAgCgoAgIAjEHgQipDrkbSMQeyCQkQoCgkBUIgAGRdmyZaOyC7dtY7PkaaOoK0BtITzyxkBBXmR6WsNm2RdDmdiEa3sh4Y0/MvMjgimYQb6M2VdM0Z4nmyju5ox2zUZK3ZVBGgzqwp4M3AxDNQgqZO4YKfDw46uXH3/+VmINuFNXsY8XjCUYpY9swlzdzRf9QF3o008/ZdfiMOIMVcC4wmTB/LTnKYTDI22DJbxyyPfGMPOlvpQRBAQBQUAQEAQEgdiHQIQYLbFvujJiQUAQeFIQGDNmzJMy1Wib55OAKRgYsOHSrl07tq/x6quvGnZrog3oGNoRpF6wBpRaG9vw8YcxEUOnJMMSBAQBQUAQEAQEAUEgShAQRkuUwCqNCgKCgCAgCMRWBCClAYYCDB7HJYkNd/cDUj5QA/LFE87rr7/OqlIwgB+oqpK7MUiaICAICAKCgCAgCAgCcQ2BCNloiWtgyHwEAUFAEBAEBAFBQBAQBAQBQUAQEAQEAUFAEIgIAvEjUlnqCgKCgCAgCAgCgoAgIAgIAoKAICAICAKCgCAgCIQhIIyWMCwkJAgIAoKAICAICAKCgCAgCAgCgoAgIAgIAoJAhBAQRkuE4JPKgoAgIAgIAoKAICAICAKCgCAgCAgCgoAgIAiEISCMljAsJCQICAKCgCAgCAgCgoAgIAgIAoKAICAICAKCQIQQEEZLhOCTyoKAICAICAKCgCAgCAgCgoAgIAgIAoKAICAIhCEgjJYwLCQkCAgCgoAgIAgIAoKAICAICAKCgCAgCAgCgkCEEBBGS4Tgk8qCgCAgCAgCgoAgIAgIAoKAICAICAKCgCAgCIQhkDAsKCFBQBAQBMJH4OTJk7RkyRJLwQYNGlDGjBktafbI+fPnKXny5JQiRQp7lsQFAQOB27dv0/Xr1ylTpkxG2pMaWLt2LT377LOUKFGiJxUCmXcsRWDDhg1UuXLlWDp6GbYgIAgIAoKAIBBxBITREnEMpQVBIFIRWHp4GXVe1JWalGlEnSt3srS9KnQ1zT0wj9OypMpsyQ8+u5PGBU/gvI8rtKFzt87RjL0zjfoJ4yegTCkzUYOC9alIhsJGur+BzZs303vvvWepho9qb4yWf//9lwoUKEDZsmWjw4cPU5IkSSz1JSIIAAGHw0HFixfnNbJjxw4qU6ZMrAcGjMmlS5fS/v37qXDhwtS4cWNKnTq113lduHCBOnToQJMnT6aRI0dS69atufykSZMYG0TixYtHqVKlogoVKlClSpUoQYIEXtuUzOhDYP369bRy5UqjQzCYce+rVav2RDCaz507R8899xzVr1+fRowYQdmzZzewiO0BvKN2795NeD8VKVKEypYtG2FG6IMHD2j16tUUEhJCGTJkoPLly1OePHlcoNq4cSMdOXLEJR0JL774IuXIkcNtniQKAoKAICAIPB4EhNHyeHCXXgUBjwgM2zyCgk8cpuMXh1oYKaiw4shKGrzayUxBvHb+l6l05lII0o7TQUZeh0rtaHHIEiPOBR7915m+pxcKlKR5LWdT6sTeN3zmejpct25dOnXqFEe//vprGj9+vM4K93rz5k26f/++MFrCRerJLYBNBwhrJbbTb7/9Rh9++KFlGt26daN58+bxBs2S8SgCJkvFihWZofLOO+9QnTp1jGJ41pYvX27EdQDMFrSZOXNmnRTQddSoUTR16lT66aefqFQp53sloIZMlf7++2/67rvv6PXXX6f//e9/ppy4G1yzZg316NHDZYKQ0po7dy4zxlwy/UiI6ZgmTZqU1+38+fOpWLFiBAYBmBIRodOnT1PWrFkj0kSE6z58+JDw/B49epTbwrMIZueAAQP4GkgHkN7r1asXnTlzxqg+Z84catu2rYtEEPo7cOCAUc4cAJNFGC1mRCQsCAgCgsDjR0BstDz+eyAjEAQMBB44HtCKfRs4flGpUCw/ssLIcxfovaqvu2RKkSilJT1/xsyUPlkyI23doV3UYOLrRtyfAD6i8cGLX8qU1n48tZM/f37eOB46dOiJONH1hIOke0cAUhpBQUF08OBBev75570XjuG5kGIBk6VevXp8An758mXq06cPMymbNWtG9+7dc5kB0ho1asTPCpgd48aNo5w5c1rKpUmThpmVaG/FihVcfuvWrcyc+e+//yxl/Y2ACQBJjKeeesrfqh7LY5ONDXfChE/euQ7W8q1btwj3p2vXrgRJD6iC7dy50yNevmTEdEwhsbVw4UJmsF29epWZLph7RGjo0KH0xRdf0K5duyLSTITq4nkEk+Wll16igQMH0iuvvMJqjv379w+43QkTJjCTBdJOYHR27tyZJWR+/fVXghqlmcB8Tqb+jg8aNMjlB6k2IUFAEBAEBIGYhYAwWmLW/ZDRPOEIzA9ZSLeUxIemkVtH6aDb65ydq+nszbNu88yJC1vNofPdj9G29ksp7SO1HTBbtp7eZi4WpeG8efOyWLQvnWDDuW/fPt6keCuPD1FfykHc+9ixYwQ1Dl8Jm1aoe9y9e9fXKuGWwzhwInnt2jWPZX2dEzYuODmHKpYm2MHBmD2RL3PytX+c7oaGhrIoO+bljXS/GF94lC5dOipYsGB4xTgfp9wXL170qSw2KcBGS8z4VMmHQnpu9nWCjVP37t1p1qxZrA6VNm1a3myDyQIVgT179ri0Pnz4cIJdFkiyfPbZZy75OgFqQmivevXqNGPGDGrevDlvALERjAiBeQOCil94hDWMOYQneaTb9OW0Hc89sNF1PI0BfR4/ftzIxhqAJJAnwj0C8y6y772n/nQ6mEvYGEMVBEw2qIGBvv32W10koKvGxxdMMWe8c7zhg0FEBaZfffUVffLJJ7w2IyrNBAkrSH1AegRMK6yT6KQ7d+4wEzJfvnz07rvvsvRYkyZN2JYU1iLUY/0lvDfBNIsfPz61atWK1wpUJ/H8g9atW2dpEvcINs7Sp0/v8kucOLGlrEQEAUFAEBAEHj8C4TJa8IcAeuLt2rVzGS1OZV5+WakulC5N/fr1c8mXBEFAEPAPgYlBkywVFu1eQ3cfet/of7d+gKWOt0jZLGVoUosw5k2fVYGfxHnrR+fBpgSkFPQPJ4HuCKd3KIN3zZdffsn2XiByjo/K0aNHu1TBqWLNmjXZuK4uh49e+2YCm8H333+fsHnPnTs3i1Zjg4oTQTvhXYYxgHFRu3ZtguRO0aJFWc0JJ6nuJBDsbdjj2FyhTZzoY8ORJUsWttUAqQSoYJlPeX2dEzb0kJSAmkjVqlUJ0kLY1ANbqCbUqFHDGIY/c/K1f/xN6N27N0s9gHmGjQfw/eijj1wYY1euXKEWLVoYWGJ8sNcwZMgQY4wIgAmm14i+etsUQ4Umj7JhAIYAbBrgPpltYqBNMDRwr8EMgLFmSF+hXK5cuWjTpk0oEhD5iikM2EIlwL4BgpoPSKvf6UGAcYV1ibUxbNgwnRzuFXhBnQEERo2/BJsPGnPYWgKBQaDTwMwyEyQKXnjhBR5niRIlGFdc7fg//fTT3IY+7cf61G1OmzbN3CQzQZAPrFAPEjW4V2Y1KUjboD6ee9xL3Mf27dvztwnWAGxE/fjjj9wumFso+/333zMTCs9yoUKFeHOKjTqwfhwE21Z4D2H+vjIIzeP0B1NI0rRp04bvJezDAB+sPbM0TXRgCsksqA0tWLDAKxPYPE93Ybzff/75Z3rmmWeYwYtnC9+deHeYCe8cSIZ4+0E1x1+CuhYIEmqawCTR7/Bly5bpZJ+vZ886D0lwf8w2lmDfBgQ7MGbCPQXjTkgQEAQEAUEgliCgPpo9ktL5dqg/kDiqdCijZpZy6g+EQ300O5TYo0OdrnBYfRxaykhEEBAEfEfgwcMHjhRdszjidc7gqD62Fl8Rnrh7stHINyu7cXriLpkcdSe9wmHUuXP/jmN00Fijzrmb5x1dV3Y34gcvhhhtIJCuR3bOKzCwmCXd38jHH3/M7we1QXNbdfv27Q4lCu1QJ5tcTnmhcFvul19+4Xy1yeSrYko43nrrLQ7j/aOYAEY9xUxx6HLq5M+hNi2Oli1bclnFZDDKIdCpUydOf+ONNxzoQzEDHGpzzmlKEsBSVolec7p+56lTS8cPP/zgUCeMXEedilvK+xLB3DF+tbniq9qkO9Tmj9+nSFdGFbkZf+akmN7cFt7JakPpUEwgjgMTZRfCoYwqGkPzdU7+9K82N9yfYvI4Zs6c6VCn9A4lWcFpSu3F6BuBWrVqcboy5upQzCaeu5JW4TSlCmCUxd8QYIWfvj/Klo+Rbw4opgLXVwweR8+ePR1YK8ASP6WuYBR97bXXOA1/p9CmsifkUOpInIZ7rBg5Rll/Ar5i6qlN3DeM1bymUVapGnE6sPJEWN+4z+4I69RTnrvyOg33HmsIP/1c6TieH7W500UdSg2E/9Zj/MruikNtWPme6XpqE2+UVcw4btP8POl2lRSaUQ4BxQDguWNtK2aTA88r2sRP44S1hn6RhjWI+eo43gFYD7jPIMXg5Tzko388c/q5QRrWUFRS3759uX/9fJv70utVqROZk30K+4Mpnk/MFc+gknRyKOkqjuN5uHTpEvcXXZgqZjn37W1t+wTAo0KK+edQqjsOJcnFP4TxTQpSDEwjXefbr4pB96gl3y+DBw/mdpXEH1fCGPB3B/cT7eNvnL+E9x7qKuafS1UlAeTSJvpTBwcOjAXrWUn28N+AQN9lLp1KgiAgCAgCgkCkIgAvDx5p7969DiXqzR9BShfVUg4fuPjg0R/D6hSaNxPywrfAJBFBwGcEFh5aZDBGNp3c7MjQKyfHq4wJYx6YGS1bTm01yv+8eZBfjJYSg8tx3TTdnRsTnwdpKxgeo0UXx3sCH/3hMVpQJjg4WFfjD0mkYTOvSW9UsEkwExgjKKvsVhjJN27csDAekKFEvLmcnXmsN9BoQ3kNMdpQJ6S8oTQS/AhoRgvaxGbATEoqw4j6Oie8X/HeteOoPNnwnDBfM/k6J1/7R9uaWaFUMYyulISAQ0nZOLZs2WKkKckbHpPe/OoM4Im/J9i0uyPMDXjpvy3mMtigIw+bamxSNOGe63T0C9KMFmy0zX3p8St1Cl3dr6uvmLprdOLEiTxO+9pDWawPzMHMLLK34Y3Rok7aub7eRNvr+hLH2gK2nkhJmHAfSlrIUgTfCmCMuiPca8xLSR64y+Y03Av7/dCbc/3caKYAnnOQZhyA4QP64IMPuB98s2hGC5gK5nsP5gbGgp+SROB6UfGfN0YLNtXo3/7+8mcc4WGqscJm3ExguKBvzWjS5aIaU6V2w/2CORaZdOLECWZSaEYK1mdUETBT6j3cPJjuwBaMD6U25AADKVAmEhgqaEdJXxpDV+qDzIBRBnGNNLz79TxRB+PBFWnffPONA+9gIUFAEBAEBIGYhYBX1SGI7kIkV318sQ6p+gNt0OLFi9n1phZ3VB9nrIdrF+M0KkhAEBAEvCIw/pHaUGolPl8x2zNUr2RNLr/2YDBduXPFpW6FrOWpZPY8nD5wpVUVw6WwLSF10lScci0S7Y/YuggoCvUTs7cTuKwEmd8rS5YsYRUZqMuozbbxgyoOyCwaD9WjKlWqcLr+D+8qtQFj8XOdZr7CroYW3UY63n+vvvqquYjfYcyjY8eOlnpvv/22Efd1ToqRQmrj6OIuFXMCmXEyGleB8Obka/9oU22WuOmGDRvSH3/8wbYdoKYBN65aLQYFoDqjmBysIqMYC6xaojYLjCdUFsJzccyd2P6bMmUKp3Tp0oXVgnQ2bJVApQdqX7BHYSZ1KGDpC2ovILOND3N5X8PhYWpv588//yS1oeK1B1U5O2m3rXncuHW1l3UX1wZssT4CIfVpwmsLXlQ8EdRvQPBMBPfT2s4MvhWg9ueOoMoB8na/oRKDn5n0M2i3faGfZ22IWzG+uJpWqTCrBUFlzNwvbKXA2DAIhmofB8G+BkjjEsgYdF3z3Mzt4HkG4R1jfkcq6RZON78jkRDVmCZJkoTfG1gvWGeRRYqJy38vYOMEpHGJrPbN7eDdq/uBip5iaLJaKuzkQEXRbqPJXNdbGN64sGYVU57tOUG1TdvygV0YTYrxTHg34G8J1KKgvgkVQxjLDg0NdVHd0/XkKggIAoKAIPD4EPDKaPE2LHzQ6w8GlNNG2cyGGb3VlzxBQBAIQ8ChDlkX717FCWlTpKQxweMoYYIwLx1jdo4LK2wKdavxNcdOXr1Ciw4uNuV4D5697jRKavZE5L1G9OTC1oOZYPsDBN10ED5mYQQRevHYWJp/St2Ay+gNKyL4UIWLXdhcwUeqthGB+rpNrmT6T7djSopwUG/u3DXkz5ywsQIjCgZQYQgXBGPA6qSaN/B6I2zvx9uc/Okf7cLmhpI64U22Ok1lexlgRLmzewIbPdgMwT4DbHAgDPsygTI59OYYG2Y7wZsLCHiYyb6msCkCYeMUEfKGqb1dMCFQHvNXql0unoRQXhsK1gwTexvhxbUtFdjACYRgBBnkjdGCv/NjxozhcrAnA2zBIIEtIl2fM03/6efMW7uwVQHGFZhgsD2E5xR2K0D2djVDBWVAdhs4nPjoP82ANKeVKVOGo/CA9jhI3ye8jwKl8DDVzwAYn+Z3JNYfCPaYzBQdmGrvWXqdm/sPJKwkH9lGD7z2YPxKupKZaLClhfeLt18gYwBjD0aVFy1axF6k8A7UBwFI14w/f+cCmy84JACDFLaFYAMJbYOpY35msM6VpBQpyRmD4QPbQzicAMGzlZAgIAgIAoJAzEIgbCfn57hg/dz8hwWnlyBw3YUEAUHAPwSWh64gLV1y7LI6KZv2paWBMZsnUMeKHSxpiDQq3JCype5Ep65dpZlBK1zy3SVcu3uNjl10MlqypsvkrshjSwvPBSwkIkDK5gkbGnU3UBjHBeGUECfaMKgJ5gQkMMAcxgcrjGbqtuxtwLhsZFOBAgU8NqnH4cuc0AhOM2EQUtlgYBz0pkmpARgf4PbOvM3J3/7B/IJhSBg/RZ+Q1Pjrr7/4BwaQUmMyui9btixLmcyePdsoC8YXfhg3DJr6Q/rU2N2puP4bZJZoQNv2NaU36P70666sN0zN5WEIGQaBcX9XrVpFMCDsjvRhBTaIYDb4S2BAgrGgcfC3vsbWjpe9HaVmQpBQgnQR7isYR2CSYC2AEWbHVxuR1tIA9vbA9MQ6gXFgSFzA+wqeU4xHqUdEyHCtu7lAugLkLs8+tqiIw/sRyFfPWu7GEB6m2PiDYEhcSx2b2zEfkpnTfQm7w80XTJUtIG4eUtIRITwfYPZpr0NYi2Bk63UPRhYk3rwRmE/Kzom3Ii55MCaMg0QwTSERqVTVuAzeN5BuCZRxhudFqd0xIxZjz5o1K0v9wDC1L1jpdyg8MgkJAoKAICAIxCwEAma04CMBzBZNOuzpI1KXk6sgIAi4IjB+xyQj8dVSVSlRfOejuS5kM529cZ32nT5OoVdDjTLmQMfqn9AXc/qZk7yGe6zqRfceed2oWaia17IxLRMnl9iw4pQbYvH2TZ15vFBlAZNFGfRk7yPmPO2dxJymw542hDo/kKu3Nv2ZE/rWmxowjrCJatq0KaukaJUed+OLzP6xicMYoK6DHzYsyo4GwZUrTlzNjBZdFh6A8NNeoMCQgTcSZaDY3XA9ppUsWZKU0VhStmDY25254D///MNRqCtFB3nDVPcPtRcw+yBJALfNelOk881X/bcTLqjdSeyYy9rDkBgC4wpebQIlPR/9t9xdO2Bw4TAFm85PP/2Uf9h8YrMLdRQw3Dyp2em1YG9X2QdiJouyTUN16tQxsnE/wWiJCGFTbifN6IC6U3QTJCkggYHvJ81Yi8gYPGGKZwASDlCriux5BoopcMe49Drzd954d4DJob3/4F2gbJS4MCPApMTfBjvD1dyfJ5Urcxl7GNJbmzdv5vHjXacZO3he0Re8b0aE0J5+P+g5aikg3S6eP/vfPOACCmROul25CgKCgCAgCEQNAj6pDrn7g4U/OvpEAUPDByVsGQTK1Y+a6UmrgkDsQGDhruU80Gyp09DsZjNoepMp/Ote+ytjAiO2/WaEzYG25T+i5ModqzcKuRRCsw/MpcbTmtKg1RO4KOr0qBqxjYy3PqMqD5t7nIJjc28mbDq2bdtmJGnbDnZpEqizoH5MIl/nhDGDcQRSXnto+vTpzETyxmThwuH852v/kDKAeofGFs2C2QOxfZDZRgJspUBCwbxxx2ZAMwNwCuwv6U083PaabZFAVUIZmmWGRnQxWnwZO8T8QbBJozdRnupBqgOEzaQ/hI0emB4gSJbYCc8FsHGn2mUuqzdq2BBrdR1ITijPYUaxsWPH0ueff26xswEpGmWclcu4c1mspSfMz6Z5LFqFx26jBYy4iJLynMjqg7odzA0SYfhW0SpEOg9XMHeAv5buMedFNIz1CmkgEOwG2TfMSAcTERJi7r65kK8pPEyhpgcCQ8BOytC3PcmvuL+YonHMC/P3l4FoHhhcOYMBAWkU5UGM34PuJD7ABMZ7B+qinn5QzfGXYDMITCLcGy1RhDBczYO0nRt7u+HdU6w1LZWIulB3hQoRyOxKGup1ymsXwaW0mcDcBPkqYWeuK2FBQBAQBASBqEXA++7sUd8QZ7R/eCgvQ3xSgg8T2AVQbh5JWUg3uPxRO2xpXRCIOwisPraGrjwS9a5d3PmBrGfXomRz6jCrO0ugTNoynVpVektnGdekCZLS+8+/RYMfMVCMDFOg/ugww6tIBpNlQovhlDpxalMp34LYJEFSBATJAhBshCjPLxzGxyB0x0EQf4aKiVZPOXnyJEs9IM98Koi4rwQbIfgQxTtIuU/lU3AwTiBOjlN1bDxh3wHGcrFZw6YG9jiQhpN/GBCMaeTrnDBuvG9h7BJSEtgwaoYD1KM+++wzUi6v/Z6er/3jXuKkHMwrMBHAdMHm+vfff+c+oSKjCZtySHFgIw67LMAfzBdIGoFgGFYT1gXKg/TGGxsrbGzefPNNYxOhPAbxZhVlYX8C9gnAyNFMNxiS9GazQ/cXHVdILgAvSGAp98P80/2C+QH7DmbpH9iYAcMM9xaMLE8bJ9xvqF5BOgLrH22DsNbdMXMgcaSZc/hbniVLFj0MlyvwxUYcm8aKFSsSpEzw7ECtBww1MCnw/OO+Yp1BsgWbX9xTqFOYN4a6ccwLOMCeD6R7YFsDfShPRfwNASYfVI4g8QSGESS8sJ60QVfdTiBXbGCBIxgceAfBiCkI7wQYyjYTvnEgAQJ8MT5d1lzG3zDUq8AUwVzxfsR4cM+xpu0ERhQMOoPsKnj2suFhimcL44faGp5R5RKY5w9VL6QBX83wtLcdXtwfTHVb+vlUnnp0kt9X2FaCuiSYJ+6YVH436GcFSJxAxQeM+h49erDBdNxXMEBw3zTzy9ysL/cU7ywwAMGEAhMJUjMwYFyzZk2LtA7S8Mzj7xf+zmFd428d/gZjbJBwFBIEBAFBQBCIYQgoUUSPpD42HErEFSbi+ac+5Nnds66gTlQd6sOQXY0qHVmH+uDVWXIVBAQBHxH4cH5bw03z8iMrXWrVHF/HyG+7oB2HE3fJZCl35sYZo0y8zhkc526ed3Rd2d2SlqJrFkexQWUcLWe1cpy+cdpS35+IUvcw3gn63WC+mt3Lqg2Nx7LKoKPRrdoMcjmzG2dkanescB9vJrUZd6hTS0vbcOWqvKGYizmUkU5LGcWYcChvDezCVjEALGW12164Io0s0u6dlQHFcJv0dU6KmcJzgktmuP+EW1G4MsbccB/UBtXoy585+do/XCkraQAXXNXmw6E2s0bf6rTXoTZ7DsVosJQF7oo5YJRDQBn2tZQxryfFHLOUhdvnrl27Wspj7nDpayb8TUI7ahNjTmZ3sEi3t2sp5CXiK6baZbZ5LuYw3PzaSW2ieMxqQ2nBUpfTLpx1O/j7q4zsOhSzQxdxuWqX0sBIbdZc8s0JcM+tGHgGtnimMCbcS5Biujjat29vrDU9DrjMVpIv5qaMsNocOjRmurzywOVQ0k9cBt8Nivlg9IkyWDMaC+16WB3mcBm4JAb9/PPPHMc7AqQkbTiO/rAW0A7ugWLIcVj3raShjPlwxUf/YV1hbaIcvnUiQri3uj9cMR/cO8UM9tisMuJt1MEz5o3CwxR14S4Y7wfzOLAGFIPbcJ0e1ZhiHIoJz2PAGokLpCSO2M0z3CrDLTPecfr5sM/Pl3uqGJeGm2a0qWwUOZTUkL0pjismlwN/C1FO//AsIV1IEBAEBAFBIOYhEA9DUn+I3RLEInEKpI2fQTdb66XqCjgFgo6oOxFOXUaugoAgIAhEBQKQDIAKI04TYUTQHcFDByTvcCIKOxieTkO1OLj9HWduE0YWIdrvjaCrD5UekPkd6qlfe1ve5gRJDtglgAShVqPR9aGeohgu9M033xhSQ77MSdfXV2/96zK44t2Pk1gYRYckhTfbC/gbASkNeMSB5ENkEOYGiY7kyZOz5xtv/Xvrz997Ggim3vo356HtGjVqsMQI1IB69eplzjbWExIhYeLrnIE9cDd7MbE0bIrgk0BtEPlvvd1GhKkYwfgmfjhZ96VdlMU6QHmM3U4wlop+sZYCMQZsbg/qP5CuglQU7i8keU6cOEGw66FtHJnL6zDcD0MtGhJYWvJK5/lzBYb4XgLhHrmbr7v2ILEA1RFvuJvrhYcpyuIdpFX9IInm63vI3A/CgWAK6SdI3ygGD0s3Rra9GPsYoysOTCHZAzs73v5eYDy+3lNIZWLd+LL28Y6G508808BWSBAQBAQBQSBmIuBVdQgfCOYPOXd/UCCmLUyWmHlzZVSCQFxHAJum8OyTYCOu7V94w8Pd+81eHu86uy0Jexl1em0k2d+hRoaXgLc5wfAoCHYzoIah38/4SNd6/WajjL7MyT4Ub/2by+LdHx72ujzsf7iziaHzA7libr7c1/Da9veeBoJpeGPQ+WgbaiPASklesS0huFHW6lCBrCe0DeaGr4SNONS9wiOoIHlTQ7LXD6887kNUfUuACeuJEWsep1aJVFIF5mS/w8AwkHUCVSx/KDxM0RbWTEQ8HHkaT3iYYt126OD0lAfmdFxhsmhMtfFqT/jodF/vqT8MaLyjo+Ke6jHLVRAQBAQBQSByEPDKaImcLqQVQUAQEATiBgJKTJvwe1wEaRbYolEqUeztBx/bODHF6SpIiZOzq9PHNb7Y2O/jvqd2zLDhgo0Q2IOAVAWYVDD+KxS1COzYsYNtHP3www9sqyVqe4vbrS9btoyZLGA6w8W0Ns4bt2ctsxMEBAFBQBAQBKwIJFA2FHpakyQmCAgCgoAgEBMRSJcuHbVp04YN4kJsHYZDYRxX2SNh5ouynxGwakBMnO+TOibcZxibhdruBx98wGpvTyoWgcwbKs8wdgt30e4MBLtrE6qFMDCNZ0jIFQF/MIW0C1SnoEKJ95OQICAICAKCgCDwJCLg1UbLkwiIzFkQEAQEAUFAEBAEBAFBQBAQBAQBQUAQEAQEgUARiB9oRaknCAgCgoAgIAgIAoKAICAICAKCgCAgCAgCgoAgYEVAGC1WPCQmCAgCgoAgIAgIAoKAICAICAKCgCAgCAgCgkDACAijJWDopKIgIAgIAoKAICAICAKCgCAgCAgCgoAgIAgIAlYEhNFixUNigoAgIAgIAoKAICAICAKCgCAgCAgCgoAgIAgEjIAwWgKGTioKAoKAICAICAKCgCAgCAgCgoAgIAgIAoKAIGBFQBgtVjwkJggIAoKAICAICAKCQKxE4MqVK3Ts2LFYOXYZtCAgCAgCgoAgEJcQEEZLXLqbMhdBIBoQGLtrPDWc+oblN2Tr0GjoOfK6WLt2Ld27dy/yGozlLd28eZN27twZ62Zx+/5t6rKyK1UZ/RJV/q0KtV/ckY5cPeIyj6WHl1GT6W/Sz5sHueTF5ARZp9a7E1vXqXUWURvDc/zss8/SgQMHorYjaV0QEAQEAUFAEBAEvCIQz6HIawnJFAQEgWhFAJvCzou6UpMyjahz5U6WvleFrqa5B+ZxWpZUmS35wWd30rjgCZz3cYU2dO7WOZqxd6ZRP2H8BJQpZSZqULA+FclQ2Ej3N9DszxY0ffsSS7XqhcrR8laLLWkxMXLhwgXq0KEDTZ48mUaOHEmtW7fmYU6aNIkOHz7M4Xjx4lGqVKmoQoUKVKlSJUqQIEFMnEqkjmnGjBnUpEkT6tSpE/Xq1YuSJk0aqe1HRWMXbl+kYgPL0XnFJDJT8oQJaf4HU6lqripGctoe2ena3bsc39huAVXM9oyRFxMDsk7d35XYuE7dz8Q19eLFi7Rjxw46fvw45ciRg1544QVKliyZa0GVAqmVNWvW0P3796ly5cqUNWtWS7kvvviCpkyZQrt27aL06dNb8iQiCAgCgoAgIAgIAtGDQMLo6UZ6EQQEAV8RGLZ5BAWfOEzHLw61MFJQf8WRlTR4tZOZgnjt/C9T6cylEKQdp4OMvA6V2tHikCVGnAs8+q8zfU8vFChJ81rOptSJU5uzfAo3LPYqPZU8HZcdsW6qT3WiotCf/8ykYRtHUsiZwzSs0c/06tMNvHaDzWvFihWZofLOO+9QnTp1jPLjx4+n5cuXG3EdALNl3rx5lDlzZp0U0HXUqFE0depU+umnn6hUKef9CqihKKpUrFgxKliwIA0YMIBWrlxJq1evphQpUkRRb5HTbOu5HxlMliJZclCVgs/ThI1/0i21+dxzdo+F0fJUqtR07eIF7jhD8ujdeMo6jZz7jVYexzo9d+4cpU2blhInThx5E7G1tGjRImb+mpOnTZtGXbp0ofz585uTKSgoiAYOHGikzZ49m5o1a0b169c30vr06UMTJ05kRvLMmWHMdqOABAQBQUAQEAQEAUEgyhEQ1aEoh1g6EAR8R+CB4wGt2LeBK1y8fZuWH1nhtXLvVX3d5qdIlNKSnj9jZkpvOh1dd2gXNZj4uqWMr5EmRd6gX+sO4Z+vdaKi3Izds2jNwSA6de0qlc5S0msXUBNq1KgRM1nA7Bg3bhzlzJnTUidNmjR8Qnz58mVasWIFl9+6dSszZ/777z9LWX8jc+fOZQbGU0895W/VaClftGhR3sA1bNiQtm3bRk2bNqUHDx5ES9+BdrJyv/M5yZY6De1tH8TrcWv7VZQ9TVpqW76NpdktH6+n35v+QEGfraD8aa0bV0vBKIjIOo08UKNzneI98Ouvv1LHjh3p2rVrkTcJW0uQYoGEHRid/fr1Y0k7ME3wzvnxxx/p4cOHRg0wiwcPHswSd19++SVLn6VLl46ZuJBe0QRJmPbt29OsWbP4edbpchUEBAFBQBAQBASB6ENAGC3Rh7X0JAiEi8D8kIV8Iq8Ljtw6SgfdXufsXE1nb551m2dOXNhqDp3vfoy2tV9KaZMk4SwwW7ae3mYuFiVhBzlo7/m9NDp4LI0KGk1QcfJG205vp992/E6zDsyhMzfPuBRF/e1ndlDoxaNG3rmb5znNU9vDhw8n2LuAJMtnn31m1LMHoCaE0+vq1asT1BSaN29OR48eZcaMvaw/cWzaQNmyZQu32m3FYNu3bx/dunXLa9mzZ8+yCoEuBAOY3hhCGIM3I5mQYMGGr3z58rRgwQL6+eefddMx7nr93g1DFahM7hLG+KASd6zzQYofz/mnbceZIF4XR68epVKKGedJU/b8rQtcDuvq5r2bvF6Hbx9JkEY5feO00b45IOs0bq5T2IEZO3YstWvXjjZs2MDPbFRKd0HCrXbt2iy9kjt3bpYkg4RKyZIl6fr16xQaGmosO0i+gGkMJgrqQdoF7zQQJFvM9MEHH3AUUmpCgoAgIAgIAoKAIBD9CITLaMGHKT6+8dHhjqBP/Pbbb/NpqLt8SRMEBAHfEZgYNMlSeNHuNXT3odO2hCXDFPluve8f0mWzlKFJLcKYN31W9Te1FPlBMHJyfluQSvxUlT6Y1ok+nN6Zyv5Sg42XwpCpmXad200FBhalZwbXpo9mfE2Nx31A2fqWoDoTG6hNddiJcsXBtajCoJdp69EwY48VB9fhtOeH1jY3yWGcCA8aNIggsTJs2DCXfE8JsNXSrVs3zgajxl86cuQIoQ38sGEDJVT2Q3Ta6dPWDTwYOjVr1qTkyZOzigQ2d7CbglNsTTjFRn2ceGfJkoVwmj1mzBh67rnnCJu0fPnyGSpQsEWDstiAwTgmpGlQJk+ePLRw4ULdpOUK2yxa1QCMlphmMBgMu1oT6lKdcQ2McQcd3c1pSAcjTyFu5JUf5FwrWC/4Ye24o/7rvuV8LjP8BV6vH/+p7CSN/4iy9ytJXy3/2qgm6zRurtM7d+7Q9OnTqU2bNizRlilTJmbKglHhyVaKsSgiEABzt0WLFpQoUSJLK5BwAcF2i6b169dThgwZqHDhwpyE5xO2WEAhISF09epVDuO/jBkzUpkyZZhh7I3BalSQgCAgCAgCgoAgIAhEKgJeGS3z58/nD358BJhPVTACnLS8//77lCtXLtYF9nRSGKmjlcYEgTiMwEPHQ1q8Zy3PsFqhsnyFvYnp+/50mXWi+PGpTvHKnD5q/R/03wPfVVvqFqhjSLXsP3PQpe3ITHh55Gus2oM27apLXy7rbHR17+F9emlEPTp84TxhbrC5oSVvluzbRPUmvGqURb4/BDUgGLqFOoy/J9OFChWi4sWLu7z/fOk/derUBKOU+IHJA9JxGJ2F5IwmbKZwQg07MTihhn2Gli1b8ibpzTff1MUMiZX9+/eznQa0+9577xFO4WED5tSpUzR69GguryVioA6Esfzwww/0xhtvsIROvXr1WJXJaNgUwDsdfaMtSPXEJDpz8xwt37+VNhzeYwwLqmNIw2/ziS1GOgJYQ/6ul32nj1vaQCT08jFOk3Ua99YpVOTwrQMGy19//cXPJQ6WoGJYrlw5l7UQXQm7d+/mrsAcBUEiDc85JF004VmHZBsYriAwa81UrVo1jsLmkpAgIAgIAoKAICAIRC8CXo3h4nQU4vZ169al+LbNDU5d3333XcJHPD7a7fnROw3pTRCI/QgsObzUUBvqX6sP1T/WmGCn5fetY6lF8bdcJtizejdatKcO14Gagz+GbXOkz0JXTh2l81cvu7QbmQkTmo+kFpNa04x3x1PNPDVYzSn/d6V5zDN3zKOhdQZxdxuOb+C5IvJLw97UptyHnI55QbKgT62eHMd/1/ucYhWQ7P0L0Nkb19kmx9GvwqRbjIKPAnrD8tprr9mzfIpjo7Nnzx7e6OgNjS8V4e0DzA0QjOHifarj9vo9e/bk02hIk+CdCoI0CyRgoMYAA7VQZ9LUvXt3ZsjA9gve0SNGjGAPSZDAsbtprlWrFi1ZskRXZZUg2J346quvCDZo3BHUDmBMc+PGjfTWW65rz10de9o///zDG1d7uo7DW8rzzz+voz5di2UsQm1ffItu3btF4zbO4TpFs+akqgVf4HDN/DUs7VzqeYLjz4+qZmHOWAq5iYxqOoDeLfUOTdwzmVpP/YL61+zNpWSdxq11CtsrkBIDAwPPNlR2sC4hCRYRQnvepOfgVcjbcwXGyMGDB+npp58mSNaAYJQXpON47iHh8swzzzAzGJJt58+f5zL6PzBNQVu2bGHJY50uV0FAEBAEBAFBQBCIegTie+sChucgpopTUzsjBeKuEFfXJ7UR/TDxNg7JEwSeBATGP1IbSq28W8D9bL2SNXnaaw8G05U7V1wgqJC1PJXMnofTB64c4pLvLSF10lScrV3eeisbkbz6BevR2e6HKUOyDGzvYvq+GZRCSRmAwCSB/RZQ5pRhXn06zOpOjac1pan7plHrsu9T8GcrLR5koBoCGxy37zqleNIkT8VxpGnbHNzoo/+gwgOCykwgpA3YmsXy/WkH0n6oC5fRngiMEGygcAKNk2v9A5MbZGee6JNq3SY2WyAwwO0E6RQzffLJJ9wXjN56sukCKR4QNnuB0smTJ9m9LIx0uvsF0naWFFmYOfftS32NYb30dFVOA9MuPM9TRiUvgQ+fb0rvlX6X19I7JVrS/i83GgZ0ZZ3GrXUKaRYwRUAFChRgCd7I+JaBNJm7Na/Ttm/f7nEF/v333/T777+zKlHbtm2NctogL5ivUNlGGbybPvroI8OFM+w7mUl7S4NakZAgIAgIAoKAICAIRC8CCaO3O+lNEBAE3CEAhsPi3as4K22KlDQmeBwlTBD2eI7ZOY46VuzgUrVbja/pjfEf0smrV2jRwcUu+Z4Szl53nnya1Xk8lY1IOmxmfDW3B13x4LXn/sMHSrUjIRVOX4jeKFuLZuxYSveUTZVZwSv51z7FV9SvXncqkam4xfYGxnRbqVWBUiR2ZS5wxqP/9CmvZpiY83wJa1sq2bNn96W4Sxm9+dFMEXuBu3fvsn0FpHsao2YW6bp2mxF2Rrguhys2kGaCLQioH0BNCSpVRYoUMWdzWEvuYEMXKEEC58UXX/RYHcz6mEgNi1kln/KlzWcMU9apc8MeV9Yp1jlUhKCCA+kuMEAgofv6669HyJ0z7KNAEs0TeXpeIckCBkoSxYzu0aMHH3TpNqD+BwoNDWVj1Qh//fXXPE79jtHPLfJAWj0R9meEBAFBQBAQBAQBQSB6EQjbyUVvv9KbICAImBBYHrrC8KJy7PIlen/al6ZcojGbJ7hltDQq3JCype7EdlBmBq2w1PEUgWHZYxedjJas6Zxi6Z7KRiR90b+L2fitbiNfhoyUJXVm+vfcUZZm0en6Ou2NyVS70HgasPInOnD2FCefV6fNrad/RQcvHqQBNb7TRfkKhgwoQXzvG3aI6YPANNAnvJzg4384DYbaj91YpY/VCYwUEE6i3ZF2owwVpV69erkrwiftbjN8SHTXLzZyIHd5SNcbt6xZsyIaEEEyIFDMAuowkiqlT5rea0uyTuPWOoUkGRgWkDaBit+8efOYCQmPY1WqVAlYjcjftQ9GD5gsYKL26dOHjV2bF6J+d0FdCASbMvr5hD0lECSQzaTVjeyMWXMZCQsCgoAgIAgIAoJA1CDg/ss/avqSVgUBQcADAuN3TDJyXi1VlaU8kLAuZDMzJWCgM/RqqFHGHOhY/RP6Yk4/c5LXcI9VvVhqBIVqFnIaS/RaIcDMIRt/NWpu/nQRQdUJ9MofDWn+7nVGHgIwBPzalMY0vekf9G7Jd9il7pAtw+i7ZSO53NgNf7gwWnQD1+5c10H2TpQiUQpKEC+M+ZI3b17OhwFZuC72h+DmGAYmYXA2UNKn11pFwd4ONkFgsoC5AQ9ukaG6YO4DHkfs89ZqO2AguSOtaqC9m7gr8ySmyTqNu+sUUl7wTgaPXPA+BKYHjOPi2S9WrFiULndIzaFvMED79etn2GExdwrpFEjFwREB1Lbx0wQmDd4z2lORTtcMGG2rRafLVRAQBAQBQUAQEASiHgGvNlp093CP6om0tyF99VRO0gUBQcAzAgt3LefMbKnT0OxmM2h6kyn86177K6PSiG2/GWFzoG35jyi5B2kJXS7kUgjNPjCXbZ8MWj2Bk1GnR9VuuojP1/O3LtDx6yf4pyvdufefkXbzntPmwYnLzlNWeH3JlCIjFx22bbgLkwUZQ7cO4/TywyrT9jM7KGvKrNS2QhvDY0yKpMl0V8ZVqz2FnD1J/1w8wK59c/Urorw0zTDKIFC2rNODE9zU+0NgzHz66adcBcZn7QT7JjAYu2nTJnuWJa5F/sHc0JIicMtqttMANRucPg8cONBSF33AlkpECN6IzIQxg5FSo0YN8qS+o13GPk6vK+YxBxo+feM0r0szM06vXTBN/CVZp3F7nYJZAdfpMGQLl+h4Jr/99luWhvN3rfhTfujQoVy8c+fObpksui08syCzbSW8HyCtV6FCBRdbeidOnODyZqYMJ8h/goAgIAgIAoKAIBDlCPgk0YLTFi3+bh+Rtl9w6dIle5bEBYH/t3cu4BYVVR3fKBq+kjCDEEWEUlEERAVDQUUEVFRM8RlqomKGD9IUxWeKb1HUD8RXkeUjoygtH6WihqKllq9MSbAwUcEHmj3M2/oN/rfrzN37nL3PPefey+W/vu/evc/sef5nZs2aNTNrjMAABD70tXNaGyaH3/KQiRAPvdVDGozDckzmLZ94R/PwAx488Z0f2111u+bYOzy4OfWnCpRVHsLhnm88ZsIZJcuZDz1t1E1FiuCeZ96n+eSFX9LP8uS63V1P3re8v/KoZzWPv93xzcF73KH53NcvLHnf7YW3ibSu3h6PmggcP874+OX2DNi5c9tXHVYULDoahN9HHjCZf9xus9veDVc/42/Pl/3s9prTP/765kG3eCBeCjFhwrgrBmfPP//8Zvfdd9eniScGa88444xycwc3FXHFMoQNh64V4VNPPbXhmmYIPrjTTjuV965/3K7Dln+OIuy///5l1fwHP/hBuUIZZcfJJ5/cnHXWWeUGFNI+4ogjyiSPm0QwhIvSZ97dJVzRjLKJG1W4CUi2I1784hd3ZbUYBz3ttNOKofN8tXSn503sePEPL25u8IKfXYVLVmkraqfnP+0TzW7XvXy309BiuJ1eOdopO0ce97jHlRsXX/e6161SYAxtL0P8cf08u+bY2cZNQvyJUMjCu3Q7F8axuYEM5Qo7X9jlct5555Ujel19lduGIBnPVrx+GgEjYASMgBEwAstHYOqOFqzfc70gQj6ThH322af59re/3ebqYQ97WMM1oBBXkr7kJS9pv/nFCBiBYQi87bPvaD0+aK+fKQhwvM7Vrt0cfNP9yvevf/97zXd+tPr2IT6eeIfLJ/zFY88/lCtchfvQ292z+crTPt3c96aTRj97gq1ynmUTRUdfTr7r85sDd7/89hoi4YYjdqGQh5o+9tgPNw+57T1aZylZ2A1zwl0e0TzzoGe03/Ryyt1fVuLTb5433XHn5nl3fXZ2Ku/YM4COPfbYpmuHnmyWPOYxj2lOOumk5vOf/3xz//vfv4EHPulJTyph63+yj8DNa9ttt139eeI3ypqdd965GNxk9RolC8YudawIJQ07XLiK+cwzz2yYND3hCU8oChx2pEjJIv+yrVLbgeB3vUsFhcrFF19crnNGyYJNive85z3tTp+JjMaP448/vtySxO1EV2TbDrN2rGx7lavVRS+/tw3jzH3kdnrlaqccO3zRi17UzGsIu68dZXcd02O32wc/+MGJP+Qu+q6I/ogdJ3gJchnXr2OYmJ0wtX0WlDccKTrssMM6FcWK008jYASMgBEwAkZgOQhsE0d+VvqiZkKCoUYJ9T+OWz6yYM9qC0I9wj/+8J+/98VrdyNgBK48CFz4/QubL3zri81u2+9WbheaVnKOHX3qG59uvnzJV5pdt9+12W+nfZvtt9u+Nwj+z73oY2HH5pvN7XfZv72Gtw4Ar2LbPavFHAOqjc6K1xFOPK2Oo+s3O2RQXPTdKJTDwGq5PQgeecMbrlY2yS/HAph8Xe9612uNXerbmOejH/3oYtzz3HPPLccgmJjBp/fcc89WwVPHd8oppzQnnHBCs/feexcl07Wuda3ai38HAm6nlx9fcTvduO5wySWXNMhkMpJb5wQFKwoYdsxwNNFkBIyAETACRsAIrC8CUxUt65sVp2YEjIARWB4C2FvYd999y3Gd4447rhifvHocZ9qqVCtappUTQ73Yo+GoEqvlHDlY5ir+tLxc2b+5nfa3ALfTfmzyF3DC0PUDHvCAhiOOJiNgBIyAETACRmD9EZh6dGj9s+MUjYARMALLQYCdJ2zFP+CAA5rTTz+9eeYzxxsCXk7ONj5W7D2gZDnooIMKRlaybFyduJ32Y+922o9N/vKc5zyn2HZhh5rJCBgBI2AEjIAR2BgE+g+jb0x+nKoRMAJGYGkIYHOB40PcJIKNqa1Mhx56aDnS1HeFcy77UUcd1eyyyy4NtmxkYyd/9/v6IuB22o2322k3Ltn1nHPOac4+++xiJLe215T9+d0IGAEjYASMgBFYLgI+OrRcfB27ETACRsAIGAEjYATWBYHLLrus4RbIXXfddV3ScyJGwAgYASNgBIxANwJWtHTjYlcjYASMgBEwAkbACBgBI2AEjIARMAJGwAiMRsA2WkZD5gBGwAgYASNgBIyAETACRsAIGAEjYASMgBHoRsCKlm5c7GoEjIARMAJGwAgYASNgBIyAETACRsAIGIHRCNgY7mjIHMAIGAEjYASMgBEwApsPgcMPP7wzU9e85jWbs846q/ObHY2AETACRsAIGIHFI2BFy+IxdYxGwAgYASNgBIyAEVh3BPbaa691T9MJGgEjYASMgBEwAqsRsDHc1ZjYxQgYASNgBIyAETACRsAIGAEjYASMgBEwAnMhYBstc8HmQEbACBgBI2AEjIARMAJGwAgYASNgBIyAEViNgBUtqzGxixEwAkbACBgBI2AEjIARMAJGwAgYASNgBOZCwIqWuWBzICNgBIyAETACRsAIGAEjYASMgBEwAkbACKxGwIqW1ZjYxQgYASNgBIyAETACRsAIGAEjYASMgBEwAnMhYEXLXLA5kBEwAkbACBgBI2AEjIARMAJGwAgYASNgBFYjYEXLakzsYgSMgBEwAkbACBgBI2AEjIARMAJGwAgYgbkQsKJlLtgcyAgYASNgBIyAETACRsAIGAEjYASMgBEwAqsRsKJlNSZ2MQJGwAgYASNgBIyAETACRsAIGAEjYASMwFwIWNEyF2wOZASMgBEwAkbACBgBI2AEjIARMAJGwAgYgdUIWNGyGhO7GAEjYASMgBEwAkbACBgBI2AEjIARMAJGYC4ErGiZCzYHMgJGwAgYASNgBIyAETACRsAIGAEjYASMwGoErGhZjYldjIARMAJGwAgYASNgBIyAETACRsAIGAEjMBcCVrTMBZsDGQEjYASMgBEwAkbACBgBI2AEjIARMAJGYDUCVrSsxsQuRsAIGAEjYASMgBEwAkbACBgBI2AEjIARmAuBbecKtYRA55133hJidZRGwAgYASNgBIyAETACRsAIGAEjYASMwJUZgf33339di7/NStC6ptiT2D777NNceumlPV/tbASMgBEwAkbACBgBI2AEjIARMAJGwAgYgXEI7LDDDs1nPvOZcYHW6HvTKFrWWA4HNwJGwAgYASNgBIyAETACRsAIGAEjYASMwIYjYBstG14FzoARMAJGwAgYASNgBIyAETACRsAIGAEjsFUQsKJlq9Sky2EEjIARMAJGwAgYASNgBIyAETACRsAIbDgCVrRseBU4A0bACBgBI2AEjIARMAJGwAgYASNgBIzAVkHAipatUpMuhxEwAkbACBgBI2AEjIARMAJGwAgYASOw4QhY0bLhVeAMGAEjYASMgBEwAkbACBgBI2AEjIARMAJbBQErWrZKTbocRsAIGAEjYASMgBEwAkbACBgBI2AEjMCGI2BFy4ZXgTNgBIyAETACRsAIGAEjYASMgBEwAkbACGwVBKxo2So16XIYASNgBIyAETACRsAIGAEjh5aioQAAMe1JREFUYASMgBEwAhuOgBUtG14FzoARMAJGwAgYASNgBIyAETACRsAIGAEjsFUQsKJlq9Sky2EEjIARMAJGwAgYASNgBIyAETACRsAIbDgCVrRseBU4A9MQWFlZmfbZ34yAETACzX/+5382z3rWs5qDDz642X777ZujjjpqQ1DZyHz87u/+bin/cccdtyFl3wyJ/sEf/EGp+7322mtQdv793/+9AS/8/9Ef/dGgMPZkBDYrAn/3d3/XHHPMMc0NbnCD5qtf/epmzeYVLl8nnnhic+c737l55CMfeYXLuzO8eRB44xvf2Nz73vdubn3rW2+eTDknS0dg26Wn4ARWIXD/+9+/+eEPf9hc5Sqr9Vz/+7//2/zP//xPc/zxxzf3ve99S1gE6H/9139tXve61zXXu971VsW3VR0+85nPNPvuu2/zyU9+srnNbW4zqpjf+c53mosuuqjZfffdm2tc4xqdYc8///zmRz/6UXPLW96y8/v73ve+5m53u1vntwsuuKC59NJLO79lR+p4n332yU7lnXr+p3/6p+YHP/hBc7Ob3azZcccdJ/x873vfa/7t3/6t5J0y1IQQRRuaVr46TP592WWXNRdeeGF2aq561auW9vVLv/RLE+78oE1+7nOfW+VeOzBhudrVrlY7N7PKmwOgXPvnf/7n5l/+5V+a/fbbr9lll13y5873b3zjG81nP/vZhrzvvffeq/x87Wtfa77//e83u+22W3Ota11r1fcvfvGLpS3c9KY3bb8rzCrP4XDNa16zuclNbtJ+UntrHTpeaAt77rln+QL2l1xySYevnzn94i/+YnOjG93oZw5+60Tgy1/+cuGVtE/qn77T16c7I1iQY18+/v7v/74ogR7wgAc0D3vYwxaU2upoUDJ885vfXFX2P/zDPyxKhN/7vd9rbnvb264OuIVc3vOe9zR//ud/3vzKr/zKoFLBExhXoatf/eqDwtiTEZgHgW9/+9vNb//2bxclyMtf/vJ5opgZ5vOf/3xDf4e22267mf7l4YomY643TzvzzDObr3/964P5inD10whkBP76r/+6+Yu/+Ivm5je/eXb2+1ZHICY1pnVGIIRAtmmUv+te97rtu9x4nnbaaSVXX/rSl9rvr3rVq9Y1p//wD/+w8qhHPWolhPOVmLis/Pqv//rKX/7lX65bHn7jN36jlP0Rj3jE6DRf+9rXlrBPe9rTOsOG0LMC9jvvvHPn91jpLOG/9a1vdX5/4AMf2NZLrreu9xxBKCxWTjrppFVhjzjiiJWvfOUrrde3vOUtxc9d7nKX1i2/HHDAAeX7Rz7ykew8+J167MorbqFAWDnllFNWfvKTn7TxffSjH+31n+MJ5Vgbhpeh5VWgWFVeicnyRFqhZFsJxZK8TDxDGbNy2GGHTfgn/BOe8ISVH//4x63fe97znsXPox/96NYtv4RCr3zPdUC7z2XL77vuumsOvqL2lv10vdPuoLve9a69cSvcfe5zn4k0/GM1Av/3f/+3Eoq10ma/8IUvFA8xcV4JRd1qz0t0mZYP8Qr4zTIphLfSpp7xjGdMJAOPo02F4n7CfSv+ePzjH1/KSt8dQvB39be/+Zu/GRLEfhaEQCi3V/77v/+7Mzb6MmPHViL4ktpaLAospWhnnXVWm0YsIg1KYxEyJrLCP/7jPw5KbxGe1punMcZQd6GQGpx98Adb09oQuPjii1diIW1tkWyS0L/1W79V2tEd7nCHNefI7WvNEK5bBN7REtxzvSkE7pIkuzU+9alPtcmzu4IVNnZKsJoN7bHHHmVXBbsbDj/88Nbvsl9Y5dMWdFaJQyAqOxr+9E//tGEb5cknn7zULPzHf/xHuzLz5je/uXnFK15RjgSMTTQUVs3v/M7vtHgq/Ete8pKy8t21uwE/b3vb24rXUHg0T3ziExWsfR566KGN6hFHVpJCGVFWkw888MDWH8cYROzq4Bs7dGKi3sQErPm5n/u5JoSjBk03uzc+/vGPlx0uCpPDyy0/r3Od6+Sfo9+p21DalHAcewgBt+yeetKTnlR224RSaCJONPGhJJhwyz/UbnEbW95TTz21CQVJiS6UJ2U3B7uK2BGw//77N6FUan71V3+1Te6cc85p7nSnO5Xf7HgKpVTZxfT+97+/CaVkwy4XjgOwU0d0xhlnlN1ifTsecp3+5m/+ZilrcOPmRS96UYmCtg/V9cJOgVAIlm/1P/LJjrQQDpu6vtjh8PM///N1kPK7a2dOp8crsSP1GwJ+89znPrddJQpl2rojMi0fD3nIQ5oPf/jDS93NQoHFy+odfGx3Z8sy+djqJAz0nFXe7K/GbVZYf58PAcaFX/u1Xyt8nV2ImRf/13/9V/n26U9/umGXIbs9twohv7HTirGfnZPLoGtf+9pttEN3tKxVxkSGZff1d7/73fLXZmCJL+vN08QnhvII+C1y5yGHHNIgM5vmQ+Axj3lMg8yGPBdK9Pki2USh1I6G9s2+rLt99SGzSd3XTaXjhFoEYnJYtJqsam9GYiUpmusKq/Yf+9jHys6GUACtsOsCd/7i6MNSs85OFKXFMxQto9LLOwzqVQg05Iq7b0cLuyjww0rGEHrNa15T/LOi2keUQXHGFv/WWwiX7a4MdmdA2tHStwqtHS31DpI20hkv2tFSx8/K/LOf/ewWnziGUWLSjhZ2GQ2lMeUFD9VJbP1vkyD9gw46qHzLaYdSqN35Qlsh36I48tN+CyVNcdaOFtLo6nfa0dK1g4mdMYSbZ0cC+aQfET6Ud8piu6Olb6dO69EvUxFgxx3YvvWtb53qb9kfN0M+xBNe+tKXLru4mzb+Zz7zmaU9xJHPQXnUWEcbEq8YFNCe5kYgJuSljsAcXp0p7zDaKqvYuXzLfv/bv/3bFttlp6X4/+RP/qSkyU7YrUqSQV74whcOKuLjHve4gsk8u7EHJXAl8cROevhEHIvdEiXWvOYe97jHmsrj9rUm+NY98GojIdGqTctFYFFazWXlEhsbwQiaUFaU3Q7bbLNNWYnnnKqIs/DLInZWsBOF3Qr3u9/9SjL8npfYvRICXBtcuxNah+oF2y3sooBYLcdWzFqJ1R5W3SFwvP71r99Gya4Wdu0E82ztBbQf1/kFOyLPec5z2rPIQ+yydGVxbHlZsYA4w46xMBG7PVjRgDiXjd0UCAyxR8GuMHZXZXtHN7zhDZuzzz677BRil1BNcUSgefe73107L+U3djGwx8JuG2x0mBaLQGzNLhFir2gjaTPkY9ttL9+gqudG4rFRaWv3mp6z8pH9XZlxm4XTIr+za0VU7xBgV69orau+iufK9NyINsxuZwg5ZquS5As9Z5UzFLjFS92+Z4Xz90kE1La2Co4ab7rsGE6WfPovt6/p+Gy2rz46tAE1giFNaMigyMTyBS94QTmGwdGEO97xjhM5Zks6RhDDtkTZOs7RDY7dMLnDOCNHkerjChMR9PzAYFM9qBB3rM6XuDH+uSz6/d///XKsh62CGP995zvfWcrCEQxuFRlDHAXBOCbKlljpLUdLwv5IW46uuP74j/+4OMcuiOZd73pX86Y3vanhWMtaiO215IMJ961udatVUf3yL/9yE7tiVrlvtMO89Ty2vByfgjDKVxPbrGM3VTleFTusypEiHbnjaBOKwJp0HKp251gJihuORmHoeK0DXh1//s3W91gBK04oLZdJKBJf//rXl6OI9H94DP11hx12KEfc8lG/sOFRjoVhaJftzSKUFfzGKGis4LVKTn2HF5FG2G4quN3udrdrOF5F2xXFWf1y5JC42PaL8WGOIXLs6+lPf3rheSi5EBQe/vCHdxq5fvGLX9zErrOG42P8dREK0De84Q2F7/Gdo34YUGYSRxlufOMbt8H+6q/+qkG5xjEFKM5HN0cffXR71Ege4REcAeSYGke64EMYVuWYYFe7JNyQfLz61a8uxy7Z1p+NYMK34WkcKXv+859f/FAOjhZSf/e61716j6OhZCR/HLGQkUaMR3cRfBTlNfWVj1VRH9y6w5GGBz/4wQ3Kc7ACJ24teexjH1uOOtZxxi6shjLhj/rGL8ddieuCCy4o41FWltbh9Zs80TbOO++8Ut8Y9qavYyw+1x9HTSgruKDQ4tgexxc5epkV1sQrXlCPXUoTpTlb+TFEztjYpYiV3/pJXaPgJe7b3/72rbF6/MGHMGweO+vKWKF88E1tEl7DWK6FFpT59AV4WiyxlbxwNDGP1+94xzsabpKJXXWlP9Vjh8Z/FiVixx/JFXr729/ecOySI4sY4AavoTdxsS2dNOEP8AoWAWIHZJFB4MMcKa4n1eQfmYF+Dn+gjLTfY489dkKOYCynjYliB9LE0UkU9CIwVTove9nL5Fzwony0P3gPx5BIJxszhvcyzhMfizS0Wfg+iyj0Owysz9P+aTP0E+qNfgePJX2U6BzDnUYcaaX8TB4pD2Eh6h/MaT8sJpBnMKdf4MZYRl6FxbQ01O50BJYj57RZjiTTNmkn8EdN+Ihrmow5q7yMK/AwCMyf+tSnlvJxRIqFo0xD+fCf/dmfFbkLHgifQTYAF8qvI919PI30aIu0jw984AOFX8Bf4SuMJfRbEeUmbto6horhP+CcjdzLr/iJ8JV7/WTcow9TpxB1ztgBD0CezJcrDBlPOY4O7yNe5FIM6LOIBJa4cRyUfq8yf+hDHyr1QFkYXxnHM1E/yAdHHnlkuUWJvkEYeCrzC/LYRZRnEX2OuIfwPY2rjHMQfZf+QN/R+E6ewISy0x7ysXLcafPIGbQhyXlD+ALpDakb/E0j0qbu4IfIJvAHxsc+GtIeh7avofy4Ly92XzACUSGmdUYgBMmyHY7tYzGRXeHYBEcIMD4bwtGEETiMfUaVl7/otBM5DaZZ3KMDr8TEcSUG0dYvW8s4ahEdcyLMWn5g8Ex5CSa3lqh6w3IEBGPBHLfQcRBtHwS3oaSjQ7E7oxz5IN8cGZIxqlCelLJ0HR3CqCTHRKgXwoFvMPipSc86OiRDeLGrZWo8+rhRR4dIn7pVPeuI2NijQ2PKq3Y17WgOx7/IU0yGC0Rq6yE4C7KpTx0disnaioyGZuPSyzg6pDzST2vi+BLlod+vld773ve2R6XgKSEslr6vOqyPv6mstbHdEAzaeo8J4US22B5O/RBnKFdWdLSO/iMjtAqgdNlmzXf9DoGuHDnU75icKEj7zEcHQthq3esXMJWBQuKDX1Au6jYm/cU7x7ZkiBb32C21EpO/Nj81P+XYHnGF8Noe5eN3XBtdJ9/+HpIP5aHeWo/BZuIHy3xcDzf9xQSsTUsvHJNSXYStglIf8CiFwZB1JtVBvY1d+DFWqH8oDj1ro8I6csj3UEZNtDOMpZMf+tgsgsdQZ8RDm2WsUpme8pSntMHp32qv9KcQqFcwJEg4ylUf94G/Ks42kniBx4iHEA7syS9+9TfrGCZHWeSXOsukMZ3voQDIn1ZCsVPCUQ6Rxm78c8xJx76oR+QAkcLi74QTTpBz+1S6assctVQ7pn6pD+UZGWEIaYzEoDB5o16IU20Md/qWCKOMGG0nHfzGLtS2bilzKAvktRyZFP/FP3kES/1prOcb73zPfEq4kRfardo2bSKn84lPfKItt8Z64UB+obHtH/lBbZa2k3nJNB6hwmtMJB8aV/nGUVnlLRRrbT+QG0/6xxAKxVtbD6FgaePNcdXtqE/GnFVeLgygLtUuSIP6Btcs54zlw6FoL/kGa8YQ5Z3jOyLVe83TyLPGXfKC8Xv5zX2WfiV+g7/M/7p4rtq35A/lo34Sb27DYEP8uIWCrvU+dDylPaj8yGAqi9x4xiJg2+ezO++xcNCmyYv6HrwbfPmTLIJ/xsiaFtnnFBdpTeN7+FP/xC9jJziSf43vud/UvBsZiHD8ZRrCF4bWTY63fo8FkBZr2hbjlrAnT5mnEXZoexzSvsbw4zrf/r0cBCZb4XLScKwVAhKOxAjqZ6witCFQxOh7aLFbd018+SYBA8UEDAk3Jv6LptDOl7hhzkzKlkFinnlAkxKDcqH8GEJStDCZ1rl9CdYMemBFfAxcmZjc4S7BRnUF851GyiMMtYuYPBCvBOIuP9lNihaEAQmh+SkhoR5gchzT3jVhQmiOlYryR964sUSCU54Iq72RLgNg/Yf9nkxjyhsrgwUbBqI+Er5x7XnxIoFjaDuUIMUAGKuRJT3KokGbQZz6YaJf0zw2WjhTTHz0lS5lp4QblIo1lvymfoYQgqXaAm0+U6w8lzyQViZNxBBCa1JcWdiMVfESD+XBBoBI8fDMRJnxyx8TINpVrEK1ykopHviuW5gU/vTTTy/h6vak7/VTE1SEzZokbJGHWFFsPyOsKH/5Vgj6vNxpX2BAf6gVSW1E6WVaPmizxEtfyxS7WNr0+E6fIT8oF2QTIFbLc5AV+rvySFsWoRBR3dWKFtoTYVA0ZFIb5BthwZ72FCu8LQ8AQxEYKo18Qw9CO3HAX4cQda7+Gzt82iCUh/gZZ0RSqjz5yU+WU3nCZ0mT8S7zgD5Fi8YD/KOMEMH7iIe/Ibw0t92+yXLdDzWGwBNETDLgs1mRhb0s8gGvEsF71J/IeyYmsPgHM7Xv2EVW3KhbwkJ5cjFkgQSlgTCBP8lWSqy4tu0ityXwJw+0VckuyCTKd65j8gNuir/u/9z6pm+KizAQNq74RtuJVfnixqRCbTKOBBc3/mWeRRgUTig6sv2ise2fchAX7V2EUo16jF0dcup9Zr6j+sIz/U1l5gnvo54Yi8Q7cJeCqDeB+CBFi+Kj7aG4ow7F38ArU5+MObS88HfSQ67qorF8GL6r/PNE8YI8iGwo6uNpGpPgReIL9Hdki8zLpMDJch2yIumBj/qO0huqaJF/8cQuxUVum7PGUxYnMhYoMVFkoxwTBnynLccu38IHiFMyHAr8TBpXCENcWkBkgVfpxMUMbZBF97mhfE8ZEA/J9aRveUFQPErfXvnKV5byED5Txp7y1nwhf59VNzne/A7v0zwsjwXIgcjwpFsrWsa2x2ntayw/znn3+3IQsKJlObhOjVWCF52RwYxOFtsNy24LBDkpTogERigGyCAqkkAJ48rEarMYSHZf6zsrghpsEBiWRRoIGPxFsZW2xSALU/re9ZRgzeBJeAljYKNJLO8IbZmkcY8jQ8UZ5Rb+WHWdRlIE9ClaJKAr7Wlx8U2KFtJm0Kz/cOdvyOSgKy0pWhRP/aQecjuUoqX2p9+1kDWmvFJu5RWnOs/CA2FRig/SzkSbob7zn3aMZEULYSRkq74WqWghHxJ0+vqK0hd+9bNLsMhl1bsE8Rp/vrOCTbx54oY7gzzuKjtuIk2AwVukuqzjiaM7JR7iyhMmJme4gUGe1Co+BH++84dAlEn9HwFzCPUpOLQbjTTyxF1xSkjNyibelS8mP2OoLx/EIZ4C/8wkY9GkWde3Jhs1fxIPZjW/JiklakWL8pZXmQmrFXnGoXrlU5MydveINImDl2oSwzetnNeKAIWrn6yoU2YmP4wrmZhoK24p3fGbeRH+aW+qK66EF2lczPwaAVf8v8ZZCnfiGsJLs3CfDbSTZ+UnK6hRhpA2fUHlIq9xZGHV5FyTmnpyEHae2rhzHikLaUoJhdJGeci7YkhPE5auiR/fM2lHAXHVu3OQU3CnPNpxSljCSPmhuKT0oS1lmlfRIt4Ux25ydGUHGnnKPDDvPqplJAUe2/7Vbhmn8kSctlm3Y6WRn+xoUP1kdxSMcodXZFwZv/RtyO5N9VHCUCeZctvNSqw+GXNoeacpWubhw+zYU5nrnZUqTxdPyzJNVoIShnzkRRSU5yjeMqFkVrpMuDOJ7+YFwPy9fp82ER4znmYlaT1Wqp8y3mbeQl6UPoqETFJEwXtrnoqilPJnJcCi+9wYvke+xbdqvs03yY3kGRk/Uxw1KmUBm0yz+MKYusnx5neNQfCjmi+wcFNjTNix7VH128fPx/DjnHe/LwcB22iJVr9RxHnrGMymJq+zhXjK7zozGisjE+F1TjkY74T7Wn+Etexy5hXjtFzltwzi7GYICiVq7AlwJpezxLksnNWM1bT2LP6QfISgW3AO7X6xzxATxt5gnAHGfwhnxQ/PECrLmexg0s1OO+3UG3baB+wYQJzrHkNgHZP1VUFidbw12Lvq4wiHmHAWOxsEIR3wp46xDdB1HjmE5nLme1YSY8obg3mJbho2ISgVP5zJp01QRzGJL3YWdD0yfnQ9tPKHrYAQNvSzfYaCs6Hs2N6JSWvrvogX+gp5oe3M6ishSE/YoxibPueQIeyI1KRz+OIJ+i7bUJmf6Jvc9MQ9hL3yGfsLt771reW12NXQD8qBPSVItgQe+tCHTthfkF/iiO3dTShTip0V1Rn2BGh/MZEZbYtJcesZkxe9dsaFrasQ1IqNE3lUmUPpVuwuyH2tT8Wrp+JTPVBe+lymX/iFXyg/Q0nQOofQVngwDvT/oaR0VC8Kp/zE6m+x4yF3nl3pa8yh35EXkeKNCaKcpj7PPffc8p02W/MYbAuI1LZDgdTaNdE32loIssWuDfWIjZk+wh4LeYYYV9ZCMcEr7ZOxCnsb2HqCSEP0wQ9+EA1wKRu2PEgbA+PCG3/ZXspFF11U7ETEZKJEEZNERVWeoQBssGUC4Qe+BcGjIWymQOqnvGM7SfXFb8VJP51F4hvYHgHjTLhB8Df4NbZOIMZkEXYQQjFfbBPgJt6t7/M8sf+j8SEUXA3XqYtiUlxe4R8ilYHfoYyW88RT9TG0/d/5znduSJu6p51SL9jIiMngRLx9P5Re/V39E3dklFxv6od8i4kxj0HE+JjrhEDiz7zDV2QLKOcrv6+1vKQzDx/OeMREkmhWkfyI9+CBNgfRP7AvlKm25RSKhtZGVyidGngS45soFLnFvph+L/KpfjpkPM3tuMZCbQPbX7neyCu22aDYBVWe+id/8B/ZitI3eBs4iJcto8+N4XvKV99TZeG72oP86reecs94dvGFMXWjOOunxjfG6Hp8q/3q96LbY+77y+DHyrefwxCwomUYThvmK3fUzDRCw16ELyYmDBRMNhF0Y7tbySvC6aIIY7ChyS8DGIbklkVMfiEGFAYRykv5Y/WoQcmBkgWhKmxSFAOOY/KBQIwAnI2C1uER7CWQSoDEjwRFjMplBlaHn/Y7VnvLZwmF0/yu5zcExtjZUJJk8ouQggE3jK7JWN88+RlTXtJBMESQxvBlHkCVtoRsjKtCGMtkgoUBMU0GUO5g3A7CYNy0toqSEwVM7BwoxtVKoAX8ow3FSlmJKXY5LSDG6VHIACrKwJoksGfhAj/iKfqew8mvviGoqc3GLpyiqMz+eUeRozrgt+LIxulwzxSr8EXRwq1WTFxQNtC/oThCk73O9Y5xcIh21dWeJIiqv+N3SL7xN5bEt/VU+K586ZvwzxOJbEhP/UD+pz2VruKU3/q33HkKi5xHlBRScDLuSLmHcVAoG5osDj3/EPwgKWN7vLWGjjHU2EWqwy7lQVYExWphG5wbydZKjE8YmkSgxuB8rJpOKJ8ZLzDcyMQlVvtLchgWrglFDeORJqPqw2CcCfdYaS2GQGOnWcNNZihvULqgzJVyKt8QR/4yHXPMMeXnEAWd6j6H13uerGO0VeMkfDtWUYvilD6Vy5DbEPGghBLVbZCxXpTzkcsG31bdyy/PbJQ7p0n9dFGddvajtHM8sUuqGEulzigjhoL5Q8mHjJT7ao5L7+qHGRu+KS35y8+cx5yX7Gfoe45LeSGsxgPes/vQ8krB2lWOtfBh2r0WUchbJuUzl0ltRAs32X/XOwoF5DnkSYjJrkjx67eeue3Kresp/pPzh7+x42kXpl3pDXXrKxfh1aeQ/SDhyfui+hxxDeV7+BV14ZDbbY2zftfhch+q+cLYulHe6idGuqGhCliFH9Me+9qX4hrDjxXGz+UhYEXL8rDtjVnMutY29wbo+MDKErd6MKljkhJbAsuEBcEP4Qsr/IsgLMrDZBn0uFVANyYtIu4cB6tR7CahLFgJrwnMGBARcOJY0GhFC6s3KFqmEZbKIRQOO+64Y+uVlSRWJhGa16poQREQR8UmhJs2oQ1+QfnA6h47W7gCO9/0MDZrUrQMLa8UJ9yUgYBXk1Ya8Acx0UTRQl41yWeFRismsc26+Jv2j5teGPS5WWoRhMCp1WUE8HogX0QadRxMQpl0sSq+SNIusiyooGhR+YakNU2ou/vd717wgV9xkxEKPhQtCCe0waEkIV/5VThN2MAGP7kc+FG4PHFU2Gn5lp/6qfjqfGR/Eo7kVv+We37Gtv72Z+a9KNf7CCGrizTudH2r3ZS3HBdCKspDdrXF8ddy0wpCOX2QehvKL+in1IsU2HXa+q08MKHvIn3PdSi3nO98TXAc5Vm1kqu4cxi5dT1RejAOkH9uh2EXAmMXN8+g+ERxws0pKHUYN5iIS4mi+NhxQlgmd4wr8C2UM4zdXRN2Vl9Jg/GPcSyOCZWownCtomzbOGk98YlPbN3HvmgCo8lKDp93VUjZF0cyCs/mVijkEGQSFoLAhbGuLo/6JvHWu+3Uj/iWJ0W5/4LnzW52M7wMohzPoADhqasdgQu3RrEwwaIL9YfSELmBcYlvQ4i2P5Ryn83Y9IWX/1lpDMFkaHlVn11x6tuy+LDKCx5SyNIeZxFjDfIzSi9knQc96EFFUaf2WJdF7WEaf89pipcoPn3L7XjseKo49Mxll5ueyq+ectdTfVy/eWr3pOSWnNdF9bmxfK8Px5zvae95/Kz91XWcy7uWutFOocsuu6xOsv2tcslhbHtU+Lp9Ed9Yfqw8+Lk8BK6yvKgdcx8CGnzE2Pr84Z6Zac3kOTaEgMsWTwQvCW2sMHYJSdPS6frGSjPXdCK4MQGut2N2hZnXTav/XDHXRQwMMHuIiTE7GRZJDEhcXwehHECo1R8KJnBGqNJ29rFpc1QBHJlYInzXhBCVVxDq7+v1my3uELuLuAZwXhpbXq24IvTUhEKFFXSEIq3IMtmDGKCmDaZ1XPk3x8C4KnBRhIKQvNJWULSsB2k1O6/aD023VvRyzaV2r2hCxUCuFUJtzZ4VvyYE4nNd/unPmgzS77i+k4krx4iywNMVNrspjVqokbCIX8pVE9cEQ3kVc0i+63j0uy8ffNc3CUcKo/T0lDtP+c2TVJS/Wg3XrpAcRu81Fn3pSwjXd4XnKbdaGNUYxMSEST/1yE4GrsWetUNF8e+xxx7ltate5Ien/LFCWLdVxkXt5sp1qHyr/RJP3lk1DbdpyiviEVEnLD5A7Jpjok3bZReJdpKgwGUiDtVb1Cm3voXdjHKVOCv30/gYCyscaYPYPUF4+mU+BstkHyIv6sfFYYH/tPuGtDWhQLGCkoUdPMgeKFtoNypPLYuobZOtvvZVf4Onima1G/zlNPK74uA5T/snHP2QXXfw3LAphVORj8rLlH9qm7WX3P9rP+pvhBmiAK7D57QyDio736fJmHyfVV7F2zXpWxYfVjmVNvnUWIjc2qecxR+8RAtmjD1hF6fIttOwVnpDZHbSUL7qOhs7nk5rG6pDpUW6IoXTU+7TnmFMt3zmKmxo0X1uHr4n3LvaVsnkT/+hQBeBC/wXqusrY5Xf8Tu2bgjTRRpvpAzv8pPH6Hnao/Jety/SGsuPu/Jnt8UiYEXLYvEcFJuExtzZ+gJm5q/OhV92miDksY2ZjsVxDwSwMJLUuVsChoPAF1b3+5KacIcpotWF2Emic+H8ZmCWEMXvML5Y8jGkPPivibxRBogzz30kRQvfTzvttD5vc7mzSoiAyoqizr4qIgRF7E1AEpD1begToTRucyjeiSsrbBgMmbjstddenbt5hqaxCH/sDtGOAnZ8zEtjy/uoRz2qTCKZzGMzRQIC54Rp0xC7KbR6zQoweeVIEZONPKDST6ZNqHKZOMIiRUJ2H/vOjhIpqcIYb3ONa1xjbBRz+Rc2H/jABwbb7NF59SwIMGnN9mTypDOM45W8YRchjENP5JOdQ7RdzrSLxBsy79K3/GRSiuKA1U4mrrxj92AMiSfmiTXh4V2qV+zwZAqjh60glvmN4pJwl8PMelfYOh+EEw51vAqjZ05DYbIbSo2jjz66OMGHcjjsdUgRlusOz6qP7H+aO9/kV/0QN/g7NsXYcQb/ZVLN8RUmLZp0428WSakKD6zbE0dENUmSMpX2wdiWCeU3/BrK7Vb5zvWw3377tbvLUMyKGMc04cJtzPilnSTwH46l0tYYO9SeUHSww4cdmiggMknRDv+S4ozvUiCoXDkM77IlRT9kMsmKfFZKsktMRP4yT6SsYUxz1PiiiZzipB2hEIV03JT3uKWERwPOItqNdiHW7TG37TxBImzuI5mnMGHXzkWO7tQ7FpF/wEOU41Gb0Dc9+/oF3xUmt3+UKyjGMknxP2siSJhc7hyH0sIt57v+XX/Lceg9xyU3PXP47C/nK7sPLa/Cd+0kmYcPKz7lu+vZVXfqe/ivj4gjc6MYhuCT2vGT26z6H37Eg3iHlF7mK5d/6f4vHHUMJ/saM55mLHL9EZ++5TaqdJR+1zf8ZOUavzmWqiNUsgWz6D43D98T7l08MR9tz7IM/Fi7lDMPpJwZQ2GEu2hM3ShM/UQegihvXhBmIVXzB7U//M3THpX3rvY1lh/DO9mlqcUn8mRaMALR4UzrjEAIXytRjeUKsFlJY8kfv/zFTovWuyysc9MDFqa5mQAr8dwkwnXG+A2m0vrXFcfEk6/mbD2kF66PU5o8Q7Nd/kKYbG9vCMVLCcEVaPIbq/gpluGvuoqtvtWkK4Zg/iW92B0y9brDfOtQVzy4kW/KBOm2plD4lN/1P107GYJxZ7qzbh0ivhgY29tuSDsE85XYwVOw5Tdl0s0CumUnJhF1VspvtaF8C0Wnxx5HtZ+u+LlpQnUaA3CJIQaD4kb5ud2k7y8GxDbFMeUlUBxBaNMlnRBi29+0c24ayUQ7BTNhx21eoYxr8cRdV0LStvgdK7I5ivIeCss2nRAW2+/cQsMViKF4ar8Tv/5y/wpFUeunDxvqTNf9hQBa/HPbUZ//ITdshSBSrlUVBtzYQP2Rzq4/vWYZXDJlnEOYLlcvg3dMoFd0+1IoZdsgISy0/Z50wCQmqCu0HX5TlphMtf5VJ6F4at36XkifOPiDd40lpUVd1cTNYYo7hMeCC1dgqow1v6Fc+I+jg3VUM39Pywd5I17xTEUGv8RdPEjuPMW/+B4T3vYT/VFpwT/gVzHBaMuJf9prJvHMGl/aHf5pzzV1YRGTjzYd6pZxh/qjrdAeuCkpBMg6qlW/4Qu5b3OdMOMVcdIOiVdEvOSRP3gs5ade8YdbfQNNKOyKO/wik/gdYWgL3EymG64Uf9cV4TmO+j3zBfIp0q2CxAsmNeX+R9vAj/iT8gIGYSx6IqhuMJKf+pYfPOf+RL3HDrGVUEC0V8GS9izSeEw6yBTc1BFKk/aWqlB4TIyB4Ilf6iSOC5W2ix/lE/dQDrU3WzHG6Rs3nNB+SQe69NJL229gw41WoRwr33IdEid1TTjdCJPrgFs8lEbf1ctj2z9p8kffDEVauSlMfTEUjyWP0/6BgfJEXxIhj8kdOSPTkHJk//nGnpwGfsBB6RCvqE/GHFremFC28XJ9NjwpXxE8lg/38T7ll2cfT6O9q4yh0C11RN3AD7hxB2KMlx/aDv2PW9zkxpM2GUrk4p9/hMcdeW0IqR/SPmjD3FAWiz8l6JjxVLdeknYoiiaSpq/hTho1iQfVYxn9jTDULbcGggV1JTyRgzMtss/Nw/ck5zJexO6jckNrKM3aLDKmUh6e8Ez16Txu5BtMZ/WnMXXTZqJ6YXyLHYglX+BK+wvlTztm1XU2T3uc1r7G8ONQHLb5AjvTchBolhOtY52GgCZAXQyyDhdHEUqHpXNmJQDMhokR7n1/CDuaAOmqTBhsl4CW083MtS/uWKUrQWLHQdtRGVDnITH5OKs+M3hmoF1CrCJAOCPvCNR9BBaa5EhgyhPtOpwE8y5hdYiihfhihWGFiQVpZ2ypyzyQxgp1+d6lCCEeDUDzKloYXEm/L35NtBBAIClacp673hHKMw0tr8KguNNEWPEzCUEA7yIwY8Ipv3oSBoWDSFd5dilamMgKz1z/dR0pbj0ZUEWKX9/6nlznDknR0ucP9y7lgdLLT/q4riXM8YnP1IoWyqvBWP4Jz0RO+aI9ZmICUONM34mjVxNXS1LfipM0ZhETFvmXknFWGH2nHApL/ruI9iRhTH6pV65gzIoywqp/wzfH0Kx8SLgVr1HcUsCQr5rgEcpvbpP44+petVf5oTxSuNB/Mqkd1xiJ71LnNfVhgTJEaXY9Saurj9Xx02aZCOU4CBs2PSa8gi0TL7DLfmnbXXxYWHeNrUxCczz4YZIoN4ThMdQ3cRVvpTx5UqC46WeqK5WJNhq7VFoBHfeuSZ3GP/hzHzHZVZkUP0I01/sOoaxoUXg9yVOsEk9EQx+u2yNKKJSaGlcJn8dr8Rnc4+hXUeQo0tiNM1HXTJ5FYFv3Z/prjhu/eQEoT5gVD88x7Z/2yqRVOOhJHaMQh+/NooxrrB633rMChnE2E8o2pdVXjuy/Lw38SKYgvqzE65Ixx5SX9ow8qHxS5131Udcb2HXx4bwoWC+uqKyEJb2ap/E9duJOtDv5y+2WPqL88iTPTOTVv3CjXcbx/JKk0qvHUuWnfsZRyok+SBvN/W/oeIpMrHyysJQp9xP4ZCa1VcqQSfxRcepJ+SWbZP+8L6rPzcP3suKQvKIs4xpuEWOh5By+w/fg6bE7qcUNvioawheG1o3i7HoyZkuGFsbwxNw/6WOise1xWvsaw49pN+LdtH3TchDYhmijIZjWEQG2s7HVNCZqM7dcxwDeYIuF4yv86cw+ccQgVY4ChSBa7H9w3jk6b9mOjX0R6HnPe157NeRXv/rVYsVdxy/6isy2NLbXc/yBP+LlLCDb7vgjbX7L+Bjb10hXxvH64u1zZ3sg8WK0MG+F7vIPZmDCNnr81me8u8JsVje2FbL1PFZLVhlLnJVn6oiuS/nBIgSA1kDitLBcrTvtNp5pYdf6bUx5YxWibPXlvGs2AtqXB9oEWzPpHyFAz2xHffFkd2Gc3fQO5put7YUg04TirRyvok2ddNJJ5bawGPDLEQ/lXU/6bKzwlH4r48/q2/THruMgbOcPQaSc2+/r78RLPcQgPvMIVQgF5Wx9KMaaUPAqa4Of4qXU1bR2gj+Ok4VA2WtrCj/UKXF1lX1apqblQ/HC53SlKnFRX/Aw3OvbNeD5EHnh+k7aWyb6PvUA1hixJt9sj8cffSHnnyMxjDe4Z4xwp566yqs852+kyREeDK0//elPL8dJCQ9PxkZHCIslixhCDYE2Z7f3nfyzZZkyYhugtueRA7J9nPaC7Za8bTz7Ub5rrOWHvLLNHLxk2wUc+E35xh75Yws4GOX8EA91C+V6UB705LghRuBjotDemENYbp8gHzrrL/88+U49027Avo/wRznJX0xwR5UrJgPlOBR2Ydj+DubkZ1r90Nc5zsORC/ypPVMP2HW5cdiPwSaWCMywvYMMAa+qCb5EWDDowpCxBPzg9Rl7xUP81LX4NPVb09j2T3jydEEcs0DmwSYRduvqvlmno9+EpV7oh+Cpti6ZBgzppzmvQ8qh+Hn2pcE30oGvk4ecDvnpkjEV35Dykk/sk1FX9M9cBuIR0T9n8eFZvI+4+nia0iE/2I2ibKHk6OwrtFV4aChRyhik+qC8fLvFLW7RlmNWeko3PzW+chtWXzuZNZ7mtlHLx9PGD/FBcMj9hyPXsejanHjiieUoIvwnlBO9Y2IuzyL6HPGN5Xvyjw0eHXvO+aI9Y/sQPFRnatP4y7iN6U+z6ibnoe+do7C0pz333LPwRKVPX6/H9THtkfSmta8x/Jg8wW8ZJ0zLQcCKluXguvRYmZggBHHFZNe1mtg8QCjum2QtPYNOYF0ROPLII9sz8dMSjtXuYlthmh9/2xoIYH8Go8ZHHHHEKlsYm6WE2OvA7gPnhGOVe7Nky/noQABFSqx6ldtVULTURD1SnyizUNSbrpgIYFsmtqYXwRvFrckIGIGtgYDmDRidR6FqMgJGYPkIbLv8JJzCohFglQolC5r4LiUL6WmVSM9F58HxbS4E5tkNsLlK4NwsGgFWLyFWtzYjsbLJ5JydBVaybMYamswTBnehww8/fPLDT3/p1g92aJiuuAiwGgyxim8yAkZg6yAgmWCoUd+tU3KXxAhsHAK+dWjjsJ87ZW1vRuHCLQpsExOx7fLss89udNNGGDrUJz+NgBG4EiGg4wt6braix1n8kiVunDJtfgR0VJRbtTiiIGL84WpQ3cTj+hQyV8ynJmE6wnHFLIVzbQSMQI2AFl30rL/7txEwAotHwIqWxWO69Bg5X8v1mhBXGu6www7NwQcf3Oyzzz7l7G8YvCrn/zgn73N3S68OJ2AENiUCOr6xGYWqMGLXhDHTghvHTUybH4G42a7sooxbNMq5d662PfDAA8v4wzWpnEU/5ZRTGitaNn9dTsshtgmgzcg3puXb34yAEZiOgK4DljJ1um9/NQJGYBEI+OjQIlDcgDiOO+645t73vneD0VuM1YWV62L06+ijj27CinRz6KGHDjbStgHZd5JGwAgsGYE73vGOxdAmRtc2G2EAFR6GgcxZxrk3W96vrPmJm0WKIcN3vvOdxWArhrzZXcmxL4yWxg1m5feVFZ+tUm4MpseNYcXI71Ypk8thBIxA02Cj5ZBDDpn74gpjaASMwHgEbAx3PGYOYQSMgBEwAkbACBgBI2AEjIARMAJGwAgYgU4EfHSoExY7GgEjYASMgBEwAkbACBgBI2AEjIARMAJGYDwCVrSMx8whjIARMAJGwAgYASNgBIyAETACRsAIGAEj0ImAFS2dsNjRCBgBI2AEjIARMAJGwAgYASNgBIyAETAC4xGwomU8Zg5hBIyAETACRsAIGAEjYASMgBEwAkbACBiBTgSsaOmExY5GwAgYASNgBIyAETACRsAIGAEjYASMgBEYj4AVLeMxcwgjYASMgBEwAkbACBgBI2AEjIARMAJGwAh0ImBFSycsdjQCRsAIGAEjYASMgBEwAkbACBgBI2AEjMB4BP4fqisCPwEn5XUAAAAASUVORK5CYII=;" vertex="1" parent="1">
          <mxGeometry x="78" y="90" width="1051.45" height="353" as="geometry" />
        </mxCell>
        <mxCell id="eP5wv--7RmJ1oQfR4Wkm-2" value="&lt;h1 style=&quot;margin-top: 0px;&quot;&gt;E&lt;sub&gt;1&lt;/sub&gt;&lt;/h1&gt;&lt;p&gt;last(E&lt;sub&gt;1&lt;/sub&gt;.tstamp) - first (E&lt;sub&gt;1&lt;/sub&gt;.tstamp) between INTEVAL &#39;25&#39; DAY AND INTERVAL &#39;30&#39; DAY&lt;/p&gt;&lt;p&gt;mann_kendall_test(E&lt;sub&gt;1&lt;/sub&gt;.temp) &amp;gt;= 3.0&lt;/p&gt;" style="text;html=1;whiteSpace=wrap;overflow=hidden;rounded=0;" vertex="1" parent="1">
          <mxGeometry x="214" y="676" width="359" height="120" as="geometry" />
        </mxCell>
        <mxCell id="eP5wv--7RmJ1oQfR4Wkm-3" value="Raw Data" style="ellipse;whiteSpace=wrap;html=1;aspect=fixed;" vertex="1" parent="1">
          <mxGeometry x="-78" y="685" width="80" height="80" as="geometry" />
        </mxCell>
        <mxCell id="eP5wv--7RmJ1oQfR4Wkm-4" value="" style="shape=flexArrow;endArrow=classic;html=1;rounded=0;" edge="1" parent="1">
          <mxGeometry width="50" height="50" relative="1" as="geometry">
            <mxPoint x="53" y="725" as="sourcePoint" />
            <mxPoint x="138" y="725" as="targetPoint" />
          </mxGeometry>
        </mxCell>
        <mxCell id="eP5wv--7RmJ1oQfR4Wkm-5" value="Raw Data" style="ellipse;whiteSpace=wrap;html=1;aspect=fixed;" vertex="1" parent="1">
          <mxGeometry x="-72" y="506" width="80" height="80" as="geometry" />
        </mxCell>
        <mxCell id="eP5wv--7RmJ1oQfR4Wkm-6" value="" style="shape=flexArrow;endArrow=classic;html=1;rounded=0;" edge="1" parent="1">
          <mxGeometry width="50" height="50" relative="1" as="geometry">
            <mxPoint x="59" y="546" as="sourcePoint" />
            <mxPoint x="144" y="546" as="targetPoint" />
          </mxGeometry>
        </mxCell>
        <mxCell id="eP5wv--7RmJ1oQfR4Wkm-7" value="&lt;h1 style=&quot;margin-top: 0px;&quot;&gt;E&lt;sub&gt;2&lt;/sub&gt;&lt;/h1&gt;&lt;p&gt;last(E&lt;sub&gt;2&lt;/sub&gt;.tstamp) - first(E&lt;sub&gt;2&lt;/sub&gt;.tstamp) &amp;lt;= INTEVAL &#39;5&#39; DAY&lt;/p&gt;&lt;p&gt;last(E&lt;sub&gt;2&lt;/sub&gt;.temp) - first(E&lt;sub&gt;2&lt;/sub&gt;.temp) &amp;lt; -20&lt;/p&gt;&lt;p&gt;linear_regresion_r2(E&lt;sub&gt;2&lt;/sub&gt;.tstamp, E&lt;sub&gt;2&lt;/sub&gt;.temp) &amp;gt;= 0.95&lt;/p&gt;" style="text;html=1;whiteSpace=wrap;overflow=hidden;rounded=0;" vertex="1" parent="1">
          <mxGeometry x="214" y="470" width="359" height="136" as="geometry" />
        </mxCell>
        <mxCell id="eP5wv--7RmJ1oQfR4Wkm-11" value="" style="shape=flexArrow;endArrow=classic;html=1;rounded=0;" edge="1" parent="1">
          <mxGeometry width="50" height="50" relative="1" as="geometry">
            <mxPoint x="568" y="551" as="sourcePoint" />
            <mxPoint x="653" y="551" as="targetPoint" />
          </mxGeometry>
        </mxCell>
        <mxCell id="eP5wv--7RmJ1oQfR4Wkm-12" value="&lt;h1 style=&quot;margin-top: 0px;&quot;&gt;E&lt;sub&gt;21&lt;/sub&gt;&lt;/h1&gt;&lt;p&gt;last(E&lt;sub&gt;21&lt;/sub&gt;.tstamp) - first(E&lt;sub&gt;21&lt;/sub&gt;.tstamp) &amp;lt;= INTEVAL &#39;5&#39; DAY&lt;/p&gt;&lt;p&gt;last(E&lt;sub&gt;21&lt;/sub&gt;.temp) - first(E&lt;sub&gt;21&lt;/sub&gt;.temp) &amp;lt; -20&lt;/p&gt;" style="text;html=1;whiteSpace=wrap;overflow=hidden;rounded=0;" vertex="1" parent="1">
          <mxGeometry x="677" y="445" width="359" height="106" as="geometry" />
        </mxCell>
        <mxCell id="eP5wv--7RmJ1oQfR4Wkm-13" value="&lt;h1 style=&quot;margin-top: 0px;&quot;&gt;E&lt;sub&gt;22&lt;/sub&gt;&lt;/h1&gt;&lt;p&gt;last(E&lt;sub&gt;22&lt;/sub&gt;.tstamp) - first(E&lt;sub&gt;22&lt;/sub&gt;.tstamp) &amp;lt;= INTEVAL &#39;5&#39; DAY&lt;/p&gt;&lt;p&gt;linear_regresion_r2(E&lt;sub&gt;22&lt;/sub&gt;.tstamp, E&lt;sub&gt;22&lt;/sub&gt;.temp) &amp;gt;= 0.95&lt;br&gt;&lt;/p&gt;" style="text;html=1;whiteSpace=wrap;overflow=hidden;rounded=0;" vertex="1" parent="1">
          <mxGeometry x="677" y="562" width="359" height="106" as="geometry" />
        </mxCell>
        <mxCell id="eP5wv--7RmJ1oQfR4Wkm-14" value="E&lt;sub&gt;21&lt;/sub&gt; equals E&lt;sub&gt;22&lt;/sub&gt;" style="text;html=1;align=center;verticalAlign=middle;whiteSpace=wrap;rounded=0;" vertex="1" parent="1">
          <mxGeometry x="1028" y="556" width="112" height="30" as="geometry" />
        </mxCell>
        <mxCell id="eP5wv--7RmJ1oQfR4Wkm-15" value="E&lt;sub&gt;1&lt;/sub&gt; during E&lt;sub&gt;2&lt;/sub&gt;" style="text;html=1;align=center;verticalAlign=middle;whiteSpace=wrap;rounded=0;" vertex="1" parent="1">
          <mxGeometry x="1028" y="716" width="112" height="30" as="geometry" />
        </mxCell>
        <mxCell id="eP5wv--7RmJ1oQfR4Wkm-16" value="Lower price" style="text;html=1;align=center;verticalAlign=middle;whiteSpace=wrap;rounded=0;" vertex="1" parent="1">
          <mxGeometry x="748" y="453" width="135" height="30" as="geometry" />
        </mxCell>
        <mxCell id="eP5wv--7RmJ1oQfR4Wkm-17" value="higher price" style="text;html=1;align=center;verticalAlign=middle;whiteSpace=wrap;rounded=0;" vertex="1" parent="1">
          <mxGeometry x="750" y="570" width="135" height="30" as="geometry" />
        </mxCell>
        <mxCell id="eP5wv--7RmJ1oQfR4Wkm-19" value="Find E&lt;sub&gt;21&lt;/sub&gt; directly on raw data stream" style="text;html=1;align=center;verticalAlign=middle;whiteSpace=wrap;rounded=0;" vertex="1" parent="1">
          <mxGeometry x="1183" y="526" width="124" height="30" as="geometry" />
        </mxCell>
        <mxCell id="eP5wv--7RmJ1oQfR4Wkm-20" value="Check E&lt;sub&gt;21&lt;/sub&gt;&amp;nbsp;whether satisfication condition E&lt;sub&gt;22&lt;/sub&gt;" style="text;html=1;align=center;verticalAlign=middle;whiteSpace=wrap;rounded=0;" vertex="1" parent="1">
          <mxGeometry x="1171.5" y="586" width="147" height="30" as="geometry" />
        </mxCell>
        <mxCell id="eP5wv--7RmJ1oQfR4Wkm-24" style="rounded=0;orthogonalLoop=1;jettySize=auto;html=1;exitX=0;exitY=1;exitDx=0;exitDy=0;entryX=1;entryY=0;entryDx=0;entryDy=0;endArrow=none;endFill=0;" edge="1" parent="1" source="eP5wv--7RmJ1oQfR4Wkm-21" target="eP5wv--7RmJ1oQfR4Wkm-22">
          <mxGeometry relative="1" as="geometry" />
        </mxCell>
        <mxCell id="eP5wv--7RmJ1oQfR4Wkm-25" style="rounded=0;orthogonalLoop=1;jettySize=auto;html=1;exitX=1;exitY=1;exitDx=0;exitDy=0;entryX=0;entryY=0;entryDx=0;entryDy=0;endArrow=none;endFill=0;" edge="1" parent="1" source="eP5wv--7RmJ1oQfR4Wkm-21" target="eP5wv--7RmJ1oQfR4Wkm-23">
          <mxGeometry relative="1" as="geometry" />
        </mxCell>
        <mxCell id="eP5wv--7RmJ1oQfR4Wkm-21" value="4: during" style="ellipse;whiteSpace=wrap;html=1;aspect=fixed;" vertex="1" parent="1">
          <mxGeometry x="1608" y="360" width="80" height="80" as="geometry" />
        </mxCell>
        <mxCell id="eP5wv--7RmJ1oQfR4Wkm-27" style="rounded=0;orthogonalLoop=1;jettySize=auto;html=1;exitX=0;exitY=1;exitDx=0;exitDy=0;entryX=1;entryY=0;entryDx=0;entryDy=0;endArrow=none;endFill=0;" edge="1" parent="1" source="eP5wv--7RmJ1oQfR4Wkm-22" target="eP5wv--7RmJ1oQfR4Wkm-26">
          <mxGeometry relative="1" as="geometry" />
        </mxCell>
        <mxCell id="eP5wv--7RmJ1oQfR4Wkm-29" style="rounded=0;orthogonalLoop=1;jettySize=auto;html=1;exitX=1;exitY=1;exitDx=0;exitDy=0;entryX=0;entryY=0;entryDx=0;entryDy=0;endArrow=none;endFill=0;" edge="1" parent="1" source="eP5wv--7RmJ1oQfR4Wkm-22" target="eP5wv--7RmJ1oQfR4Wkm-28">
          <mxGeometry relative="1" as="geometry" />
        </mxCell>
        <mxCell id="eP5wv--7RmJ1oQfR4Wkm-22" value="3: equals" style="ellipse;whiteSpace=wrap;html=1;aspect=fixed;" vertex="1" parent="1">
          <mxGeometry x="1508" y="470" width="80" height="80" as="geometry" />
        </mxCell>
        <mxCell id="eP5wv--7RmJ1oQfR4Wkm-23" value="5: E&lt;sub&gt;1&lt;/sub&gt;" style="ellipse;whiteSpace=wrap;html=1;aspect=fixed;" vertex="1" parent="1">
          <mxGeometry x="1708" y="470" width="80" height="80" as="geometry" />
        </mxCell>
        <mxCell id="eP5wv--7RmJ1oQfR4Wkm-26" value="1: E&lt;sub&gt;21&lt;/sub&gt;" style="ellipse;whiteSpace=wrap;html=1;aspect=fixed;" vertex="1" parent="1">
          <mxGeometry x="1408" y="580" width="80" height="80" as="geometry" />
        </mxCell>
        <mxCell id="eP5wv--7RmJ1oQfR4Wkm-28" value="2: E&lt;sub&gt;22&lt;/sub&gt;" style="ellipse;whiteSpace=wrap;html=1;aspect=fixed;" vertex="1" parent="1">
          <mxGeometry x="1608" y="580" width="80" height="80" as="geometry" />
        </mxCell>
        <mxCell id="eP5wv--7RmJ1oQfR4Wkm-30" value="&lt;h1 style=&quot;margin-top: 0px;&quot;&gt;&lt;span style=&quot;background-color: initial;&quot;&gt;模式拆分&lt;/span&gt;&lt;/h1&gt;&lt;h1 style=&quot;margin-top: 0px;&quot;&gt;&lt;span style=&quot;background-color: initial; font-size: 12px; font-weight: normal;&quot;&gt;按照时间跨度约束、时序关系约束、数值约束，将模式拆分为多个子模式及其之间的时态逻辑约束。不同的子模式位于树结构的叶子结点，直接在流上识别事件。向上聚合过程即判断时态关系是否满足的过程。&lt;/span&gt;&lt;br&gt;&lt;/h1&gt;" style="text;html=1;whiteSpace=wrap;overflow=hidden;rounded=0;" vertex="1" parent="1">
          <mxGeometry x="1388.5" y="41" width="386.5" height="168" as="geometry" />
        </mxCell>
        <mxCell id="eP5wv--7RmJ1oQfR4Wkm-33" value="&lt;h1 style=&quot;margin-top: 0px;&quot;&gt;Planning&lt;sub&gt;0&lt;/sub&gt;&lt;/h1&gt;&lt;p&gt;1 concurrent 2 concurrent 5&amp;nbsp;&lt;span style=&quot;background-color: initial;&quot;&gt;then 3&amp;nbsp;&amp;nbsp;&lt;/span&gt;&lt;span style=&quot;background-color: initial;&quot;&gt;then 4&lt;/span&gt;&lt;/p&gt;" style="text;html=1;whiteSpace=wrap;overflow=hidden;rounded=0;" vertex="1" parent="1">
          <mxGeometry x="1881" y="126" width="335" height="86" as="geometry" />
        </mxCell>
        <mxCell id="eP5wv--7RmJ1oQfR4Wkm-35" value="&lt;h1 style=&quot;margin-top: 0px;&quot;&gt;Planning&lt;sub&gt;1&lt;/sub&gt;&lt;/h1&gt;&lt;p&gt;1 concurrent 5&amp;nbsp;&amp;nbsp;&lt;span style=&quot;background-color: initial;&quot;&gt;then 3 2&amp;nbsp;&amp;nbsp;&lt;/span&gt;&lt;span style=&quot;background-color: initial;&quot;&gt;then 4&lt;/span&gt;&lt;/p&gt;" style="text;html=1;whiteSpace=wrap;overflow=hidden;rounded=0;" vertex="1" parent="1">
          <mxGeometry x="1881" y="223.5" width="335" height="86" as="geometry" />
        </mxCell>
        <mxCell id="eP5wv--7RmJ1oQfR4Wkm-36" value="&lt;h1 style=&quot;margin-top: 0px;&quot;&gt;Planning&lt;sub&gt;2&lt;/sub&gt;&lt;/h1&gt;&lt;p&gt;2 concurrent 5&amp;nbsp;&amp;nbsp;&lt;span style=&quot;background-color: initial;&quot;&gt;then 3 1&amp;nbsp;&amp;nbsp;&lt;/span&gt;&lt;span style=&quot;background-color: initial;&quot;&gt;then 4&lt;/span&gt;&lt;/p&gt;" style="text;html=1;whiteSpace=wrap;overflow=hidden;rounded=0;" vertex="1" parent="1">
          <mxGeometry x="1881" y="321" width="335" height="86" as="geometry" />
        </mxCell>
        <mxCell id="eP5wv--7RmJ1oQfR4Wkm-37" value="&lt;h1 style=&quot;margin-top: 0px;&quot;&gt;Planning&lt;sub&gt;3&lt;/sub&gt;&lt;/h1&gt;&lt;p&gt;5&amp;nbsp;&amp;nbsp;&lt;span style=&quot;background-color: initial;&quot;&gt;then 4&amp;nbsp;&amp;nbsp;&lt;/span&gt;&lt;span style=&quot;background-color: initial;&quot;&gt;then 3 1 2&lt;/span&gt;&lt;/p&gt;" style="text;html=1;whiteSpace=wrap;overflow=hidden;rounded=0;" vertex="1" parent="1">
          <mxGeometry x="1881" y="420" width="335" height="86" as="geometry" />
        </mxCell>
        <mxCell id="eP5wv--7RmJ1oQfR4Wkm-38" value="性质1: 不同利用小尺度事件反推大尺度事件，因为对于小尺度事件来说，看不见大尺度事件的全貌。" style="text;html=1;align=center;verticalAlign=middle;whiteSpace=wrap;rounded=0;" vertex="1" parent="1">
          <mxGeometry x="1857" y="540" width="329" height="60" as="geometry" />
        </mxCell>
        <mxCell id="eP5wv--7RmJ1oQfR4Wkm-39" value="取决于Cost，选择计划" style="text;html=1;align=center;verticalAlign=middle;whiteSpace=wrap;rounded=0;" vertex="1" parent="1">
          <mxGeometry x="2182" y="321" width="202" height="30" as="geometry" />
        </mxCell>
      </root>
    </mxGraphModel>
  </diagram>
  <diagram id="_m3CgLnIb3rX8onNefAa" name="第 2 页">
    <mxGraphModel dx="1826" dy="1051" grid="0" gridSize="10" guides="1" tooltips="1" connect="1" arrows="1" fold="1" page="0" pageScale="1" pageWidth="1200" pageHeight="1920" math="0" shadow="0">
      <root>
        <mxCell id="0" />
        <mxCell id="1" parent="0" />
        <mxCell id="vaK3OOJR81T8cbkaA7dZ-3" value="" style="edgeStyle=orthogonalEdgeStyle;rounded=0;orthogonalLoop=1;jettySize=auto;html=1;" edge="1" parent="1" source="vaK3OOJR81T8cbkaA7dZ-1" target="vaK3OOJR81T8cbkaA7dZ-2">
          <mxGeometry relative="1" as="geometry" />
        </mxCell>
        <mxCell id="vaK3OOJR81T8cbkaA7dZ-5" value="" style="edgeStyle=orthogonalEdgeStyle;rounded=0;orthogonalLoop=1;jettySize=auto;html=1;" edge="1" parent="1" source="vaK3OOJR81T8cbkaA7dZ-1" target="vaK3OOJR81T8cbkaA7dZ-4">
          <mxGeometry relative="1" as="geometry" />
        </mxCell>
        <mxCell id="vaK3OOJR81T8cbkaA7dZ-1" value="密度差消失&lt;div&gt;1-&amp;gt;0&lt;/div&gt;&lt;div&gt;between interval 15min and interval 30min&lt;/div&gt;" style="text;html=1;align=center;verticalAlign=middle;whiteSpace=wrap;rounded=0;" vertex="1" parent="1">
          <mxGeometry x="-430" y="40" width="261" height="50" as="geometry" />
        </mxCell>
        <mxCell id="vaK3OOJR81T8cbkaA7dZ-2" value="first(D.val) &amp;gt; 1&lt;div&gt;last(D.val) = 0&lt;/div&gt;&lt;div&gt;&amp;nbsp;last(D.ts) -first(D.ts) between 15min and 30min&lt;/div&gt;" style="whiteSpace=wrap;html=1;" vertex="1" parent="1">
          <mxGeometry x="-27" y="-20" width="150" height="60" as="geometry" />
        </mxCell>
        <mxCell id="vaK3OOJR81T8cbkaA7dZ-4" value="" style="whiteSpace=wrap;html=1;" vertex="1" parent="1">
          <mxGeometry x="-27" y="90" width="152" height="110" as="geometry" />
        </mxCell>
        <mxCell id="vaK3OOJR81T8cbkaA7dZ-6" value="E1: D.val &amp;gt; 1" style="whiteSpace=wrap;html=1;" vertex="1" parent="1">
          <mxGeometry x="-27" y="90" width="152" height="38" as="geometry" />
        </mxCell>
        <mxCell id="vaK3OOJR81T8cbkaA7dZ-7" value="E2: D.val = 0" style="whiteSpace=wrap;html=1;" vertex="1" parent="1">
          <mxGeometry x="-27" y="128" width="152" height="38" as="geometry" />
        </mxCell>
        <mxCell id="vaK3OOJR81T8cbkaA7dZ-8" value="E1 before E2 between 15min and 30min" style="whiteSpace=wrap;html=1;" vertex="1" parent="1">
          <mxGeometry x="-27" y="166" width="152" height="38" as="geometry" />
        </mxCell>
      </root>
    </mxGraphModel>
  </diagram>
  <diagram id="hC9Bq7xoC4xj32XiD1tn" name="第 3 页">
    <mxGraphModel dx="1426" dy="651" grid="0" gridSize="10" guides="1" tooltips="1" connect="1" arrows="1" fold="1" page="0" pageScale="1" pageWidth="1200" pageHeight="1920" math="0" shadow="0">
      <root>
        <mxCell id="0" />
        <mxCell id="1" parent="0" />
        <mxCell id="2MlvWHcVVSx4wjcfHvhn-1" value="" style="rounded=0;whiteSpace=wrap;html=1;" vertex="1" parent="1">
          <mxGeometry x="97" y="66" width="358" height="175" as="geometry" />
        </mxCell>
        <mxCell id="2MlvWHcVVSx4wjcfHvhn-2" value="Interface Layer Location Above Base of Tank" style="text;html=1;align=center;verticalAlign=middle;whiteSpace=wrap;rounded=0;" vertex="1" parent="1">
          <mxGeometry x="97" y="66" width="248" height="30" as="geometry" />
        </mxCell>
        <mxCell id="2MlvWHcVVSx4wjcfHvhn-3" value="SELECT * FROM ILLABT (&lt;div&gt;&lt;span style=&quot;white-space: pre;&quot;&gt;&#x9;&lt;/span&gt;PARTITION BY TANKID ORDER BY tsamp&lt;/div&gt;&lt;div&gt;&lt;span style=&quot;white-space: pre;&quot;&gt;&#x9;&lt;/span&gt;PATTERN (A+ B+)&lt;br&gt;&lt;/div&gt;&lt;div&gt;&lt;span style=&quot;white-space: pre;&quot;&gt;&#x9;&lt;/span&gt;DEFINE A AS last(A.tstamp) - first(A.tstamp) BETWEEN INTERVAL &#39;0.5&#39; DAY AND INTERVAL &#39;2&#39; DAY&lt;br&gt;&lt;/div&gt;&lt;div&gt;&lt;span style=&quot;white-space: pre;&quot;&gt;&#x9;&lt;/span&gt;AND man_kendall_test(A.temp) BETWEEN -3.0 and 1&lt;br&gt;&lt;/div&gt;&lt;div&gt;&lt;span style=&quot;white-space: pre;&quot;&gt;&#x9;&lt;/span&gt;&lt;span style=&quot;background-color: initial;&quot;&gt;B AS last(B.tstamp) - first(B.tstamp) BETWEEN INTERVAL &#39;0.5&#39; DAY AND INTERVAL &#39;1&#39; DAY&lt;/span&gt;&lt;br&gt;&lt;span style=&quot;background-color: initial; white-space: pre;&quot;&gt;&#x9;&lt;/span&gt;&lt;span style=&quot;background-color: initial;&quot;&gt;AND man_kendall_test(A.temp) &amp;lt;= -3.0&lt;/span&gt;&amp;nbsp;&lt;/div&gt;&lt;div&gt;)&amp;nbsp;&amp;nbsp;&lt;/div&gt;" style="text;html=1;align=left;verticalAlign=middle;whiteSpace=wrap;rounded=0;" vertex="1" parent="1">
          <mxGeometry x="101" y="91" width="356" height="148" as="geometry" />
        </mxCell>
        <mxCell id="2MlvWHcVVSx4wjcfHvhn-4" value="MATCH_RECOGINIZE" style="text;html=1;align=center;verticalAlign=middle;whiteSpace=wrap;rounded=0;" vertex="1" parent="1">
          <mxGeometry x="97" y="36" width="173" height="30" as="geometry" />
        </mxCell>
        <mxCell id="2MlvWHcVVSx4wjcfHvhn-5" value="" style="rounded=0;whiteSpace=wrap;html=1;" vertex="1" parent="1">
          <mxGeometry x="97" y="259" width="358" height="187" as="geometry" />
        </mxCell>
        <mxCell id="2MlvWHcVVSx4wjcfHvhn-6" value="Density Difference Between Two LNG Layers" style="text;html=1;align=center;verticalAlign=middle;whiteSpace=wrap;rounded=0;" vertex="1" parent="1">
          <mxGeometry x="97" y="259" width="248" height="30" as="geometry" />
        </mxCell>
        <mxCell id="2MlvWHcVVSx4wjcfHvhn-7" value="SELECT * FROM ILLABT (&lt;div&gt;&lt;span style=&quot;white-space: pre;&quot;&gt;&#x9;&lt;/span&gt;PARTITION BY TANKID ORDER BY tsamp&lt;/div&gt;&lt;div&gt;&lt;span style=&quot;white-space: pre;&quot;&gt;&#x9;&lt;/span&gt;PATTERN A+ (AB)+&lt;br&gt;&lt;/div&gt;&lt;div&gt;&lt;span style=&quot;white-space: pre;&quot;&gt;&#x9;&lt;/span&gt;DEFINE A AS last(A.tstamp) - first(A.tstamp) BETWEEN INTERVAL &#39;1&#39; DAY AND INTERVAL &#39;2&#39; DAY&lt;br&gt;&lt;/div&gt;&lt;div&gt;&lt;span style=&quot;white-space: pre;&quot;&gt;&#x9;&lt;/span&gt;AND man_kendall_test(A.temp) &amp;lt;= -1.0&lt;br&gt;&lt;/div&gt;&lt;div&gt;&lt;span style=&quot;white-space: pre;&quot;&gt;&#x9;&lt;/span&gt;&lt;span style=&quot;background-color: initial;&quot;&gt;B AS last(B.tstamp) - first(B.tstamp) BETWEEN INTERVAL 15 MIN AND INTERVAL 30 MIN&lt;/span&gt;&lt;span style=&quot;background-color: initial; white-space: pre;&quot;&gt;&#x9;&lt;/span&gt;&lt;/div&gt;&lt;div&gt;&lt;span style=&quot;background-color: initial;&quot;&gt;&lt;span style=&quot;white-space: pre;&quot;&gt;&#x9;&lt;/span&gt;AND first(A.temp) &amp;gt;= 1.0&lt;/span&gt;&lt;/div&gt;&lt;div&gt;&lt;span style=&quot;white-space: pre;&quot;&gt;&#x9;&lt;/span&gt;AND last(A.temp) = 0&amp;nbsp;&lt;/div&gt;&lt;div&gt;)&amp;nbsp;&amp;nbsp;&lt;/div&gt;" style="text;html=1;align=left;verticalAlign=middle;whiteSpace=wrap;rounded=0;" vertex="1" parent="1">
          <mxGeometry x="101" y="288" width="356" height="148" as="geometry" />
        </mxCell>
        <mxCell id="2MlvWHcVVSx4wjcfHvhn-9" value="缺点：&lt;div&gt;&amp;nbsp;只能描述单个流中互斥的事件，没办法描述并发事件；&lt;span style=&quot;background-color: initial;&quot;&gt;&amp;nbsp;没办法描述 finishes、meet 这种在某个事件点状态有重叠的事件。&lt;/span&gt;&lt;/div&gt;&lt;div&gt;&lt;br&gt;&lt;/div&gt;" style="text;html=1;align=left;verticalAlign=middle;whiteSpace=wrap;rounded=0;" vertex="1" parent="1">
          <mxGeometry x="-143" y="128" width="180" height="156" as="geometry" />
        </mxCell>
      </root>
    </mxGraphModel>
  </diagram>
</mxfile>
